<svg version="1.1" xmlns="http://www.w3.org/2000/svg" xmlns:xlink="http://www.w3.org/1999/xlink" width="155.81107" height="169.62325" viewBox="0,0,155.81107,169.62325"><defs><linearGradient x1="180.00002" y1="201.6265" x2="180.00002" y2="348.37352" gradientUnits="userSpaceOnUse" id="color-1"><stop offset="0" stop-color="#ffcf3a"/><stop offset="1" stop-color="#ff7d3b"/></linearGradient></defs><g transform="translate(-102.09446,-190.18837)"><g data-paper-data="{&quot;isPaintingLayer&quot;:true}" fill-rule="nonzero" stroke="none" stroke-width="0" stroke-linecap="butt" stroke-linejoin="miter" stroke-miterlimit="10" stroke-dasharray="" stroke-dashoffset="0" style="mix-blend-mode: normal"><path d="M102.09446,359.81163v-169.62325h155.81107v169.62325z" fill="none"/><path d="M106.06717,348.93286v-147.86569h147.86569v147.86569z" fill="none"/><path d="M243.80853,289.09576c0,40.52307 -28.56806,59.27775 -63.80851,59.27775c-35.24048,0 -63.80851,-18.75468 -63.80851,-59.27775c0,-40.52307 28.56806,-87.46926 63.80851,-87.46926c35.24048,0 63.80851,46.94619 63.80851,87.46926z" fill="url(#color-1)"/><path d="M120.82484,259.23393h118.35034c2.94704,9.39422 4.63976,19.14536 4.80373,28.58606h-127.9578c0.16393,-9.44073 1.85668,-19.19187 4.80373,-28.58606z" fill="#000000"/></g></g></svg>