<svg version="1.1" xmlns="http://www.w3.org/2000/svg" xmlns:xlink="http://www.w3.org/1999/xlink" width="207.37461" height="208.59556" viewBox="0,0,207.37461,208.59556"><defs><linearGradient x1="267.89691" y1="245.71028" x2="252.40661" y2="236.62822" gradientUnits="userSpaceOnUse" id="color-1"><stop offset="0" stop-color="#48a943"/><stop offset="1" stop-color="#a99043"/></linearGradient><linearGradient x1="271.36598" y1="253.05908" x2="260.31212" y2="238.81134" gradientUnits="userSpaceOnUse" id="color-2"><stop offset="0" stop-color="#48a943"/><stop offset="1" stop-color="#a99043"/></linearGradient><linearGradient x1="98.82498" y1="256.07195" x2="111.9835" y2="243.85366" gradientUnits="userSpaceOnUse" id="color-3"><stop offset="0" stop-color="#48a943"/><stop offset="1" stop-color="#a99043"/></linearGradient><linearGradient x1="97.02798" y1="263.99723" x2="104.73753" y2="247.69544" gradientUnits="userSpaceOnUse" id="color-4"><stop offset="0" stop-color="#48a943"/><stop offset="1" stop-color="#a99043"/></linearGradient><linearGradient x1="101.65739" y1="221.57424" x2="103.33608" y2="239.45204" gradientUnits="userSpaceOnUse" id="color-5"><stop offset="0" stop-color="#48a943"/><stop offset="1" stop-color="#a99043"/></linearGradient><linearGradient x1="105.59499" y1="214.46547" x2="100.48937" y2="231.76051" gradientUnits="userSpaceOnUse" id="color-6"><stop offset="0" stop-color="#48a943"/><stop offset="1" stop-color="#a99043"/></linearGradient><linearGradient x1="180.00001" y1="69.13031" x2="180.00001" y2="274.93602" gradientUnits="userSpaceOnUse" id="color-7"><stop offset="0" stop-color="#ffcf3a"/><stop offset="1" stop-color="#ff7d3b"/></linearGradient><linearGradient x1="227.71931" y1="242.67004" x2="244.70256" y2="261.46049" gradientUnits="userSpaceOnUse" id="color-8"><stop offset="0" stop-color="#48a943"/><stop offset="1" stop-color="#a99043"/></linearGradient><linearGradient x1="221.46409" y1="260.17184" x2="224.4582" y2="274.42196" gradientUnits="userSpaceOnUse" id="color-9"><stop offset="0" stop-color="#48a943"/><stop offset="1" stop-color="#a99043"/></linearGradient><linearGradient x1="215.88232" y1="255.24855" x2="225.19586" y2="267.62406" gradientUnits="userSpaceOnUse" id="color-10"><stop offset="0" stop-color="#48a943"/><stop offset="1" stop-color="#a99043"/></linearGradient><linearGradient x1="128.99165" y1="234.37639" x2="111.79486" y2="257.71413" gradientUnits="userSpaceOnUse" id="color-11"><stop offset="0" stop-color="#48a943"/><stop offset="1" stop-color="#a99043"/></linearGradient><linearGradient x1="135.32554" y1="256.11361" x2="132.29377" y2="273.81225" gradientUnits="userSpaceOnUse" id="color-12"><stop offset="0" stop-color="#48a943"/><stop offset="1" stop-color="#a99043"/></linearGradient><linearGradient x1="140.97747" y1="250.27453" x2="131.54683" y2="265.64491" gradientUnits="userSpaceOnUse" id="color-13"><stop offset="0" stop-color="#48a943"/><stop offset="1" stop-color="#a99043"/></linearGradient></defs><g transform="translate(-76.3127,-68.34586)"><g data-paper-data="{&quot;isPaintingLayer&quot;:true}" fill-rule="nonzero" stroke="none" stroke-linecap="butt" stroke-linejoin="miter" stroke-miterlimit="10" stroke-dasharray="" stroke-dashoffset="0" style="mix-blend-mode: normal"><g stroke-width="5"><path d="M249.15139,248.52859c0,0 -1.34745,7.29531 -2.66073,8.93791c-1.24021,1.5512 -3.92059,-3.24747 -2.35501,-7.7743c0.05668,-0.16388 4.94428,-12.87226 7.51011,-14.62266c5.64668,-3.85211 19.84193,-6.14201 19.84193,-6.14201c0,0 -12.44145,8.34583 -16.55512,11.95576c-2.89364,2.5393 -5.78117,7.64531 -5.78117,7.64531z" data-paper-data="{&quot;index&quot;:null}" fill="url(#color-1)"/><path d="M246.65468,260.21261c0,0 -3.75846,-3.01603 -1.50984,-7.93996c2.80349,-6.13895 11.97937,-14.51071 15.02734,-15.20082c6.6239,-1.49976 20.59767,1.63952 20.59767,1.63952c0,0 -14.54335,3.1721 -19.66003,5.01564c-3.59918,1.29678 -8.1224,4.99439 -8.1224,4.99439z" data-paper-data="{&quot;index&quot;:null}" fill="url(#color-2)"/></g><g stroke-width="5"><path d="M117.73626,254.76791c0,0 -3.92382,-4.36036 -7.2983,-6.21348c-4.79725,-2.63443 -18.74966,-8.09089 -18.74966,-8.09089c0,0 14.35447,-0.83549 20.70082,1.70373c2.88376,1.15382 10.40506,12.50378 10.49586,12.65152c2.50789,4.0809 0.92917,9.34582 -0.61726,8.09968c-1.63755,-1.31956 -4.53143,-8.15057 -4.53143,-8.15057z" data-paper-data="{&quot;index&quot;:null}" fill="url(#color-3)"/><path d="M114.03279,255.78606c0,0 -5.21607,-2.63144 -9.01057,-3.11882c-5.39434,-0.69288 -20.27953,-0.6434 -20.27953,-0.6434c0,0 12.96363,-6.08816 19.75513,-6.057c3.12509,0.01434 13.89487,6.20261 17.96013,11.58963c3.26065,4.32082 0.24373,8.07856 0.24373,8.07856z" data-paper-data="{&quot;index&quot;:null}" fill="url(#color-4)"/><path d="M114.89615,235.14159c0,0 6.70807,-3.16844 8.80843,-3.06221c1.9835,0.10031 -0.34517,5.07917 -4.93378,6.45319c-0.16613,0.04974 -13.33564,3.5074 -16.25525,2.44759c-6.42524,-2.33237 -16.5768,-12.51544 -16.5768,-12.51544c0,0 14.04196,5.22171 19.37504,6.45138c3.7514,0.86498 9.58237,0.22548 9.58237,0.22548z" data-paper-data="{&quot;index&quot;:null}" fill="url(#color-5)"/><path d="M125.8375,230.34193c0,0 -0.25206,4.81237 -5.56199,5.86403c-6.62021,1.31116 -18.7754,-1.24506 -21.11617,-3.31562c-5.08699,-4.49977 -10.70285,-17.67488 -10.70285,-17.67488c0,0 11.07092,9.95017 15.55638,13.02584c3.15517,2.1635 8.79867,3.67433 8.79867,3.67433z" data-paper-data="{&quot;index&quot;:null}" fill="url(#color-6)"/></g><path d="M76.3127,275.72047v-207.3746h207.37461v207.3746z" fill="none" stroke-width="0"/><path d="M269.48841,191.80179c0,56.83168 -40.06535,83.13424 -89.4884,83.13424c-49.4231,0 -89.48841,-26.30255 -89.48841,-83.13424c0,-56.83168 40.06536,-122.67147 89.48841,-122.67147c49.4231,0 89.4884,65.83979 89.4884,122.67147z" fill="url(#color-7)" stroke-width="0"/><path d="M97.00963,149.922h165.98073c4.13308,13.17495 6.50704,26.85047 6.737,40.0906h-179.45472c0.22991,-13.24018 2.6039,-26.91569 6.737,-40.0906z" fill="#000000" stroke-width="0"/><path d="M223.57662,265.04089c0,0 8.99299,-3.32134 13.39558,-6.71849c6.25882,-4.82945 20.58834,-19.50435 20.58834,-19.50435c0,0 -3.41554,16.93644 -10.03409,23.59506c-5.48824,5.52148 -26.92496,13.58781 -26.92496,13.58781z" data-paper-data="{&quot;index&quot;:null}" fill="url(#color-8)" stroke-width="5"/><path d="M212.32722,273.49323c0,0 5.72449,-0.72465 9.07934,-2.18315c4.76933,-2.07344 16.81703,-9.07516 16.81703,-9.07516c0,0 -7.06287,10.04354 -12.59023,13.20308c-2.51162,1.43568 -15.95811,1.50716 -16.1293,1.5033c-4.72862,-0.10669 -8.22877,-3.48936 -6.36318,-3.98296c1.9755,-0.52269 9.18634,0.5349 9.18634,0.5349z" data-paper-data="{&quot;index&quot;:null}" fill="url(#color-9)" stroke-width="5"/><path d="M213.48589,270.3266c0,0 4.99308,-2.35706 7.44565,-4.70011c3.48663,-3.33092 11.48601,-13.38605 11.48601,-13.38605c0,0 -1.96884,11.41919 -5.66305,15.98327c-1.69988,2.10015 -12.63352,6.63434 -19.28322,7.00221c-5.33359,0.29506 -6.81079,-3.39331 -6.81079,-3.39331z" data-paper-data="{&quot;index&quot;:null}" fill="url(#color-10)" stroke-width="5"/><path d="M136.19896,275.77333c0,0 -21.70626,-10.01837 -27.26351,-16.87605c-6.70176,-8.27 -10.16025,-29.30505 -10.16025,-29.30505c0,0 14.5097,18.22621 20.84722,24.22439c4.45794,4.21926 13.56402,8.34436 13.56402,8.34436z" data-paper-data="{&quot;index&quot;:null}" fill="url(#color-11)" stroke-width="5"/><path d="M144.57727,272.65878c0,0 7.30149,-1.31353 9.30184,-0.66435c1.88905,0.61305 -1.6551,4.81432 -6.44318,4.94684c-0.17335,0.0048 -13.78891,-0.08398 -16.33211,-1.8671c-5.59686,-3.92415 -12.74853,-16.39821 -12.74853,-16.39821c0,0 12.19919,8.69613 17.02849,11.27134c3.39703,1.81146 9.1935,2.71147 9.1935,2.71147z" data-paper-data="{&quot;index&quot;:null}" fill="url(#color-12)" stroke-width="5"/><path d="M156.39071,270.87192c0,0 -1.49577,4.58095 -6.89642,4.21449c-6.73332,-0.45689 -17.80443,-6.08836 -19.52569,-8.69674c-3.74067,-5.66859 -5.73426,-19.85121 -5.73426,-19.85121c0,0 8.09996,12.48847 11.63043,16.62547c2.48341,2.91006 7.53927,5.83754 7.53927,5.83754z" data-paper-data="{&quot;index&quot;:null}" fill="url(#color-13)" stroke-width="5"/></g></g></svg>