<svg version="1.1" xmlns="http://www.w3.org/2000/svg" xmlns:xlink="http://www.w3.org/1999/xlink" width="59.6583" height="59.65831" viewBox="0,0,59.6583,59.65831"><defs><radialGradient cx="180" cy="275.00001" r="29.82915" gradientUnits="userSpaceOnUse" id="color-1"><stop offset="0" stop-color="#6cff4f" stop-opacity="0.63529"/><stop offset="1" stop-color="#49ad36" stop-opacity="0.23922"/></radialGradient></defs><g transform="translate(-150.17085,-245.17084)"><g data-paper-data="{&quot;isPaintingLayer&quot;:true}" fill-rule="nonzero" stroke="none" stroke-width="0" stroke-linecap="butt" stroke-linejoin="miter" stroke-miterlimit="10" stroke-dasharray="" stroke-dashoffset="0" style="mix-blend-mode: normal"><path d="M150.17085,275c0,-16.47419 13.35497,-29.82915 29.82915,-29.82915c16.47418,0 29.82915,13.35497 29.82915,29.82915c0,16.47419 -13.35497,29.82916 -29.82915,29.82916c-16.47418,0 -29.82915,-13.35497 -29.82915,-29.82916z" fill="url(#color-1)"/><g fill-opacity="0.20784" fill="#d6ff00"><path d="M180.18916,282.9817c-1.36647,2.92142 -9.68359,-0.96883 -8.31713,-3.89026c0.61402,-1.31275 1.8094,-2.8888 3.14806,-4.12898c-1.94981,0.45514 -4.24232,0.51234 -5.83276,0.18269c-3.15808,-0.65458 -1.29451,-9.64546 1.86357,-8.99087c1.34542,0.27886 3.04182,1.01147 4.50618,1.95256c-1.20279,-1.57132 -2.18754,-3.59169 -2.54699,-5.15026l-0.00001,0.00001c-0.72479,-3.14271 8.22233,-5.20614 8.94712,-2.06343c0.34434,1.49306 0.3584,3.61845 0.01334,5.49946c0.91485,-1.51771 2.15028,-2.95507 3.26228,-3.80836v0.00001c2.55869,-1.96342 8.14844,5.32104 5.58975,7.28446c-1.15908,0.88943 -2.96582,1.74417 -4.73908,2.22615c1.77534,0.36644 3.59688,1.08667 4.79454,1.88293v-0.00001c2.68579,1.78563 -2.39782,9.43192 -5.0836,7.64629c-1.5839,-1.05304 -3.46739,-3.1637 -4.45834,-5.15138c0.13873,2.1769 -0.36628,4.83998 -1.14693,6.50898z"/><path d="M175.12322,272.70511c-0.5698,-2.47068 0.97116,-4.93547 3.44184,-5.50527c2.47068,-0.5698 4.93547,0.97116 5.50527,3.44184c0.5698,2.47068 -0.97116,4.93547 -3.44184,5.50527c-2.47068,0.5698 -4.93547,-0.97116 -5.50527,-3.44184z"/></g><g fill-opacity="0.20784" fill="#d6ff00"><path d="M163.12067,287.42481c-0.92749,0.4655 -2.25276,-2.17501 -1.32527,-2.64052c0.41677,-0.20918 1.03286,-0.36897 1.6182,-0.41537c-0.58321,-0.27371 -1.17365,-0.71625 -1.50965,-1.11654c-0.66719,-0.79486 1.59573,-2.6943 2.26292,-1.89944c0.28424,0.33863 0.56668,0.86183 0.74895,1.39143c0.00942,-0.63664 0.16343,-1.34325 0.38332,-1.80856v0c0.44339,-0.93827 3.11458,0.32405 2.67119,1.26232c-0.21065,0.44576 -0.63077,0.98539 -1.09288,1.39171c0.53361,-0.20098 1.13217,-0.31776 1.58314,-0.31162v0c1.03766,0.01412 0.99745,2.96828 -0.04021,2.95416c-0.47006,-0.0064 -1.09678,-0.15066 -1.64075,-0.3824c0.37537,0.44645 0.69188,0.99147 0.83567,1.43132v0c0.32243,0.98639 -2.48578,1.90434 -2.80821,0.91795c-0.19015,-0.58171 -0.24515,-1.49027 -0.09922,-2.18985c-0.3989,0.5775 -1.0573,1.14947 -1.58717,1.41541z"/><path d="M163.88962,283.81931c0.34858,-0.73763 1.22912,-1.05301 1.96675,-0.70443c0.73763,0.34858 1.05301,1.22912 0.70443,1.96675c-0.34858,0.73763 -1.22912,1.05301 -1.96675,0.70444c-0.73763,-0.34858 -1.05301,-1.22912 -0.70443,-1.96675z"/></g><g fill-opacity="0.20784" fill="#d6ff00"><path d="M193.60607,292.71781c-1.12214,0.5632 -2.72554,-2.63148 -1.6034,-3.19468c0.50424,-0.25308 1.24963,-0.44641 1.95781,-0.50255c-0.70561,-0.33115 -1.41997,-0.86656 -1.82648,-1.35087c-0.80721,-0.96167 1.93063,-3.25975 2.73783,-2.29807c0.34389,0.40969 0.68561,1.0427 0.90613,1.68345c0.0114,-0.77025 0.19772,-1.62516 0.46377,-2.18812v0c0.53645,-1.13518 3.76823,0.39206 3.23178,1.52724c-0.25486,0.53931 -0.76315,1.19219 -1.32224,1.68379c0.6456,-0.24316 1.36978,-0.38444 1.91539,-0.37702v0c1.25543,0.01709 1.20678,3.59123 -0.04865,3.57414c-0.56871,-0.00774 -1.32696,-0.18228 -1.98509,-0.46265c0.45415,0.54014 0.83709,1.19954 1.01105,1.73171v0c0.3901,1.19341 -3.00747,2.304 -3.39757,1.1106c-0.23005,-0.70379 -0.29659,-1.80303 -0.12005,-2.64943c-0.48262,0.69869 -1.2792,1.39071 -1.92027,1.71246z"/><path d="M194.5364,288.35564c0.42173,-0.89243 1.48707,-1.274 2.37951,-0.85227c0.89243,0.42173 1.274,1.48707 0.85227,2.37951c-0.42173,0.89243 -1.48707,1.27401 -2.37951,0.85227c-0.89243,-0.42173 -1.274,-1.48708 -0.85227,-2.37951z"/></g></g></g></svg>