<svg version="1.1" xmlns="http://www.w3.org/2000/svg" xmlns:xlink="http://www.w3.org/1999/xlink" width="60.28127" height="137.04058" viewBox="0,0,60.28127,137.04058"><defs><linearGradient x1="192.29415" y1="84.32467" x2="192.29415" y2="104.8369" gradientUnits="userSpaceOnUse" id="color-1"><stop offset="0" stop-color="#ffcf3a"/><stop offset="1" stop-color="#ff7d3b"/></linearGradient></defs><g transform="translate(-163.31039,9.48217)"><g data-paper-data="{&quot;isPaintingLayer&quot;:true}" fill-rule="nonzero" stroke-linecap="butt" stroke-linejoin="miter" stroke-miterlimit="10" stroke-dasharray="" stroke-dashoffset="0" style="mix-blend-mode: normal"><path d="M178.1898,121.19251v-115.92295h28.00361v115.92295z" fill="#ff5100" stroke="none" stroke-width="0"/><path d="M166.71138,110.17144c0,-9.60256 7.78442,-17.38698 17.38699,-17.38698c9.60256,0 17.38698,7.78442 17.38698,17.38698c0,9.60256 -7.78442,17.38698 -17.38698,17.38698c-9.60256,0 -17.38699,-7.78442 -17.38699,-17.38698z" fill-opacity="0.35294" fill="#ffffff" stroke="none" stroke-width="0"/><path d="M195.27571,74.9007c0,-7.81923 6.33875,-14.15797 14.15798,-14.15797c7.81923,0 14.15797,6.33874 14.15797,14.15798c0,7.81923 -6.33874,14.15798 -14.15797,14.15798c-7.81923,0 -14.15798,-6.33875 -14.15798,-14.15798z" fill-opacity="0.35294" fill="#ffffff" stroke="none" stroke-width="0"/><path d="M170.18877,49.93796c0,-4.32115 3.50299,-7.82415 7.82414,-7.82415c4.32116,0 7.82415,3.50299 7.82415,7.82415c0,4.32115 -3.50299,7.82414 -7.82415,7.82414c-4.32116,0 -7.82414,-3.50299 -7.82414,-7.82414z" fill-opacity="0.35294" fill="#ffffff" stroke="none" stroke-width="0"/><path d="M187.47956,14.68701c-5.52903,5.52903 -14.49337,5.52903 -20.0224,0c-5.52903,-5.52903 -5.52903,-14.49337 0,-20.0224c5.52903,-5.52903 14.49337,-5.52903 20.0224,0c5.52903,5.52903 5.52903,14.49337 0,20.0224z" fill-opacity="0.35294" fill="#ffffff" stroke="none" stroke-width="0"/><path d="M207.45694,37.42854c-2.03701,2.03701 -5.33966,2.03701 -7.37668,0c-2.03701,-2.03701 -2.03701,-5.33966 0,-7.37668c2.03701,-2.03701 5.33966,-2.03701 7.37668,0c2.03701,2.03701 2.03701,5.33966 0,7.37668z" fill-opacity="0.35294" fill="#ffffff" stroke="none" stroke-width="0"/><g><path d="M201.21328,96.55109c0,5.66429 -3.99323,8.28582 -8.91913,8.28582c-4.9259,0 -8.91912,-2.62152 -8.91912,-8.28581c0,-5.66429 3.99323,-12.22641 8.91912,-12.22641c4.9259,0 8.91913,6.56212 8.91913,12.22641z" fill="none" stroke="#000000" stroke-width="4"/><path d="M201.21328,96.55109c0,5.6643 -3.99323,8.28582 -8.91913,8.28582c-4.9259,0 -8.91913,-2.62152 -8.91913,-8.28582c0,-5.66429 3.99323,-12.22641 8.91913,-12.22641c4.9259,0 8.91913,6.56212 8.91913,12.22641z" fill="url(#color-1)" stroke="none" stroke-width="0"/><path d="M184.02267,92.37702h16.54296c0.41193,1.31312 0.64854,2.67613 0.67146,3.99575h-17.88588c0.02292,-1.31962 0.25952,-2.68263 0.67146,-3.99575z" fill="#000000" stroke="none" stroke-width="0"/></g></g></g></svg>