<svg version="1.1" xmlns="http://www.w3.org/2000/svg" xmlns:xlink="http://www.w3.org/1999/xlink" width="44.37878" height="39.35505" viewBox="0,0,44.37878,39.35505"><defs><linearGradient x1="182.25813" y1="51.58581" x2="190.41416" y2="71.45326" gradientUnits="userSpaceOnUse" id="color-1"><stop offset="0" stop-color="#48a943"/><stop offset="1" stop-color="#a99043"/></linearGradient><linearGradient x1="177.22869" y1="35.9074" x2="163.69162" y2="68.88266" gradientUnits="userSpaceOnUse" id="color-2"><stop offset="0" stop-color="#48a943"/><stop offset="1" stop-color="#a99043"/></linearGradient></defs><g transform="translate(-152.67365,-36.499)"><g data-paper-data="{&quot;isPaintingLayer&quot;:true}" fill-rule="nonzero" stroke="none" stroke-linecap="butt" stroke-linejoin="miter" stroke-miterlimit="10" stroke-dasharray="" stroke-dashoffset="0" style="mix-blend-mode: normal"><path d="M188.2052,54.00147c5.11237,-4.4272 9.52288,-1.558 8.76123,7.08983c-0.76164,8.64783 -16.81584,14.56219 -16.81584,14.56219c0,0 2.94225,-17.22482 8.05461,-21.65202z" data-paper-data="{&quot;index&quot;:null}" fill="url(#color-1)" stroke-width="0"/><path d="M183.10989,74.3357l3.91384,-13.86484l-1.53003,9.84805l3.65717,-4.32396l3.18394,-11.20916l-2.08655,11.66355z" data-paper-data="{&quot;index&quot;:null}" fill="#2c7138" stroke-width="5"/><path d="M180.7267,75.85405c0,0 -26.64617,-9.81642 -27.91031,-24.16977c-1.26416,-14.35335 6.05626,-19.11556 14.54157,-11.76745c8.48531,7.34811 13.36874,35.93722 13.36874,35.93722z" fill="url(#color-2)" stroke-width="0"/><path d="M163.96699,60.57732l-3.46318,-19.35872l5.28458,18.60456l6.07003,7.17675l-2.5395,-16.34543l6.49605,23.01235z" fill="#2c7138" stroke-width="5"/></g></g></svg>