<svg version="1.1" xmlns="http://www.w3.org/2000/svg" xmlns:xlink="http://www.w3.org/1999/xlink" width="89.93967" height="103.53" viewBox="0,0,89.93967,103.53"><g transform="translate(-135.04476,-223.77966)"><g data-paper-data="{&quot;isPaintingLayer&quot;:true}" fill-rule="nonzero" stroke-linecap="butt" stroke-linejoin="miter" stroke-miterlimit="10" stroke-dasharray="" stroke-dashoffset="0" style="mix-blend-mode: normal"><path d="M164.93417,278.64444c-1.37637,0.0239 -2.96459,0.05603 -3.02942,0.00522c-1.5,-1.2 -3.16,-2.5 -4.56,-3.73c-2.07,-1.69 -4.45,-3.64 -6.1,-5c-1.05454,-0.89258 -2.30526,-1.52308 -3.65,-1.84c-0.68174,-0.16149 -1.39495,-0.13032 -2.06,0.09c-0.53047,0.20452 -0.95834,0.61081 -1.19,1.13c-0.39443,1.06285 -0.53484,2.20322 -0.41,3.33c0.14833,1.42194 0.5372,2.80834 1.15,4.1c0.81357,1.79045 1.81949,3.4871 3,5.06l0.15,0.22l18,27.21c0.20154,0.29985 0.33155,0.64198 0.38,1c0.14771,2.30478 0.80336,4.54838 1.92,6.57c0.53466,0.94381 1.54559,1.51654 2.63,1.49h28.23c1.72111,-0.01209 3.39686,-0.55322 4.8,-1.55c1.83326,-1.36611 3.33682,-3.12596 4.4,-5.15l0.34,-0.58c3.5,-6 6.89,-11.87 7.24,-18.81l-0.18,-8c0,-0.11 0,-0.23 0,-0.35v-1.89c0.07,-5.32 0.15,-11.9 -4.72,-12.73c0,0 -23.13226,-10.07213 -29.68581,-12.9062c-1.05687,-0.45704 -1.74047,-2.08253 -1.76625,-3.24558c-0.05863,-2.64475 -0.28794,-12.98822 -0.28794,-12.98822c0,-4.11 -1.68,-6.71 -3.82,-7.8c-0.76493,-0.39082 -1.61102,-0.59635 -2.47,-0.6c-0.85605,0.00143 -1.69942,0.20713 -2.46,0.6c-2.13,1.08 -3.78,3.69 -3.78,7.9c0,0 -0.05037,30.99851 -0.05847,35.98553c-0.00213,1.30874 -0.97499,2.46124 -2.01211,2.47925zM162.26476,272.86966v-32.72c0,-6.26 2.8,-10.3 6.37,-12.12c2.89291,-1.45994 6.30709,-1.45994 9.2,0c3.61,1.82 6.44,5.86 6.44,12v10.9c0.20253,-0.0524 27.15,13.55 27.15,13.55c0.17838,-0.00036 0.35621,0.01978 0.53,0.06c9,1.38 8.85,10.29 8.76,17.47c0,3.38 0.1,6.76 0.18,10.14c0.00501,0.08993 0.00501,0.18007 0,0.27c-0.4,8.12 -4.08,14.46 -7.87,21l-0.32,0.57c-1.41917,2.63449 -3.40731,4.91982 -5.82,6.69c-2.19009,1.53441 -4.79593,2.36465 -7.47,2.38h-28.21c-2.68955,0.10516 -5.22146,-1.26821 -6.6,-3.58c-1.46562,-2.46395 -2.36086,-5.22484 -2.62,-8.08l-17.64,-26.78c-1.38788,-1.86615 -2.56818,-3.87803 -3.52,-6c-0.83838,-1.7998 -1.35616,-3.73214 -1.53,-5.71c-0.18696,-1.89254 0.09465,-3.80201 0.82,-5.56c0.6933,-1.62697 2.00173,-2.91384 3.64,-3.58c1.51146,-0.57912 3.15987,-0.70084 4.74,-0.35c2.12156,0.46654 4.09814,1.44111 5.76,2.84c1.43,1.18 3.79,3.12 6.09,5l2,1.61z" fill="#ffffff" stroke="#ffffff" stroke-width="8.5"/><path d="M166.89649,276.1697c0.0081,-4.98702 0.09074,-36.03687 0.09074,-36.03687c0,-4.21 1.65695,-6.82204 3.78695,-7.90204c0.76058,-0.39287 1.60678,-0.59909 2.46284,-0.60053c0.85898,0.00365 1.70778,0.20883 2.47271,0.59965c2.14,1.09 3.82432,3.68975 3.82432,7.79975c0,0 0.22954,10.34347 0.28817,12.98822c0.02578,1.16306 0.71401,2.78871 1.77089,3.24575c6.55354,2.83406 29.73082,12.94696 29.73082,12.94696c4.87,0.83 4.78992,7.42858 4.71992,12.74858l-0.00054,1.89245c0,0.12 -0.00011,0.24044 -0.00011,0.35044l0.17671,8.00909c-0.35,6.94 -3.75385,12.8275 -7.25385,18.8275l-0.34053,0.58042c-1.06319,2.02404 -2.57246,3.78774 -4.40572,5.15386c-1.40314,0.99678 -3.08352,1.54028 -4.80463,1.55237l-28.26044,0.00334c-1.08441,0.02654 -2.09856,-0.54696 -2.63323,-1.49077c-1.11664,-2.02162 -1.77683,-4.2667 -1.92453,-6.57148c-0.04845,-0.35802 -0.17936,-0.7005 -0.3809,-1.00035l-18.03013,-27.24558l-0.15008,-0.22037c-1.18051,-1.5729 -2.18746,-3.27747 -3.00104,-5.06792c-0.6128,-1.29166 -1.00163,-2.68381 -1.14996,-4.10575c-0.12484,-1.12678 0.01608,-2.27176 0.41052,-3.33461c0.23166,-0.51919 0.65986,-0.92731 1.19033,-1.13182c0.66505,-0.22033 1.47622,-0.2314 2.15796,-0.06991c1.34474,0.31692 2.59579,0.94567 3.65034,1.83825c1.65,1.36 4.03075,3.30148 6.10075,4.99148c1.4,1.23 3.05901,2.51995 4.55901,3.71995c0.06483,0.05081 1.55545,0.04039 2.93182,0.01649c1.03712,-0.01801 2.00877,-1.17779 2.0109,-2.48653z" data-paper-data="{&quot;noHover&quot;:false,&quot;origItem&quot;:[&quot;Path&quot;,{&quot;applyMatrix&quot;:true,&quot;segments&quot;:[[[164.93417,278.64444],[1.03712,-0.01801],[-1.37637,0.0239]],[[161.90476,278.64966],[0.06483,0.05081],[-1.5,-1.2]],[[157.34476,274.91966],[1.4,1.23],[-2.07,-1.69]],[[151.24476,269.91966],[1.65,1.36],[-1.05454,-0.89258]],[[147.59476,268.07966],[1.34474,0.31692],[-0.68174,-0.16149]],[[145.53475,268.16966],[0.66505,-0.22033],[-0.53047,0.20452]],[[144.34476,269.29966],[0.23166,-0.51919],[-0.39443,1.06285]],[[143.93476,272.62966],[-0.12484,-1.12678],[0.14833,1.42194]],[[145.08476,276.72966],[-0.6128,-1.29166],[0.81357,1.79045]],[[148.08476,281.78966],[-1.18051,-1.5729],[0,0]],[148.23476,282.00966],[[166.23476,309.21966],[0,0],[0.20154,0.29985]],[[166.61476,310.21966],[-0.04845,-0.35802],[0.14771,2.30478]],[[168.53476,316.78966],[-1.11664,-2.02162],[0.53466,0.94381]],[[171.16476,318.27966],[-1.08441,0.02654],[0,0]],[[199.39476,318.27966],[0,0],[1.72111,-0.01209]],[[204.19476,316.72966],[-1.40314,0.99678],[1.83326,-1.36611]],[[208.59476,311.57966],[-1.06319,2.02404],[0,0]],[[208.93476,310.99966],[0,0],[3.5,-6]],[[216.17476,292.18966],[-0.35,6.94],[0,0]],[[215.99476,284.18966],[0,0],[0,-0.11]],[[215.99476,283.83966],[0,0.12],[0,0]],[[215.99476,281.94966],[0,0],[0.07,-5.32]],[[211.27476,269.21966],[4.87,0.83],[0,0]],[[181.58895,256.31346],[6.55354,2.83406],[-1.05687,-0.45704]],[[179.82269,253.06788],[0.02578,1.16306],[-0.05863,-2.64475]],[[179.53476,240.07966],[0,0],[0,-4.11]],[[175.71476,232.27966],[2.14,1.09],[-0.76493,-0.39082]],[[173.24476,231.67966],[0.85898,0.00365],[-0.85605,0.00143]],[[170.78476,232.27966],[0.76058,-0.39287],[-2.13,1.08]],[[167.00475,240.17966],[0,-4.21],[0,0]],[[166.94628,276.16519],[0.0081,-4.98702],[-0.00213,1.30874]]],&quot;closed&quot;:true,&quot;fillColor&quot;:[0,0,0,1]}]}" fill="#ff7b31" stroke="none" stroke-width="0.5"/></g></g></svg>