<svg version="1.1" xmlns="http://www.w3.org/2000/svg" xmlns:xlink="http://www.w3.org/1999/xlink" width="136.9629" height="142.95383" viewBox="0,0,136.9629,142.95383"><g transform="translate(-107.42433,-21.8937)"><g data-paper-data="{&quot;isPaintingLayer&quot;:true}" fill-rule="nonzero" stroke="none" stroke-linecap="butt" stroke-linejoin="miter" stroke-miterlimit="10" stroke-dasharray="" stroke-dashoffset="0" style="mix-blend-mode: normal"><g><path d="M172.9155,46.39301c6.01113,-13.7076 21.99632,-19.94681 35.70392,-13.93568c13.70759,6.01113 19.94682,21.99632 13.93569,35.70392c-6.01113,13.70761 -21.99631,19.94682 -35.7039,13.93569c-13.70759,-6.01113 -19.94682,-21.99631 -13.93568,-35.70392z" fill="#3a984b" stroke-width="0"/><path d="M172.9155,46.39301c6.01113,-13.7076 21.99632,-19.94681 35.70392,-13.93568c13.70759,6.01113 19.94683,21.99632 13.93569,35.70392c-6.01113,13.70761 -21.99633,19.94682 -35.70392,13.93569c-13.70759,-6.01113 -19.94681,-21.99631 -13.93568,-35.70392z" fill="#996d3a" stroke-width="0"/><path d="M175.48301,47.51895c5.3893,-12.2896 19.72087,-17.88338 32.01047,-12.49408c12.2896,5.3893 17.88339,19.72087 12.49409,32.01046c-5.3893,12.2896 -19.72088,17.88339 -32.01048,12.49409c-12.2896,-5.3893 -17.88338,-19.72087 -12.49408,-32.01047z" fill="#ffc054" stroke-width="0"/><path d="M176.66725,45.16831c2.37022,-4.13566 5.82456,-7.35029 9.83649,-9.43834l1.67654,4.29539c-2.93021,1.6201 -5.46822,3.99379 -7.29029,6.99473zM191.40061,33.81865c4.36563,-1.1818 9.08429,-1.15722 13.6294,0.27931l-1.85177,4.22273c-3.37321,-0.97315 -6.84817,-0.99991 -10.10109,-0.20665zM209.84411,36.20909c4.13566,2.37022 7.35028,5.82457 9.43833,9.83649l-4.29537,1.67654c-1.6201,-2.93021 -3.99382,-5.46822 -6.99474,-7.2903zM221.19378,50.94241c1.1818,4.36563 1.15722,9.08429 -0.2793,13.62941l-4.22274,-1.85178c0.97314,-3.37321 0.9999,-6.84816 0.20666,-10.10109zM218.80335,69.38592c-2.37022,4.13566 -5.82456,7.35028 -9.83649,9.43833l-1.67654,-4.29541c2.93021,-1.6201 5.46821,-3.99379 7.29029,-6.99471zM204.07,80.73558c-4.36563,1.1818 -9.08429,1.15722 -13.62941,-0.2793l1.85179,-4.22277c3.37319,0.97313 6.84815,0.9999 10.10108,0.20666zM185.62648,78.34517c-4.13566,-2.37022 -7.35028,-5.82458 -9.43834,-9.83649l4.29541,-1.67655c1.6201,2.93019 3.9938,5.46821 6.99472,7.29029zM174.27684,63.6118c-1.1818,-4.36563 -1.15721,-9.08429 0.27931,-13.62941l4.22275,1.85178c-0.97314,3.3732 -0.99989,6.84815 -0.20665,10.10108z" fill="#ffa200" stroke-width="0"/><text transform="translate(183.33433,69.03686) rotate(23.67871) scale(1.15025,1.15025)" font-size="40" xml:space="preserve" fill="#ffffff" fill-rule="nonzero" stroke="none" stroke-width="1" stroke-linecap="butt" stroke-linejoin="miter" stroke-miterlimit="10" stroke-dasharray="" stroke-dashoffset="0" font-family="&quot;PatrickHand-Regular&quot;, Sans Serif" font-weight="normal" text-anchor="start" style="mix-blend-mode: normal"><tspan x="0" dy="0">?</tspan></text></g><g><path d="M190.92394,94.73086c-3.48705,-14.55585 5.48597,-29.18248 20.04181,-32.66954c14.55584,-3.48705 29.18249,5.48597 32.66955,20.04181c3.48705,14.55585 -5.48595,29.18249 -20.04179,32.66955c-14.55584,3.48705 -29.18249,-5.48596 -32.66954,-20.04181z" fill="#3a984b" stroke-width="0"/><path d="M190.92394,94.73085c-3.48705,-14.55585 5.48597,-29.18248 20.04181,-32.66954c14.55584,-3.48705 29.1825,5.48596 32.66955,20.04181c3.48705,14.55585 -5.48596,29.1825 -20.0418,32.66956c-14.55584,3.48705 -29.18249,-5.48596 -32.66954,-20.04181z" fill="#996d3a" stroke-width="0"/><path d="M193.65034,94.07772c-3.12634,-13.05009 4.91846,-26.16366 17.96855,-29.29c13.05009,-3.12633 26.16366,4.91846 29.29,17.96855c3.12634,13.05009 -4.91846,26.16367 -17.96855,29.29c-13.05009,3.12633 -26.16366,-4.91846 -29.29,-17.96855z" fill="#ffc054" stroke-width="0"/><path d="M193.17465,91.48897c-0.60841,-4.72773 0.20351,-9.37608 2.14021,-13.46322l3.93034,2.41115c-1.35711,3.0609 -1.94653,6.48558 -1.58649,9.97785zM198.06364,73.54504c2.76592,-3.57843 6.54176,-6.4085 11.03198,-8.00838l1.07422,4.48403c-3.27631,1.26148 -6.06219,3.33873 -8.17587,5.93548zM214.20763,64.31203c4.72773,-0.6084 9.37608,0.20352 13.46322,2.14022l-2.41114,3.93032c-3.06089,-1.35711 -6.48561,-1.94652 -9.97787,-1.58651zM232.15154,69.20099c3.57843,2.76592 6.4085,6.54176 8.00838,11.03198l-4.48405,1.07422c-1.26149,-3.27631 -3.33873,-6.06218 -5.93547,-8.17587zM241.38456,85.34498c0.60841,4.72773 -0.20351,9.37608 -2.14021,13.46322l-3.93035,-2.41116c1.35711,-3.0609 1.94652,-6.48558 1.58651,-9.97785zM236.49559,103.2889c-2.76592,3.57843 -6.54176,6.4085 -11.03198,8.00839l-1.07423,-4.48407c3.27629,-1.26148 6.06216,-3.33873 8.17586,-5.93547zM220.3516,112.52194c-4.72773,0.60841 -9.37609,-0.20354 -13.46322,-2.14021l2.41116,-3.93035c3.06089,1.3571 6.48559,1.94651 9.97785,1.58649zM202.40768,107.63294c-3.57843,-2.76592 -6.4085,-6.54176 -8.00839,-11.03198l4.48405,-1.07422c1.26148,3.2763 3.33874,6.06216 5.93548,8.17585z" fill="#ffa200" stroke-width="0"/><text transform="translate(212.90322,106.48703) rotate(-13.47205) scale(1.15025,1.15025)" font-size="40" xml:space="preserve" fill="#ffffff" fill-rule="nonzero" stroke="none" stroke-width="1" stroke-linecap="butt" stroke-linejoin="miter" stroke-miterlimit="10" stroke-dasharray="" stroke-dashoffset="0" font-family="&quot;PatrickHand-Regular&quot;, Sans Serif" font-weight="normal" text-anchor="start" style="mix-blend-mode: normal"><tspan x="0" dy="0">?</tspan></text></g><g><path d="M108.17627,99.18876c-3.48705,-14.55585 5.48596,-29.18248 20.04181,-32.66954c14.55584,-3.48705 29.1825,5.48596 32.66955,20.04181c3.48705,14.55585 -5.48595,29.18249 -20.04179,32.66955c-14.55584,3.48705 -29.18249,-5.48596 -32.66954,-20.04181z" fill="#3a984b" stroke-width="0"/><path d="M108.17627,99.18875c-3.48705,-14.55585 5.48596,-29.18248 20.04181,-32.66954c14.55584,-3.48705 29.1825,5.48596 32.66956,20.0418c3.48705,14.55585 -5.48596,29.1825 -20.0418,32.66956c-14.55584,3.48705 -29.18249,-5.48596 -32.66954,-20.04181z" fill="#996d3a" stroke-width="0"/><path d="M110.90267,98.53563c-3.12633,-13.05009 4.91846,-26.16366 17.96855,-29.29c13.05009,-3.12633 26.16366,4.91845 29.29,17.96854c3.12634,13.05009 -4.91846,26.16367 -17.96855,29.29c-13.05009,3.12633 -26.16366,-4.91846 -29.29,-17.96855z" fill="#ffc054" stroke-width="0"/><path d="M110.42698,95.94688c-0.60841,-4.72773 0.20351,-9.37609 2.14021,-13.46323l3.93033,2.41115c-1.35711,3.0609 -1.94652,6.48559 -1.58649,9.97786zM115.31596,78.00295c2.76592,-3.57843 6.54176,-6.40849 11.03198,-8.00838l1.07422,4.48403c-3.27631,1.26148 -6.06219,3.33873 -8.17587,5.93548zM131.45996,68.76994c4.72773,-0.60841 9.37608,0.20352 13.46322,2.14022l-2.41114,3.93032c-3.06089,-1.35711 -6.48561,-1.94652 -9.97787,-1.58651zM149.40387,73.65889c3.57843,2.76592 6.4085,6.54176 8.00838,11.03198l-4.48405,1.07422c-1.26149,-3.27631 -3.33873,-6.06217 -5.93547,-8.17587zM158.63689,89.80288c0.60841,4.72773 -0.20351,9.37608 -2.14021,13.46322l-3.93035,-2.41116c1.35711,-3.0609 1.94652,-6.48558 1.58651,-9.97785zM153.74791,107.74681c-2.76592,3.57843 -6.54176,6.4085 -11.03198,8.00838l-1.07423,-4.48407c3.27629,-1.26148 6.06216,-3.33873 8.17586,-5.93548zM137.60392,116.97984c-4.72773,0.60841 -9.37609,-0.20354 -13.46322,-2.14022l2.41116,-3.93035c3.06089,1.3571 6.48559,1.94651 9.97785,1.58649zM119.66001,112.09084c-3.57843,-2.76592 -6.4085,-6.54176 -8.00839,-11.03198l4.48405,-1.07423c1.26148,3.2763 3.33874,6.06216 5.93548,8.17585z" fill="#ffa200" stroke-width="0"/><text transform="translate(130.15554,110.94493) rotate(-13.47205) scale(1.15025,1.15025)" font-size="40" xml:space="preserve" fill="#ffffff" fill-rule="nonzero" stroke="none" stroke-width="1" stroke-linecap="butt" stroke-linejoin="miter" stroke-miterlimit="10" stroke-dasharray="" stroke-dashoffset="0" font-family="&quot;PatrickHand-Regular&quot;, Sans Serif" font-weight="normal" text-anchor="start" style="mix-blend-mode: normal"><tspan x="0" dy="0">?</tspan></text></g><g><path d="M131.21195,44.25085c6.01114,-13.7076 21.99632,-19.94681 35.70392,-13.93568c13.7076,6.01113 19.94682,21.99632 13.93568,35.70393c-6.01114,13.7076 -21.99631,19.94682 -35.70391,13.93569c-13.7076,-6.01113 -19.94681,-21.99632 -13.93568,-35.70392z" fill="#3a984b" stroke-width="0"/><path d="M131.21196,44.25084c6.01114,-13.7076 21.99632,-19.94681 35.70392,-13.93568c13.7076,6.01113 19.94683,21.99632 13.93569,35.70393c-6.01114,13.7076 -21.99632,19.94682 -35.70392,13.93569c-13.7076,-6.01113 -19.94682,-21.99632 -13.93568,-35.70392z" fill="#996d3a" stroke-width="0"/><path d="M133.77947,45.37678c5.3893,-12.2896 19.72087,-17.88339 32.01047,-12.49409c12.2896,5.3893 17.88339,19.72087 12.49409,32.01047c-5.3893,12.2896 -19.72088,17.88339 -32.01048,12.49409c-12.2896,-5.3893 -17.88339,-19.72087 -12.49409,-32.01047z" fill="#ffc054" stroke-width="0"/><path d="M134.9637,43.02614c2.37022,-4.13566 5.82457,-7.35029 9.8365,-9.43834l1.67654,4.29539c-2.93021,1.6201 -5.46822,3.99379 -7.29028,6.99473zM149.69707,31.67648c4.36564,-1.18181 9.08429,-1.15722 13.62941,0.2793l-1.85177,4.22273c-3.3732,-0.97314 -6.84817,-0.99991 -10.10109,-0.20666zM168.14057,34.06692c4.13566,2.37022 7.35029,5.82457 9.43833,9.8365l-4.29537,1.67653c-1.6201,-2.93021 -3.99381,-5.46822 -6.99473,-7.2903zM179.49023,48.80025c1.18181,4.36564 1.15722,9.08429 -0.2793,13.62941l-4.22274,-1.85178c0.97314,-3.37321 0.99991,-6.84816 0.20666,-10.10109zM177.09981,67.24375c-2.37022,4.13566 -5.82456,7.35029 -9.83649,9.43834l-1.67654,-4.29541c2.93021,-1.6201 5.46821,-3.9938 7.29029,-6.99472zM162.36645,78.59341c-4.36564,1.18181 -9.08429,1.15722 -13.62941,-0.2793l1.85179,-4.22276c3.37319,0.97313 6.84815,0.9999 10.10108,0.20666zM143.92294,76.203c-4.13566,-2.37022 -7.35028,-5.82458 -9.43834,-9.83649l4.2954,-1.67655c1.62011,2.93019 3.99381,5.46821 6.99473,7.29028zM132.5733,61.46963c-1.18181,-4.36564 -1.15722,-9.08429 0.2793,-13.62941l4.22275,1.85177c-0.97314,3.3732 -0.99989,6.84815 -0.20665,10.10108z" fill="#ffa200" stroke-width="0"/><text transform="translate(141.63079,66.8947) rotate(23.67874) scale(1.15025,1.15025)" font-size="40" xml:space="preserve" fill="#ffffff" fill-rule="nonzero" stroke="none" stroke-width="1" stroke-linecap="butt" stroke-linejoin="miter" stroke-miterlimit="10" stroke-dasharray="" stroke-dashoffset="0" font-family="&quot;PatrickHand-Regular&quot;, Sans Serif" font-weight="normal" text-anchor="start" style="mix-blend-mode: normal"><tspan x="0" dy="0">?</tspan></text></g><g><path d="M194.19837,102.69745c12.01248,-8.9293 28.98913,-6.42989 37.91843,5.58259c8.9293,12.01247 6.4299,28.98914 -5.58258,37.91844c-12.01248,8.9293 -28.98914,6.42991 -37.91844,-5.58257c-8.9293,-12.01247 -6.42989,-28.98913 5.58259,-37.91844z" fill="#3a984b" stroke-width="0"/><path d="M194.19838,102.69745c12.01248,-8.9293 28.98913,-6.4299 37.91844,5.58258c8.9293,12.01247 6.4299,28.98914 -5.58258,37.91845c-12.01248,8.9293 -28.98914,6.4299 -37.91844,-5.58257c-8.9293,-12.01247 -6.42989,-28.98914 5.58259,-37.91844z" fill="#996d3a" stroke-width="0"/><path d="M195.87088,104.94747c10.76983,-8.0056 25.99031,-5.76474 33.9959,5.00509c8.0056,10.76983 5.76475,25.99031 -5.00508,33.9959c-10.76983,8.0056 -25.99031,5.76475 -33.99591,-5.00509c-8.0056,-10.76983 -5.76475,-25.9903 5.00509,-33.9959z" fill="#ffc054" stroke-width="0"/><path d="M198.0641,103.49224c4.10775,-2.41827 8.70096,-3.49938 13.2204,-3.32565l-0.67162,4.56181c-3.34796,-0.04433 -6.72858,0.76026 -9.79802,2.46439zM216.4851,100.93224c4.37774,1.13617 8.46446,3.4952 11.70096,6.99473l-3.70053,2.75074c-2.44807,-2.51644 -5.45337,-4.26122 -8.67204,-5.18367zM231.32201,112.14576c2.41826,4.10775 3.49938,8.70096 3.32565,13.2204l-4.56179,-0.67162c0.04432,-3.34797 -0.76027,-6.72859 -2.46439,-9.79804zM233.88203,130.56673c-1.13618,4.37774 -3.49519,8.46447 -6.99472,11.70097l-2.75074,-3.70055c2.51645,-2.44807 4.26121,-5.45337 5.18367,-8.67204zM222.66852,145.40365c-4.10775,2.41826 -8.70096,3.49938 -13.2204,3.32565l0.67163,-4.56182c3.34796,0.04432 6.72858,-0.76026 9.79802,-2.46437zM204.24753,147.96365c-4.37774,-1.13618 -8.46447,-3.49519 -11.70097,-6.99472l3.70056,-2.75076c2.44806,2.51642 5.45336,4.2612 8.67203,5.18366zM189.41059,136.75015c-2.41826,-4.10775 -3.49937,-8.70096 -3.32565,-13.22039l4.56182,0.67162c-0.04432,3.34795 0.76027,6.72857 2.46439,9.79802zM186.85061,118.32916c1.13618,-4.37774 3.4952,-8.46447 6.99473,-11.70097l2.75075,3.70054c-2.51644,2.44807 -4.26119,5.45337 -5.18365,8.67204z" fill="#ffa200" stroke-width="0"/><text transform="translate(192.03089,127.52884) rotate(53.37533) scale(1.15025,1.15025)" font-size="40" xml:space="preserve" fill="#ffffff" fill-rule="nonzero" stroke="none" stroke-width="1" stroke-linecap="butt" stroke-linejoin="miter" stroke-miterlimit="10" stroke-dasharray="" stroke-dashoffset="0" font-family="&quot;PatrickHand-Regular&quot;, Sans Serif" font-weight="normal" text-anchor="start" style="mix-blend-mode: normal"><tspan x="0" dy="0">?</tspan></text></g><g><path d="M141.25155,156.7701c-10.89072,-10.26764 -11.39582,-27.41986 -1.12818,-38.31058c10.26764,-10.89071 27.41987,-11.39583 38.31059,-1.12819c10.89072,10.26764 11.39583,27.41986 1.1282,38.31058c-10.26764,10.89072 -27.41986,11.39582 -38.31058,1.12817z" fill="#3a984b" stroke-width="0"/><path d="M141.25155,156.77009c-10.89072,-10.26764 -11.39582,-27.41986 -1.12818,-38.31058c10.26764,-10.89071 27.41987,-11.39583 38.31059,-1.12819c10.89072,10.26764 11.39583,27.41987 1.12819,38.31058c-10.26764,10.89072 -27.41986,11.39582 -38.31058,1.12817z" fill="#996d3a" stroke-width="0"/><path d="M143.17475,154.73021c-9.76411,-9.20549 -10.21696,-24.58337 -1.01147,-34.34748c9.20549,-9.76411 24.58337,-10.21696 34.34748,-1.01148c9.76411,9.20548 10.21696,24.58338 1.01148,34.34749c-9.20549,9.76411 -24.58337,10.21696 -34.34748,1.01147z" fill="#ffc054" stroke-width="0"/><path d="M141.35872,152.82497c-3.09876,-3.62207 -4.96574,-7.95574 -5.58429,-12.43602l4.60899,-0.13572c0.54129,3.30421 1.92414,6.49227 4.13834,9.21676zM135.61968,135.13457c0.35385,-4.50891 1.96257,-8.94493 4.84281,-12.74307l3.35497,3.16302c-2.05002,2.85007 -3.24289,6.11399 -3.5888,9.44432zM144.06851,118.5667c3.62207,-3.09875 7.95574,-4.96573 12.43602,-5.58429l0.13572,4.60898c-3.30421,0.5413 -6.49227,1.92416 -9.21677,4.13834zM161.75887,112.82765c4.50891,0.35385 8.94494,1.96257 12.74308,4.84281l-3.16304,3.35497c-2.85008,-2.05003 -6.11398,-3.24288 -9.44431,-3.58881zM178.32675,121.27646c3.09876,3.62207 4.96573,7.95574 5.58429,12.43601l-4.609,0.13573c-0.54129,-3.30421 -1.92415,-6.49226 -4.13833,-9.21676zM184.06579,138.96685c-0.35385,4.50891 -1.96257,8.94494 -4.84281,12.74308l-3.35499,-3.16305c2.05001,-2.85007 3.24287,-6.11398 3.5888,-9.44431zM175.61699,155.53474c-3.62207,3.09876 -7.95575,4.96573 -12.43601,5.58429l-0.13573,-4.609c3.3042,-0.5413 6.49226,-1.92416 9.21676,-4.13834zM157.9266,161.27376c-4.50891,-0.35385 -8.94494,-1.96257 -12.74308,-4.84281l3.16303,-3.35497c2.85008,2.05002 6.11398,3.24286 9.44431,3.58879z" fill="#ffa200" stroke-width="0"/><text transform="translate(166.07971,154.56585) rotate(-46.68668) scale(1.15025,1.15025)" font-size="40" xml:space="preserve" fill="#ffffff" fill-rule="nonzero" stroke="none" stroke-width="1" stroke-linecap="butt" stroke-linejoin="miter" stroke-miterlimit="10" stroke-dasharray="" stroke-dashoffset="0" font-family="&quot;PatrickHand-Regular&quot;, Sans Serif" font-weight="normal" text-anchor="start" style="mix-blend-mode: normal"><tspan x="0" dy="0">?</tspan></text></g><g><path d="M137.4516,94.45622c0,-21.3534 17.31033,-38.66372 38.66374,-38.66372c21.35339,0 38.66375,17.31034 38.66375,38.66374c0,21.3534 -17.31034,38.66374 -38.66372,38.66374c-21.35339,0 -38.66373,-17.31034 -38.66373,-38.66374z" fill="#3a984b" stroke-width="0"/><path d="M137.4516,94.45621c0,-21.3534 17.31033,-38.66373 38.66374,-38.66373c21.35339,0 38.66375,17.31034 38.66375,38.66375c0,21.3534 -17.31034,38.66375 -38.66372,38.66375c-21.35339,0 -38.66373,-17.31034 -38.66373,-38.66375z" fill="#996d3a" stroke-width="0"/><path d="M141.45122,94.45624c0,-19.14446 15.51964,-34.6641 34.66411,-34.6641c19.14446,0 34.6641,15.51964 34.6641,34.6641c0,19.14446 -15.51964,34.6641 -34.6641,34.6641c-19.14446,0 -34.66411,-15.51964 -34.66411,-34.6641z" fill="#ffc054" stroke-width="0"/><path d="M141.65167,90.70656c0.72725,-6.76136 3.39864,-12.94051 7.44399,-17.96721l4.65147,4.65148c-2.90016,3.79555 -4.85615,8.35099 -5.51736,13.31574zM154.39847,67.43652c5.02671,-4.04534 11.20585,-6.71674 17.96721,-7.44399v6.57807c-4.96473,0.66123 -9.52021,2.61721 -13.31574,5.51737zM179.86499,59.99258c6.76136,0.72725 12.94051,3.39864 17.96722,7.44399l-4.65147,4.65145c-3.79556,-2.90016 -8.35101,-4.85615 -13.31575,-5.51738zM203.13501,72.73932c4.04533,5.02671 6.71675,11.20585 7.444,17.96721h-6.57809c-0.66123,-4.96475 -2.61722,-9.52019 -5.51736,-13.31574zM210.57898,98.20583c-0.72725,6.76136 -3.39864,12.94051 -7.44399,17.96721l-4.65148,-4.65149c2.90016,-3.79555 4.85614,-8.35099 5.51737,-13.31572zM197.8322,121.47587c-5.02671,4.04533 -11.20586,6.71674 -17.96722,7.44399v-6.57812c4.96472,-0.66123 9.52017,-2.61722 13.31573,-5.51736zM172.36568,128.91986c-6.76136,-0.72725 -12.9405,-3.39866 -17.96721,-7.44399l4.65149,-4.65149c3.79556,2.90014 8.35099,4.85613 13.31572,5.51736zM149.09566,116.17305c-4.04533,-5.02671 -6.71674,-11.20585 -7.44399,-17.96721h6.57809c0.66123,4.96474 2.61723,9.52017 5.51737,13.31573z" fill="#ffa200" stroke-width="0"/><text transform="translate(164.03777,118.07159) scale(1.64098,1.64098)" font-size="40" xml:space="preserve" fill="#ffffff" fill-rule="nonzero" stroke="none" stroke-width="1" stroke-linecap="butt" stroke-linejoin="miter" stroke-miterlimit="10" stroke-dasharray="" stroke-dashoffset="0" font-family="&quot;PatrickHand-Regular&quot;, Sans Serif" font-weight="normal" text-anchor="start" style="mix-blend-mode: normal"><tspan x="0" dy="0">?</tspan></text></g></g></g></svg>