<svg version="1.1" xmlns="http://www.w3.org/2000/svg" xmlns:xlink="http://www.w3.org/1999/xlink" width="41.10004" height="42.46142" viewBox="0,0,41.10004,42.46142"><g transform="translate(-160.59607,-255.5961)"><g data-paper-data="{&quot;isPaintingLayer&quot;:true}" fill-rule="nonzero" stroke-linecap="butt" stroke-linejoin="miter" stroke-miterlimit="10" stroke-dasharray="" stroke-dashoffset="0" style="mix-blend-mode: normal"><path d="M164.8588,298.05751c-2.35424,0 -4.26273,-1.90849 -4.26273,-4.26273v-33.93596c0,-2.35424 1.90849,-4.26273 4.26273,-4.26273h36.83731v42.46142z" fill="#676767" stroke="none" stroke-width="0"/><g fill="none" stroke="#ffffff" stroke-width="1.5"><path d="M192.86633,273.40112v3.1978c0,0.76121 -0.59423,1.38041 -1.32475,1.38041h-2.40743c-0.38694,0 -0.70669,0.22196 -0.85442,0.59438c-0.14773,0.37241 -0.07291,0.7647 0.20014,1.04971l1.70217,1.77319c0.25018,0.26119 0.3879,0.60778 0.3879,0.97622c0,0.36894 -0.13772,0.71603 -0.3879,0.97672l-2.16965,2.26081c-0.50036,0.52138 -1.37288,0.52238 -1.87419,0l-1.70169,-1.77369c-0.27353,-0.28452 -0.64951,-0.36348 -1.00738,-0.20855c-0.3574,0.15443 -0.57041,0.48662 -0.57041,0.88982v2.50858c0,0.76121 -0.59423,1.38042 -1.32475,1.38042h-3.06838c-0.73052,0 -1.32476,-0.6192 -1.32476,-1.38042v-2.50858c0,-0.4032 -0.213,-0.73539 -0.5704,-0.88982c-0.35788,-0.15443 -0.73386,-0.07597 -1.00738,0.20855l-1.70169,1.77369c-0.50131,0.52287 -1.37336,0.52188 -1.87419,0l-2.16965,-2.26081c-0.25018,-0.26119 -0.3879,-0.60778 -0.3879,-0.97672c0,-0.36844 0.13772,-0.71553 0.3879,-0.97622l1.70216,-1.77319c0.27305,-0.28502 0.34835,-0.6773 0.20015,-1.04971c-0.1482,-0.37241 -0.467,-0.59438 -0.85395,-0.59438h-2.40743c-0.73052,0 -1.32475,-0.6192 -1.32475,-1.38091v-3.19731c0,-0.76121 0.59423,-1.38041 1.32475,-1.38041h2.40743c0.38694,0 0.70622,-0.22196 0.85395,-0.59438c0.14773,-0.37241 0.0729,-0.7647 -0.20015,-1.04971l-1.70216,-1.77319c-0.25018,-0.26119 -0.3879,-0.60778 -0.3879,-0.97622c0,-0.36894 0.13772,-0.71603 0.3879,-0.97672l2.16965,-2.26081c0.50036,-0.52138 1.37288,-0.52238 1.87419,0l1.70169,1.77319c0.27353,0.28452 0.65094,0.36447 1.00738,0.20905c0.3574,-0.15443 0.5704,-0.48662 0.5704,-0.88982v-2.50858c0,-0.76121 0.59423,-1.38042 1.32476,-1.38042h3.06886c0.73052,0 1.32476,0.6192 1.32476,1.38042v2.50858c0,0.4032 0.213,0.73539 0.5704,0.88982c0.35645,0.15492 0.73386,0.07547 1.00738,-0.20905l1.70169,-1.77319c0.50131,-0.52238 1.37384,-0.52138 1.87419,0l2.16965,2.26081c0.25018,0.26119 0.3879,0.60778 0.3879,0.97672c0,0.36844 -0.13772,0.71553 -0.3879,0.97622l-1.70216,1.77319c-0.27305,0.28502 -0.34835,0.6773 -0.20015,1.04971c0.1482,0.37241 0.467,0.59438 0.85395,0.59438h2.40743c0.73052,0 1.32475,0.6192 1.32475,1.38041zM191.91327,273.40112c0,-0.21352 -0.16678,-0.38731 -0.37169,-0.38682h-2.40743c-0.77389,0 -1.43865,-0.46278 -1.73458,-1.20761c-0.2964,-0.74483 -0.1401,-1.56216 0.40696,-2.1322l1.70217,-1.77319c0.14534,-0.15095 0.14534,-0.39674 0,-0.54819l-2.16965,-2.26081c-0.14439,-0.15145 -0.38027,-0.15145 -0.52609,0l-1.70169,1.77319c-0.54706,0.57004 -1.33047,0.73291 -2.04622,0.42406c-0.7148,-0.30836 -1.15893,-1.00105 -1.15893,-1.80745v-2.50858c0,-0.21352 -0.16678,-0.38731 -0.37217,-0.38731h-3.06838c-0.20491,0 -0.37169,0.17379 -0.37169,0.38731v2.50858c0,0.8064 -0.44413,1.49909 -1.15893,1.80696c-0.71575,0.30885 -1.49964,0.14549 -2.04622,-0.42406l-1.70169,-1.77319c-0.14534,-0.15145 -0.38123,-0.15145 -0.52609,0l-2.16965,2.26081c-0.14534,0.15095 -0.14534,0.39674 0,0.54819l1.70217,1.77319c0.54754,0.57004 0.70336,1.38737 0.40696,2.1322c-0.29593,0.74483 -0.96069,1.20762 -1.73458,1.20762h-2.40743c-0.20491,0 -0.37169,0.17379 -0.37169,0.38731v3.1978c0,0.21352 0.16678,0.38731 0.37169,0.38731h2.40743c0.77389,0 1.43865,0.46278 1.73458,1.20712c0.2964,0.74483 0.1401,1.56216 -0.40696,2.1322l-1.70217,1.77319c-0.14534,0.15095 -0.14534,0.39674 0,0.54819l2.16965,2.26081c0.14439,0.15095 0.38027,0.15195 0.52609,0l1.70169,-1.77369c0.36407,-0.37937 0.8325,-0.57799 1.3157,-0.57799c0.24399,0 0.49083,0.05065 0.73052,0.15443c0.7148,0.30836 1.15893,1.00105 1.15893,1.80745v2.50858c0,0.21352 0.16678,0.38731 0.37169,0.38731h3.06886c0.20491,0 0.37169,-0.17379 0.37169,-0.38731v-2.50858c0,-0.8064 0.44413,-1.49909 1.15893,-1.80745c0.7148,-0.30786 1.49868,-0.14648 2.04622,0.42406l1.70169,1.77369c0.14534,0.15195 0.38123,0.15095 0.52609,0l2.16965,-2.26081c0.14534,-0.15095 0.14534,-0.39674 0,-0.54819l-1.70217,-1.77319c-0.54754,-0.57004 -0.70336,-1.38737 -0.40696,-2.1322c0.29593,-0.74483 0.96069,-1.20762 1.73458,-1.20762h2.40743c0.20491,0 0.37169,-0.17379 0.37169,-0.38731z"/><path d="M191.96282,276.60555c0,0.21352 -0.16706,0.38914 -0.37197,0.38914l-2.40785,0.00214c-0.77389,0 -1.4416,0.47198 -1.73753,1.21681c-0.2964,0.74483 -0.14518,1.57052 0.40236,2.14056l1.70093,1.77492c0.14534,0.15145 0.14424,0.39866 -0.0011,0.54962l-2.17884,2.26965c-0.14487,0.15095 -0.38218,0.15296 -0.52752,0.00102l-1.70342,-1.77255c-0.54754,-0.57054 -1.33955,-0.72779 -2.05435,-0.41993c-0.7148,0.30836 -1.16757,1.00361 -1.16757,1.81001l-0.00199,2.50894c0,0.21352 -0.16847,0.38754 -0.37338,0.38754h-3.08113c-0.20491,0 -0.37338,-0.17402 -0.37338,-0.38754l-0.00199,-2.50894c0,-0.8064 -0.45278,-1.50165 -1.16757,-1.81001c-0.2397,-0.10378 -0.49051,-0.15621 -0.73449,-0.15621c-0.4832,0 -0.95579,0.19627 -1.31986,0.57564l-1.70342,1.77256c-0.14582,0.15195 -0.38313,0.14993 -0.52752,-0.00102l-2.17885,-2.26965c-0.14534,-0.15145 -0.14644,-0.39867 -0.0011,-0.54962l1.70093,-1.77492c0.54706,-0.57004 0.69876,-1.39574 0.40236,-2.14056c-0.29593,-0.74433 -0.96364,-1.21631 -1.73753,-1.21631l-2.40785,-0.00214c-0.20491,0 -0.37197,-0.17562 -0.37197,-0.38914v-3.2111c0,-0.21352 0.16706,-0.38914 0.37197,-0.38914l2.40785,-0.00214c0.77389,0 1.4416,-0.47198 1.73753,-1.21681c0.2964,-0.74483 0.14518,-1.57052 -0.40236,-2.14056l-1.70093,-1.77492c-0.14534,-0.15145 -0.14424,-0.39866 0.0011,-0.54962l2.17884,-2.26965c0.14487,-0.15145 0.38218,-0.15247 0.52752,-0.00102l1.70342,1.77205c0.54658,0.56955 1.3386,0.72878 2.05435,0.41993c0.7148,-0.30786 1.16757,-1.00312 1.16757,-1.80952l0.00199,-2.50894c0,-0.21352 0.16847,-0.38754 0.37338,-0.38754h3.08064c0.20539,0 0.37387,0.17403 0.37387,0.38755l0.00199,2.50894c0,0.8064 0.45278,1.50165 1.16757,1.81001c0.71575,0.30885 1.50729,0.15012 2.05435,-0.41993l1.70342,-1.77205c0.14582,-0.15145 0.38313,-0.15043 0.52752,0.00102l2.17885,2.26965c0.14534,0.15145 0.14644,0.39867 0.0011,0.54962l-1.70093,1.77492c-0.54706,0.57004 -0.69876,1.39574 -0.40236,2.14056c0.29593,0.74483 0.96364,1.21681 1.73753,1.21681l2.40785,0.00214c0.20491,-0.0005 0.37197,0.17512 0.37197,0.38864z" data-paper-data="{&quot;noHover&quot;:false,&quot;origItem&quot;:[&quot;Path&quot;,{&quot;applyMatrix&quot;:true,&quot;segments&quot;:[[[383.82653,546.8022],[0,0],[0,-0.42704]],[[383.08314,546.02857],[0.40982,-0.00099],[0,0]],[[378.26828,546.02857],[0,0],[-1.54777,0]],[[374.79913,543.61334],[0.59185,1.48966],[-0.5928,-1.48966]],[[375.61305,539.34894],[-1.09411,1.14009],[0,0]],[[379.01738,535.80256],[0,0],[0.29068,-0.3019]],[[379.01738,534.70617],[0.29068,0.3029],[0,0]],[[374.67809,530.18456],[0,0],[-0.28878,-0.3029]],[[373.62591,530.18456],[0.29164,-0.3029],[0,0]],[[370.22253,533.73094],[0,0],[-1.09411,1.14009]],[[366.13009,534.57905],[1.4315,0.61771],[-1.42959,-0.61672]],[[363.81224,530.96415],[0,1.6128],[0,0]],[[363.81224,525.94698],[0,0],[0,-0.42704]],[[363.0679,525.17236],[0.41077,0],[0,0]],[[356.93114,525.17236],[0,0],[-0.40982,0]],[[356.18776,525.94698],[0,-0.42704],[0,0]],[[356.18776,530.96415],[0,0],[0,1.6128]],[[353.86991,534.57806],[1.42959,-0.61573],[-1.4315,0.61771]],[[349.77747,533.72995],[1.09316,1.13909],[0,0]],[[346.37409,530.18357],[0,0],[-0.29068,-0.3029]],[[345.32191,530.18357],[0.28973,-0.3029],[0,0]],[[340.98262,534.70518],[0,0],[-0.29068,0.3019]],[[340.98262,535.80157],[-0.29068,-0.3029],[0,0]],[[344.38695,539.34795],[0,0],[1.09507,1.14009]],[[345.20087,543.61234],[0.5928,-1.48966],[-0.59185,1.48966]],[[341.73172,546.02758],[1.54777,0],[0,0]],[[336.91686,546.02758],[0,0],[-0.40982,0]],[[336.17347,546.8022],[0,-0.42704],[0,0]],[[336.17347,553.1978],[0,0],[0,0.42704]],[[336.91686,553.97242],[-0.40982,0],[0,0]],[[341.73172,553.97242],[0,0],[1.54777,0]],[[345.20087,556.38666],[-0.59185,-1.48867],[0.5928,1.48966]],[[344.38695,560.65106],[1.09411,-1.14009],[0,0]],[[340.98262,564.19744],[0,0],[-0.29068,0.3019]],[[340.98262,565.29383],[-0.29068,-0.3029],[0,0]],[[345.32191,569.81544],[0,0],[0.28878,0.3019]],[[346.37409,569.81544],[-0.29164,0.30389],[0,0]],[[349.77747,566.26806],[0,0],[0.72814,-0.75873]],[[352.40887,565.11209],[-0.9664,0],[0.48797,0]],[[353.86991,565.42095],[-0.47939,-0.20756],[1.42959,0.61672]],[[356.18776,569.03585],[0,-1.6128],[0,0]],[[356.18776,574.05302],[0,0],[0,0.42704]],[[356.93114,574.82764],[-0.40982,0],[0,0]],[[363.06886,574.82764],[0,0],[0.40982,0]],[[363.81224,574.05302],[0,0.42704],[0,0]],[[363.81224,569.03585],[0,0],[0,-1.6128]],[[366.13009,565.42095],[-1.42959,0.61672],[1.42959,-0.61573]],[[370.22253,566.26906],[-1.09507,-1.14108],[0,0]],[[373.62591,569.81643],[0,0],[0.29068,0.30389]],[[374.67809,569.81643],[-0.28973,0.3019],[0,0]],[[379.01738,565.29482],[0,0],[0.29068,-0.3019]],[[379.01738,564.19843],[0.29068,0.3029],[0,0]],[[375.61305,560.65205],[0,0],[-1.09507,-1.14009]],[[374.79913,556.38766],[-0.5928,1.48966],[0.59185,-1.48966]],[[378.26828,553.97242],[-1.54777,0],[0,0]],[[383.08314,553.97242],[0,0],[0.40982,0]],[[383.82653,553.1978],[0,0.42704],[0,0]]],&quot;closed&quot;:true,&quot;fillColor&quot;:[0,0,0,1]}]}"/><path d="M184.28878,275.00001c0,2.46439 -1.92375,4.46898 -4.28877,4.46898c-2.36502,0 -4.28877,-2.00459 -4.28877,-4.46898c0,-2.46439 1.92376,-4.46898 4.28877,-4.46898c2.36502,0 4.28877,2.00459 4.28877,4.46898zM183.33572,275.00001c0,-1.9162 -1.49678,-3.47587 -3.33571,-3.47587c-1.83893,0 -3.33571,1.55967 -3.33571,3.47587c0,1.9162 1.49678,3.47587 3.33571,3.47587c1.83893,0 3.33571,-1.55967 3.33571,-3.47587z"/><path d="M180,278.52589c-1.83893,0 -3.38572,-1.60967 -3.38572,-3.52587c0,-1.9162 1.54679,-3.52587 3.38572,-3.52587c1.83893,0 3.38572,1.60967 3.38572,3.52587c0,1.9162 -1.54678,3.52587 -3.38572,3.52587z" data-paper-data="{&quot;noHover&quot;:false,&quot;origItem&quot;:[&quot;Path&quot;,{&quot;applyMatrix&quot;:true,&quot;segments&quot;:[[[366.67143,550],[0,3.83239],[0,-3.83239]],[[360,543.04826],[3.67786,0],[-3.67786,0]],[[353.32857,550],[0,-3.83239],[0,3.83239]],[[360,556.95174],[-3.67786,0],[3.67786,0]]],&quot;closed&quot;:true,&quot;fillColor&quot;:[0,0,0,1]}]}"/></g></g></g></svg>