<svg version="1.1" xmlns="http://www.w3.org/2000/svg" xmlns:xlink="http://www.w3.org/1999/xlink" width="101.53124" height="50.13727" viewBox="0,0,101.53124,50.13727"><g transform="translate(-133.63377,-249.92394)"><g data-paper-data="{&quot;isPaintingLayer&quot;:true}" fill-rule="nonzero" stroke-linejoin="miter" stroke-miterlimit="10" stroke-dasharray="" stroke-dashoffset="0" style="mix-blend-mode: normal"><path d="M149.81972,283.87975l-16.18595,-8.87975l16.13595,-8.87975z" data-paper-data="{&quot;index&quot;:null}" fill="#989898" stroke="none" stroke-width="NaN" stroke-linecap="butt"/><path d="M173.06309,275.01746h37.10192" data-paper-data="{&quot;index&quot;:null}" fill="#ffffff" stroke="#313131" stroke-width="50" stroke-linecap="round"/><path d="M172.75161,300.06121c0,0 -9.98032,-7.37547 -9.98032,-24.58217c0,-17.40696 9.98032,-25.5551 9.98032,-25.5551h10.74748c0,0 -9.98032,9.23466 -9.98032,25.37172c0,16.13706 9.98032,24.76554 9.98032,24.76554z" data-paper-data="{&quot;index&quot;:null}" fill="#989898" stroke="none" stroke-width="0" stroke-linecap="butt"/><path d="M189.5735,300.06121c0,0 -9.81365,-7.37547 -9.81365,-24.58217c0,-17.40696 9.81365,-25.5551 9.81365,-25.5551h10.74748c0,0 -9.98032,9.23466 -9.98032,25.37172c0,16.13706 9.98032,24.76554 9.98032,24.76554z" data-paper-data="{&quot;index&quot;:null}" fill="#989898" stroke="none" stroke-width="0" stroke-linecap="butt"/></g></g></svg>