<svg version="1.1" xmlns="http://www.w3.org/2000/svg" xmlns:xlink="http://www.w3.org/1999/xlink" width="69.08462" height="69.08462" viewBox="0,0,69.08462,69.08462"><defs><radialGradient cx="180" cy="275" r="34.54231" gradientUnits="userSpaceOnUse" id="color-1"><stop offset="0" stop-color="#70ff3b"/><stop offset="1" stop-color="#70ff3b" stop-opacity="0"/></radialGradient></defs><g transform="translate(-145.45769,-240.45769)"><g data-paper-data="{&quot;isPaintingLayer&quot;:true}" fill-rule="nonzero" stroke-linejoin="miter" stroke-miterlimit="10" stroke-dasharray="" stroke-dashoffset="0" style="mix-blend-mode: normal"><path d="M156.61252,275.00002c0,-12.91656 10.47093,-23.38748 23.38749,-23.38748c12.91655,0 23.38749,10.47093 23.38749,23.38749c0,12.91656 -10.47093,23.38749 -23.38748,23.38749c-12.91655,0 -23.38748,-10.47093 -23.38748,-23.38749z" fill="#3a984b" stroke="none" stroke-width="0" stroke-linecap="butt"/><path d="M156.61252,275c0,-12.91656 10.47093,-23.38748 23.38749,-23.38748c12.91655,0 23.38749,10.47093 23.38749,23.38749c0,12.91656 -10.47093,23.38749 -23.38748,23.38749c-12.91655,0 -23.38748,-10.47093 -23.38748,-23.38749z" fill-opacity="0.18431" fill="#000000" stroke="none" stroke-width="0" stroke-linecap="butt"/><path d="M145.45769,275c0,-19.07719 15.46512,-34.54231 34.54231,-34.54231c19.07719,0 34.54231,15.46512 34.54231,34.54231c0,19.07719 -15.46512,34.54231 -34.54231,34.54231c-19.07719,0 -34.54231,-15.46512 -34.54231,-34.54231z" fill="url(#color-1)" stroke="none" stroke-width="0" stroke-linecap="butt"/><path d="M151.48335,275.00002c0,-15.74932 12.76734,-28.51665 28.51665,-28.51665c15.74931,0 28.51665,12.76734 28.51665,28.51665c0,15.74932 -12.76734,28.51666 -28.51665,28.51666c-15.74931,0 -28.51665,-12.76734 -28.51665,-28.51666z" fill="none" stroke="none" stroke-width="0" stroke-linecap="butt"/><path d="M159.03187,275.00002c0,-11.58038 9.38775,-20.96813 20.96813,-20.96813c11.58038,0 20.96813,9.38775 20.96813,20.96813c0,11.58038 -9.38775,20.96813 -20.96813,20.96813c-11.58038,0 -20.96813,-9.38775 -20.96813,-20.96813z" fill="#ffc054" stroke="none" stroke-width="0" stroke-linecap="butt"/><path d="M159.15312,272.73187c0.43991,-4.08991 2.05582,-7.82764 4.50283,-10.86827l2.81365,2.81365c-1.75429,2.29591 -2.93746,5.05147 -3.33742,8.05462zM166.86359,258.65596c3.04063,-2.447 6.77836,-4.06292 10.86827,-4.50283v3.97904c-3.00314,0.39997 -5.75872,1.58314 -8.05462,3.33743zM182.26815,254.15313c4.08991,0.43991 7.82764,2.05582 10.86827,4.50283l-2.81365,2.81364c-2.29591,-1.75429 -5.05148,-2.93746 -8.05462,-3.33743zM196.34406,261.86359c2.447,3.04063 4.06292,6.77836 4.50283,10.86827h-3.97905c-0.39997,-3.00315 -1.58314,-5.75871 -3.33742,-8.05462zM200.84688,277.26815c-0.43991,4.08991 -2.05582,7.82764 -4.50283,10.86827l-2.81366,-2.81366c1.75429,-2.29591 2.93746,-5.05147 3.33743,-8.05461zM193.13642,291.34406c-3.04063,2.447 -6.77836,4.06292 -10.86827,4.50283v-3.97907c3.00313,-0.39997 5.7587,-1.58314 8.05461,-3.33742zM177.73186,295.84689c-4.08991,-0.43991 -7.82764,-2.05583 -10.86827,-4.50283l2.81366,-2.81366c2.29591,1.75428 5.05147,2.93745 8.05461,3.33742zM163.65595,288.13642c-2.447,-3.04063 -4.06292,-6.77836 -4.50283,-10.86827h3.97905c0.39997,3.00314 1.58315,5.7587 3.33743,8.05461z" fill="#ffa200" stroke="none" stroke-width="0" stroke-linecap="butt"/><path d="M171.04457,278.00556l-5.02817,-2.49631l5.02817,-2.49631z" data-paper-data="{&quot;index&quot;:null}" fill="#313131" stroke="none" stroke-width="NaN" stroke-linecap="butt"/><path d="M177.10092,275.51416h10.43023" data-paper-data="{&quot;index&quot;:null}" fill="none" stroke="#d96832" stroke-width="14" stroke-linecap="round"/><path d="M177.01335,282.55455c0,0 -2.80571,-2.07342 -2.80571,-6.91063c0,-4.89351 2.80571,-7.18415 2.80571,-7.18415h3.02137c0,0 -2.80571,2.59609 -2.80571,7.1326c0,4.53651 2.80571,6.96218 2.80571,6.96218z" data-paper-data="{&quot;index&quot;:null}" fill="#2d200a" stroke="none" stroke-width="0" stroke-linecap="butt"/><path d="M181.74239,282.55455c0,0 -2.75885,-2.07342 -2.75885,-6.91063c0,-4.89351 2.75885,-7.18415 2.75885,-7.18415h3.02137c0,0 -2.80571,2.59609 -2.80571,7.1326c0,4.53651 2.80571,6.96218 2.80571,6.96218z" data-paper-data="{&quot;index&quot;:null}" fill="#2d200a" stroke="none" stroke-width="0" stroke-linecap="butt"/><path d="M164.88078,275.00001c0,-8.35011 6.7691,-15.11922 15.11922,-15.11922c8.35011,0 15.11922,6.7691 15.11922,15.11922c0,8.35011 -6.7691,15.11922 -15.11922,15.11922c-8.35011,0 -15.11922,-6.7691 -15.11922,-15.11922z" fill-opacity="0.45882" fill="#6fff3b" stroke="none" stroke-width="0" stroke-linecap="butt"/><path d="M169.71886,272.41428c0,0 -0.60703,-1.78246 1.1932,-4.25746c2.09086,-2.87457 3.30703,-2.53237 3.30703,-2.53237" fill="none" stroke="#ffffff" stroke-width="4" stroke-linecap="round"/></g></g></svg>