<svg version="1.1" xmlns="http://www.w3.org/2000/svg" xmlns:xlink="http://www.w3.org/1999/xlink" width="238.9717" height="147.91509" viewBox="0,0,238.9717,147.91509"><defs><linearGradient x1="141.38398" y1="212.26588" x2="141.38398" y2="226.78073" gradientUnits="userSpaceOnUse" id="color-1"><stop offset="0" stop-color="#8a4b4b"/><stop offset="1" stop-color="#8a6355"/></linearGradient><linearGradient x1="130.92429" y1="214.40161" x2="130.92429" y2="242.16316" gradientUnits="userSpaceOnUse" id="color-2"><stop offset="0" stop-color="#8a3737"/><stop offset="1" stop-color="#894d37"/></linearGradient><linearGradient x1="120.40823" y1="175.50954" x2="120.40823" y2="218.42206" gradientUnits="userSpaceOnUse" id="color-3"><stop offset="0" stop-color="#621a00"/><stop offset="1" stop-color="#a84300"/></linearGradient><radialGradient cx="117.80613" cy="227.54973" r="23.50231" gradientUnits="userSpaceOnUse" id="color-4"><stop offset="0" stop-color="#ffcc15"/><stop offset="1" stop-color="#ffcc15" stop-opacity="0"/></radialGradient><linearGradient x1="157.69869" y1="196.92108" x2="157.69869" y2="211.35119" gradientUnits="userSpaceOnUse" id="color-5"><stop offset="0" stop-color="#6d2c2c"/><stop offset="1" stop-color="#894d37"/></linearGradient><linearGradient x1="138.03031" y1="175.12883" x2="138.03031" y2="228.85076" gradientUnits="userSpaceOnUse" id="color-6"><stop offset="0" stop-color="#5e240f"/><stop offset="1" stop-color="#5f3d31"/></linearGradient><linearGradient x1="123.51959" y1="207.21799" x2="123.51959" y2="234.79463" gradientUnits="userSpaceOnUse" id="color-7"><stop offset="0" stop-color="#ff1e14"/><stop offset="1" stop-color="#ffd315"/></linearGradient><linearGradient x1="109.11841" y1="210.75404" x2="109.11841" y2="242.22738" gradientUnits="userSpaceOnUse" id="color-8"><stop offset="0" stop-color="#8a3737"/><stop offset="1" stop-color="#894d37"/></linearGradient><linearGradient x1="128.75061" y1="205.21309" x2="128.75061" y2="224.14747" gradientUnits="userSpaceOnUse" id="color-9"><stop offset="0" stop-color="#8a4b4b"/><stop offset="1" stop-color="#8a6355"/></linearGradient><linearGradient x1="112.40428" y1="176.79412" x2="112.40428" y2="219.70664" gradientUnits="userSpaceOnUse" id="color-10"><stop offset="0" stop-color="#862300"/><stop offset="1" stop-color="#bd5e20"/></linearGradient><linearGradient x1="172.73947" y1="149.64467" x2="172.73947" y2="168.41389" gradientUnits="userSpaceOnUse" id="color-11"><stop offset="0" stop-color="#8a3737"/><stop offset="1" stop-color="#894d37"/></linearGradient><linearGradient x1="152.74332" y1="145.09625" x2="152.74332" y2="170.49108" gradientUnits="userSpaceOnUse" id="color-12"><stop offset="0" stop-color="#8a3737"/><stop offset="1" stop-color="#894d37"/></linearGradient><linearGradient x1="157.80983" y1="162.96683" x2="157.80983" y2="200.47774" gradientUnits="userSpaceOnUse" id="color-13"><stop offset="0" stop-color="#8a3737"/><stop offset="1" stop-color="#894d37"/></linearGradient><linearGradient x1="142.23158" y1="195.57254" x2="142.23158" y2="210.86361" gradientUnits="userSpaceOnUse" id="color-14"><stop offset="0" stop-color="#6d2c2c"/><stop offset="1" stop-color="#894d37"/></linearGradient></defs><g transform="translate(-89.03302,-142.09625)"><g data-paper-data="{&quot;isPaintingLayer&quot;:true}" fill-rule="nonzero" stroke-miterlimit="10" stroke-dasharray="" stroke-dashoffset="0" style="mix-blend-mode: normal"><text transform="translate(96.07061,279.41532) scale(0.78489,0.78489)" font-size="40" xml:space="preserve" fill="#ffffff" fill-rule="nonzero" stroke="#000000" stroke-width="1" stroke-linecap="butt" stroke-linejoin="miter" stroke-miterlimit="10" stroke-dasharray="" stroke-dashoffset="0" font-family="&quot;PatrickHand-Regular&quot;, Sans Serif" font-weight="normal" text-anchor="start" style="mix-blend-mode: normal"><tspan x="0" dy="0">Firefly's Stash!</tspan></text><text transform="translate(241.1179,230.41247) scale(0.7165,0.7165)" font-size="40" xml:space="preserve" fill="#ffffff" fill-rule="nonzero" stroke="#000000" stroke-width="1" stroke-linecap="butt" stroke-linejoin="miter" stroke-miterlimit="10" stroke-dasharray="" stroke-dashoffset="0" font-family="&quot;PatrickHand-Regular&quot;, Sans Serif" font-weight="normal" text-anchor="start" style="mix-blend-mode: normal"><tspan x="0" dy="0">Leave -&gt;</tspan></text><g><path d="M134.57962,212.26588l13.60872,6.96945l-5.16356,7.5454" data-paper-data="{&quot;index&quot;:null}" fill="none" stroke="url(#color-1)" stroke-width="7.5" stroke-linecap="round" stroke-linejoin="round"/><path d="M137.16226,214.40161l0.12848,14.98688l-12.73289,12.77467" data-paper-data="{&quot;index&quot;:null}" fill="none" stroke="url(#color-2)" stroke-width="7.5" stroke-linecap="round" stroke-linejoin="round"/><path d="M125.7357,178.7207c15.21857,-6.9653 18.04379,-0.42973 18.04379,-0.42973c0,0 -22.06721,58.75946 -46.73564,34.07621c-0.36014,-12.03502 13.47328,-26.68118 28.69185,-33.64648z" data-paper-data="{&quot;index&quot;:null}" fill="url(#color-3)" stroke="none" stroke-width="0" stroke-linecap="butt" stroke-linejoin="miter"/><path d="M94.30382,227.54973c0,-12.97996 10.52234,-23.50231 23.50231,-23.50231c12.97996,0 23.50231,10.52234 23.50231,23.50231c0,12.97996 -10.52234,23.5023 -23.50231,23.5023c-12.97996,0 -23.50231,-10.52234 -23.50231,-23.5023z" fill="url(#color-4)" stroke="none" stroke-width="0" stroke-linecap="butt" stroke-linejoin="miter"/><path d="M167.09978,209.78932l-12.5428,1.56187l-6.25937,-14.43011" data-paper-data="{&quot;index&quot;:null}" fill="none" stroke="url(#color-5)" stroke-width="7.5" stroke-linecap="round" stroke-linejoin="round"/><path d="M163.31906,178.30521c7.34068,7.34068 -7.02539,21.18797 -23.2483,37.41088c-16.22291,16.22291 -3.7409,16.9295 -24.1389,4.81175c13.61825,19.45621 -16.43767,-11.50939 -0.21476,-27.7323c16.22291,-16.22291 40.26128,-21.83101 47.60196,-14.49033z" fill="url(#color-6)" stroke="none" stroke-width="0" stroke-linecap="butt" stroke-linejoin="miter"/><path d="M137.8116,218.08532c-6.31405,11.28818 -17.53603,19.42985 -23.77939,15.86003c-5.91683,-3.38312 -5.60815,-19.25289 -3.21633,-26.66615c0.28979,-0.89819 -0.32082,8.32979 11.26495,11.83789c11.5497,3.49718 16.06975,-1.74153 15.73077,-1.03177z" fill="url(#color-7)" stroke="none" stroke-width="0" stroke-linecap="butt" stroke-linejoin="miter"/><path d="M116.19043,210.75404l0.14565,16.99066l-14.43531,14.48268" data-paper-data="{&quot;index&quot;:null}" fill="none" stroke="url(#color-8)" stroke-width="7.5" stroke-linecap="round" stroke-linejoin="round"/><path d="M124.6197,205.21309l8.26183,11.25531l-8.25666,7.67907" data-paper-data="{&quot;index&quot;:null}" fill="none" stroke="url(#color-9)" stroke-width="7.5" stroke-linecap="round" stroke-linejoin="round"/><path d="M117.73174,180.00529c15.21857,-6.9653 18.0438,-0.42974 18.0438,-0.42974c0,0 -22.06721,58.75946 -46.73564,34.07621c-0.36014,-12.03502 13.47328,-26.68118 28.69185,-33.64648z" data-paper-data="{&quot;index&quot;:null}" fill="url(#color-10)" stroke="none" stroke-width="0" stroke-linecap="butt" stroke-linejoin="miter"/><path d="M168.23345,152.7493c0,0 6.77565,-7.36349 8.89863,0.5899c1.21452,4.54999 -7.72487,15.07469 -7.72487,15.07469" fill="none" stroke="url(#color-11)" stroke-width="6" stroke-linecap="round" stroke-linejoin="miter"/><path d="M148.3659,146.11144c3.78662,-2.79981 7.58248,0.5823 8.65902,5.38222c1.07654,4.79993 -7.27197,18.99742 -7.27197,18.99742" fill="none" stroke="url(#color-12)" stroke-width="6" stroke-linecap="round" stroke-linejoin="miter"/><path d="M180.84372,181.72229c0,10.35836 -10.31263,18.75545 -23.03389,18.75545c-12.72126,0 -23.03389,-8.3971 -23.03389,-18.75545c0,-10.35835 10.31262,-18.75546 23.03389,-18.75546c12.72126,0 23.03389,8.39711 23.03389,18.75546z" fill="url(#color-13)" stroke="none" stroke-width="0" stroke-linecap="butt" stroke-linejoin="miter"/><path d="M154.18106,172.63581c0,0 0,2.93984 0,4.4308c0,1.51956 0,4.6024 0,4.6024" fill="none" stroke="#ffffff" stroke-width="4" stroke-linecap="round" stroke-linejoin="miter"/><path d="M167.70201,181.08308v-8.54493" fill="none" stroke="#ffffff" stroke-width="4" stroke-linecap="round" stroke-linejoin="miter"/><path d="M166.63664,187.18824c0,0 8.53553,5.10591 -4.78102,4.66824c-11.65669,-0.38312 -6.21976,-3.35719 -6.21976,-3.35719" fill="none" stroke="#ffffff" stroke-width="3" stroke-linecap="round" stroke-linejoin="miter"/><path d="M147.61214,192.98285l-7.04616,15.16232l-5.44808,-12.57262" data-paper-data="{&quot;index&quot;:null}" fill="none" stroke="url(#color-14)" stroke-width="7.5" stroke-linecap="round" stroke-linejoin="round"/></g></g></g></svg>