<svg version="1.1" xmlns="http://www.w3.org/2000/svg" xmlns:xlink="http://www.w3.org/1999/xlink" width="53.67841" height="53.67841" viewBox="0,0,53.67841,53.67841"><g transform="translate(-153.1608,-248.1608)"><g data-paper-data="{&quot;isPaintingLayer&quot;:true}" fill-rule="nonzero" stroke-linecap="butt" stroke-linejoin="miter" stroke-miterlimit="10" stroke-dasharray="" stroke-dashoffset="0" style="mix-blend-mode: normal"><path d="M153.1608,301.8392v-53.67841h53.67841v53.67841z" fill="none" stroke="none" stroke-width="none"/><path d="M176.15269,261.74567c1.17817,-2.90416 7.54457,-2.70599 8.77282,0.3216c1.78299,4.39502 4.8572,10.79295 8.3753,19.46497c2.05265,5.0597 -1.77553,8.78997 -7.62407,8.78997c-4.87076,0 -10.09321,0 -12.87488,0c-3.77724,0 -7.97389,-2.92813 -6.27309,-7.12057c0,0 7.73779,-16.80669 9.62392,-21.45597z" fill="none" stroke="#ffffff" stroke-width="7.5"/><path d="M166.52876,283.20163c3.54711,-8.74351 7.73779,-16.80669 9.62393,-21.45597c1.17817,-2.90416 7.54457,-2.70599 8.77282,0.3216c1.78299,4.39502 4.8572,10.79295 8.3753,19.46497c2.05265,5.0597 -1.77553,8.78997 -7.62407,8.78997c-4.87076,0 -10.09321,0 -12.87488,0c-3.77724,0 -7.97389,-2.92813 -6.27309,-7.12057z" fill="#ffa620" stroke="none" stroke-width="NaN"/><path d="M168.54496,278.43583c1.71085,-3.89978 3.44287,-7.5438 4.90085,-10.65837c1.10089,-2.35174 12.90736,-2.33955 13.82714,-0.26398c1.35948,3.06781 2.99135,6.71283 4.77344,10.97415c0.21026,0.50277 -5.80979,3.15439 -11.96052,3.19863c-5.86257,0.04217 -11.87355,-2.49219 -11.5409,-3.25044z" fill="#ff8633" stroke="none" stroke-width="NaN"/><path d="M173.16159,268.38402c1.22237,-2.60657 2.27352,-4.86953 2.99111,-6.63835c1.17817,-2.90416 7.54457,-2.70598 8.77282,0.3216c0.70471,1.73709 1.61113,3.78707 2.66694,6.16668c1.6155,3.64104 -16.42145,4.39476 -14.43086,0.15007z" fill="#ffefe2" stroke="none" stroke-width="NaN"/></g></g></svg>