<svg version="1.1" xmlns="http://www.w3.org/2000/svg" xmlns:xlink="http://www.w3.org/1999/xlink" width="88.39227" height="112.82182" viewBox="0,0,88.39227,112.82182"><defs><radialGradient cx="180" cy="275.00001" r="44.19613" gradientUnits="userSpaceOnUse" id="color-1"><stop offset="0" stop-color="#ff3333" stop-opacity="0.61176"/><stop offset="1" stop-color="#ff3333" stop-opacity="0"/></radialGradient><linearGradient x1="180" y1="206.37433" x2="180" y2="304.82917" gradientUnits="userSpaceOnUse" id="color-2"><stop offset="0" stop-color="#f09643" stop-opacity="0.23922"/><stop offset="1" stop-color="#ff3333" stop-opacity="0.78039"/></linearGradient></defs><g transform="translate(-135.80387,-206.37432)"><g data-paper-data="{&quot;isPaintingLayer&quot;:true}" fill-rule="nonzero" stroke="none" stroke-width="0" stroke-linecap="butt" stroke-linejoin="miter" stroke-miterlimit="10" stroke-dasharray="" stroke-dashoffset="0" style="mix-blend-mode: normal"><path d="M135.80387,274.99999c0,-24.40886 19.78729,-44.19613 44.19613,-44.19613c24.40885,0 44.19613,19.78729 44.19613,44.19613c0,24.40886 -19.78729,44.19616 -44.19613,44.19616c-24.40885,0 -44.19613,-19.78729 -44.19613,-44.19616z" fill="url(#color-1)"/><path d="M150.17085,275.00001c0,-10.04309 13.29456,-68.62568 13.29456,-68.62568c0,0 10.1035,38.79653 16.53459,38.79653c4.55738,0 14.76579,-18.86294 14.76579,-18.86294c0,0 3.04657,7.43783 6.3995,16.70748c4.10261,11.34225 8.66386,25.42707 8.66386,31.98461c0,16.47419 -13.35497,29.82916 -29.82915,29.82916c-16.47418,0 -29.82915,-13.35497 -29.82915,-29.82916z" fill="url(#color-2)"/></g></g></svg>