<svg version="1.1" xmlns="http://www.w3.org/2000/svg" xmlns:xlink="http://www.w3.org/1999/xlink" width="22.49065" height="30.73452" viewBox="0,0,22.49065,30.73452"><defs><linearGradient x1="173.03726" y1="278.82091" x2="175.10069" y2="287.76803" gradientUnits="userSpaceOnUse" id="color-1"><stop offset="0" stop-color="#ffd200"/><stop offset="1" stop-color="#ff9f00"/></linearGradient><linearGradient x1="187.49352" y1="257.24618" x2="189.13514" y2="264.36429" gradientUnits="userSpaceOnUse" id="color-2"><stop offset="0" stop-color="#ffd200"/><stop offset="1" stop-color="#ff9f00"/></linearGradient></defs><g transform="translate(-169.47697,-257.15196)"><g data-paper-data="{&quot;isPaintingLayer&quot;:true}" fill-rule="nonzero" stroke="none" stroke-width="0" stroke-linecap="butt" stroke-linejoin="miter" stroke-miterlimit="10" stroke-dasharray="" stroke-dashoffset="0" style="mix-blend-mode: normal"><path d="M169.59542,284.32619c-0.5698,-2.47068 0.97116,-4.93547 3.44184,-5.50527c2.47068,-0.5698 4.93547,0.97116 5.50527,3.44184c0.5698,2.47068 -0.97116,4.93547 -3.44184,5.50527c-2.47068,0.5698 -4.93547,-0.97116 -5.50527,-3.44184z" fill="url(#color-1)"/><path d="M184.75528,261.62605c-0.45332,-1.96561 0.77264,-3.92654 2.73825,-4.37986c1.96561,-0.45332 3.92655,0.77264 4.37986,2.73825c0.45332,1.96561 -0.77264,3.92654 -2.73825,4.37986c-1.96561,0.45332 -3.92655,-0.77264 -4.37986,-2.73825z" fill="url(#color-2)"/></g></g></svg>