<svg version="1.1" xmlns="http://www.w3.org/2000/svg" xmlns:xlink="http://www.w3.org/1999/xlink" width="31.94816" height="28.76214" viewBox="0,0,31.94816,28.76214"><defs><linearGradient x1="169.27242" y1="264.19595" x2="171.33585" y2="273.14307" gradientUnits="userSpaceOnUse" id="color-1"><stop offset="0" stop-color="#ffd200"/><stop offset="1" stop-color="#ff9f00"/></linearGradient><linearGradient x1="194.2682" y1="267.75775" x2="195.51281" y2="273.15444" gradientUnits="userSpaceOnUse" id="color-2"><stop offset="0" stop-color="#ffd200"/><stop offset="1" stop-color="#ff9f00"/></linearGradient><linearGradient x1="189.08634" y1="285.6273" x2="190.72796" y2="292.74541" gradientUnits="userSpaceOnUse" id="color-3"><stop offset="0" stop-color="#ffd200"/><stop offset="1" stop-color="#ff9f00"/></linearGradient></defs><g transform="translate(-165.71213,-264.07751)"><g data-paper-data="{&quot;isPaintingLayer&quot;:true}" fill-rule="nonzero" stroke="none" stroke-width="0" stroke-linecap="butt" stroke-linejoin="miter" stroke-miterlimit="10" stroke-dasharray="" stroke-dashoffset="0" style="mix-blend-mode: normal"><path d="M165.83058,269.70123c-0.5698,-2.47068 0.97116,-4.93547 3.44184,-5.50527c2.47068,-0.5698 4.93547,0.97116 5.50527,3.44184c0.5698,2.47068 -0.97116,4.93547 -3.44184,5.50527c-2.47068,0.5698 -4.93547,-0.97116 -5.50527,-3.44184z" fill="url(#color-1)"/><path d="M192.19216,271.07841c-0.34369,-1.49026 0.58578,-2.97696 2.07604,-3.32065c1.49026,-0.34369 2.97696,0.58578 3.32065,2.07604c0.34369,1.49026 -0.58578,2.97696 -2.07604,3.32065c-1.49026,0.34369 -2.97696,-0.58578 -3.32065,-2.07604z" fill="url(#color-2)"/><path d="M186.3481,290.00717c-0.45332,-1.96561 0.77264,-3.92654 2.73825,-4.37986c1.96561,-0.45332 3.92655,0.77264 4.37986,2.73825c0.45332,1.96561 -0.77264,3.92654 -2.73825,4.37986c-1.96561,0.45332 -3.92655,-0.77264 -4.37986,-2.73825z" fill="url(#color-3)"/></g></g></svg>