<svg version="1.1" xmlns="http://www.w3.org/2000/svg" xmlns:xlink="http://www.w3.org/1999/xlink" width="365.52042" height="224.10519" viewBox="0,0,365.52042,224.10519"><defs><linearGradient x1="244.58485" y1="-7.63825" x2="244.58485" y2="131.85073" gradientUnits="userSpaceOnUse" id="color-1"><stop offset="0" stop-color="#ffa100"/><stop offset="1" stop-color="#ff3d00"/></linearGradient></defs><g transform="translate(-62.43653,43.09925)"><g data-paper-data="{&quot;isPaintingLayer&quot;:true}" fill-rule="nonzero" stroke-linecap="butt" stroke-linejoin="miter" stroke-miterlimit="10" stroke-dasharray="" stroke-dashoffset="0" style="mix-blend-mode: normal"><path d="M62.43654,131.85073v-139.48899h364.29663v139.48899z" fill="url(#color-1)" stroke="none" stroke-width="0"/><g fill="none" stroke="#ffa100" stroke-width="6"><path d="M236.63144,29.82003l-17.11835,-9.88277l0.00236,-19.77147l17.12071,-9.88751l17.11835,9.88396l-0.00236,19.77147zM236.63144,88.92781l-17.11835,-9.88278l0.00236,-19.77146l17.12071,-9.88633l17.11835,9.88278l-0.00236,19.77029zM253.74978,59.27002l-17.11835,-9.88278l0.00236,-19.77028l17.12071,-9.88751l17.11835,9.88278l-0.00236,19.77147zM219.50837,59.27002l-17.11835,-9.88278l0.00236,-19.77028l17.12071,-9.88751l17.11835,9.88278l-0.00236,19.77147z"/><path d="M288.0481,0.05828l-17.11835,-9.88278l0.00236,-19.77146l17.12071,-9.88751l17.11835,9.88396l-0.00236,19.77147zM288.0481,59.16606l-17.11835,-9.88278l0.00236,-19.77147l17.12071,-9.88632l17.11835,9.88279l-0.00236,19.77028zM305.16643,29.50827l-17.11835,-9.88279l0.00236,-19.77028l17.12071,-9.8875l17.11834,9.88279l-0.00236,19.77147zM270.92501,29.50827l-17.11835,-9.88279l0.00236,-19.77028l17.12071,-9.8875l17.11835,9.88279l-0.00236,19.77147z"/><path d="M271.0227,88.7995l-17.11835,-9.88278l0.00236,-19.77147l17.12071,-9.88751l17.11835,9.88396l-0.00236,19.77147zM271.0227,147.90727l-17.11835,-9.88278l0.00236,-19.77147l17.12071,-9.88632l17.11835,9.88278l-0.00236,19.77029zM288.14106,118.24948l-17.11834,-9.88278l0.00236,-19.77029l17.12071,-9.88751l17.11834,9.88278l-0.00236,19.77147zM253.89964,118.24948l-17.11835,-9.88278l0.00236,-19.77029l17.12071,-9.88751l17.11835,9.88278l-0.00236,19.77147z"/><path d="M202.36233,88.97418l-17.11835,-9.88278l0.00236,-19.77147l17.12071,-9.8875l17.11835,9.88396l-0.00236,19.77147zM202.36233,148.08194l-17.11835,-9.88278l0.00236,-19.77146l17.12071,-9.88632l17.11835,9.88278l-0.00236,19.77029zM219.48067,118.42416l-17.11834,-9.88278l0.00236,-19.77029l17.12071,-9.88751l17.11835,9.88278l-0.00236,19.77147zM185.23926,118.42416l-17.11835,-9.88278l0.00236,-19.77029l17.12071,-9.88751l17.11835,9.88278l-0.00237,19.77147z"/><path d="M168.05953,29.98835l-17.11835,-9.88278l0.00236,-19.77146l17.12071,-9.88751l17.11835,9.88397l-0.00236,19.77147zM168.05953,89.09613l-17.11835,-9.88278l0.00236,-19.77147l17.12071,-9.88632l17.11835,9.88278l-0.00236,19.77028zM185.17787,59.43834l-17.11835,-9.88278l0.00236,-19.77029l17.12071,-9.88751l17.11835,9.88278l-0.00236,19.77147zM150.93644,59.43834l-17.11835,-9.88278l0.00236,-19.77029l17.12071,-9.88751l17.11835,9.88278l-0.00236,19.77147z"/><path d="M390.71534,59.27982l-17.11835,-9.88277l0.00236,-19.77147l17.12071,-9.8875l17.11835,9.88396l-0.00236,19.77147zM390.71534,118.3876l-17.11835,-9.88278l0.00236,-19.77146l17.12071,-9.88633l17.11835,9.88278l-0.00236,19.77029zM407.83369,88.72981l-17.11835,-9.88278l0.00236,-19.77029l17.12071,-9.8875l17.11834,9.88278l-0.00236,19.77147zM373.59227,88.72981l-17.11835,-9.88278l0.00236,-19.77029l17.12071,-9.8875l17.11835,9.88278l-0.00236,19.77147z"/><path d="M356.46738,-0.09325l-17.11835,-9.88278l0.00236,-19.77147l17.12071,-9.8875l17.11835,9.88396l-0.00236,19.77147zM356.46738,59.01452l-17.11835,-9.88278l0.00236,-19.77147l17.12071,-9.88632l17.11835,9.88278l-0.00236,19.77029zM373.58572,29.35673l-17.11834,-9.88278l0.00236,-19.77029l17.12071,-9.88751l17.11835,9.88279l-0.00236,19.77147zM339.34431,29.35673l-17.11835,-9.88278l0.00236,-19.77029l17.12071,-9.88751l17.11835,9.88279l-0.00236,19.77147z"/><path d="M356.57451,118.43396l-17.11835,-9.88278l0.00236,-19.77147l17.12071,-9.88751l17.11835,9.88396l-0.00236,19.77147zM356.57451,177.54173l-17.11835,-9.88278l0.00236,-19.77147l17.12071,-9.88632l17.11835,9.88278l-0.00236,19.77029zM373.69285,147.88394l-17.11834,-9.88278l0.00236,-19.77029l17.12071,-9.88751l17.11834,9.88278l-0.00236,19.77147zM339.45144,147.88394l-17.11835,-9.88278l0.00236,-19.77029l17.12071,-9.88751l17.11835,9.88278l-0.00237,19.77147z"/><path d="M322.27171,59.29252l-17.11835,-9.88278l0.00236,-19.77146l17.1207,-9.88751l17.11835,9.88397l-0.00236,19.77147zM322.27171,118.4003l-17.11835,-9.88278l0.00236,-19.77147l17.1207,-9.88632l17.11835,9.88279l-0.00236,19.77028zM339.39006,88.74251l-17.11835,-9.88279l0.00236,-19.77028l17.12071,-9.8875l17.11835,9.88278l-0.00236,19.77147zM305.14862,88.74251l-17.11835,-9.88279l0.00236,-19.77028l17.12071,-9.8875l17.11835,9.88278l-0.00236,19.77147z"/></g></g></g></svg>