<svg version="1.1" xmlns="http://www.w3.org/2000/svg" xmlns:xlink="http://www.w3.org/1999/xlink" width="44.06617" height="42.51793" viewBox="0,0,44.06617,42.51793"><defs><linearGradient x1="169.27242" y1="264.19595" x2="171.33585" y2="273.14307" gradientUnits="userSpaceOnUse" id="color-1"><stop offset="0" stop-color="#ffd200"/><stop offset="1" stop-color="#ff9f00"/></linearGradient><linearGradient x1="194.2682" y1="267.75775" x2="195.51281" y2="273.15444" gradientUnits="userSpaceOnUse" id="color-2"><stop offset="0" stop-color="#ffd200"/><stop offset="1" stop-color="#ff9f00"/></linearGradient><linearGradient x1="189.08634" y1="285.6273" x2="190.72796" y2="292.74541" gradientUnits="userSpaceOnUse" id="color-3"><stop offset="0" stop-color="#ffd200"/><stop offset="1" stop-color="#ff9f00"/></linearGradient></defs><g transform="translate(-157.82211,-256.63707)"><g data-paper-data="{&quot;isPaintingLayer&quot;:true}" fill-rule="nonzero" stroke="none" stroke-width="0" stroke-linecap="butt" stroke-linejoin="miter" stroke-miterlimit="10" stroke-dasharray="" stroke-dashoffset="0" style="mix-blend-mode: normal"><path d="M159.45445,272.45259c-3.15808,-0.65458 -1.29451,-9.64546 1.86357,-8.99087c3.15808,0.65458 8.25003,3.80916 7.73542,6.29192c-0.51461,2.48276 -6.44091,3.35354 -9.59899,2.69895z" fill="#ffffff"/><path d="M170.45628,280.16415c-1.36647,2.92142 -9.68359,-0.96883 -8.31713,-3.89026c1.36647,-2.92142 5.61206,-7.14685 7.90877,-6.07258c2.29671,1.07426 1.77482,7.04142 0.40836,9.96284z" fill="#ffffff"/><path d="M181.14515,271.16024c2.68579,1.78563 -2.39782,9.43192 -5.0836,7.64629c-2.68579,-1.78563 -6.23302,-6.61227 -4.82922,-8.72373c1.4038,-2.11146 7.22704,-0.70819 9.91282,1.07745z" fill="#ffffff"/><path d="M175.49994,259.76671c2.55869,-1.96342 8.14844,5.32104 5.58975,7.28446c-2.55869,1.96342 -8.27353,3.75784 -9.8171,1.74629c-1.54357,-2.01155 1.66865,-7.06734 4.22735,-9.03076z" fill="#ffffff"/><path d="M163.2772,260.26403c-0.72479,-3.14271 8.22233,-5.20614 8.94712,-2.06343c0.72479,3.1427 -0.01373,9.08694 -2.48441,9.65674c-2.47068,0.5698 -5.73791,-4.45061 -6.4627,-7.59332z" fill="#ffffff"/><path d="M165.83058,269.70123c-0.5698,-2.47068 0.97116,-4.93547 3.44184,-5.50527c2.47068,-0.5698 4.93547,0.97116 5.50527,3.44184c0.5698,2.47068 -0.97116,4.93547 -3.44184,5.50527c-2.47068,0.5698 -4.93547,-0.97116 -5.50527,-3.44184z" fill="url(#color-1)"/><path d="M188.34623,272.73796c-1.90488,-0.39483 -0.78082,-5.81792 1.12406,-5.42309c1.90488,0.39483 4.97623,2.2976 4.66583,3.79514c-0.3104,1.49754 -3.88501,2.02278 -5.78989,1.62794z" fill="#ffffff"/><path d="M194.98228,277.3894c-0.82422,1.76213 -5.84092,-0.58438 -5.0167,-2.34652c0.82422,-1.76213 3.38507,-4.31082 4.77039,-3.66284c1.38532,0.64797 1.07053,4.24722 0.24631,6.00936z" fill="#ffffff"/><path d="M201.42956,271.95845c1.62001,1.07705 -1.44631,5.68912 -3.06631,4.61207c-1.62001,-1.07705 -3.75961,-3.98837 -2.91287,-5.26195c0.84674,-1.27358 4.35918,-0.42716 5.97918,0.64989z" fill="#ffffff"/><path d="M198.0245,265.08613c1.54334,-1.18429 4.91495,3.20953 3.37161,4.39382c-1.54334,1.18429 -4.9904,2.26664 -5.92145,1.05332c-0.93105,-1.21332 1.00649,-4.26286 2.54984,-5.44715z" fill="#ffffff"/><path d="M190.65202,265.3861c-0.43718,-1.89561 4.95952,-3.14022 5.3967,-1.24461c0.43718,1.8956 -0.00828,5.48103 -1.49854,5.82472c-1.49026,0.34369 -3.46098,-2.68451 -3.89815,-4.58012z" fill="#ffffff"/><path d="M192.19216,271.07841c-0.34369,-1.49026 0.58578,-2.97696 2.07604,-3.32065c1.49026,-0.34369 2.97696,0.58578 3.32065,2.07604c0.34369,1.49026 -0.58578,2.97696 -2.07604,3.32065c-1.49026,0.34369 -2.97696,-0.58578 -3.32065,-2.07604z" fill="url(#color-2)"/><path d="M181.27541,292.19609c-2.51249,-0.52077 -1.02988,-7.6737 1.48261,-7.15292c2.51249,0.52077 6.56352,3.03047 6.15411,5.0057c-0.40941,1.97523 -5.12423,2.668 -7.63672,2.14722z" fill="#ffffff"/><path d="M190.0282,298.33122c-1.08713,2.32421 -7.70403,-0.77078 -6.61691,-3.095c1.08713,-2.32421 4.46482,-5.68586 6.29203,-4.8312c1.82721,0.85466 1.412,5.60198 0.32488,7.9262z" fill="#ffffff"/><path d="M198.53201,291.16792c2.13675,1.4206 -1.90765,7.50381 -4.04439,6.0832c-2.13675,-1.4206 -4.95884,-5.26056 -3.84201,-6.94039c1.11683,-1.67983 5.74966,-0.56341 7.8864,0.8572z" fill="#ffffff"/><path d="M194.04081,282.1035c2.03564,-1.56205 6.4827,4.23329 4.44707,5.79534c-2.03564,1.56205 -6.58222,2.98965 -7.81024,1.38931c-1.22803,-1.60034 1.32754,-5.62261 3.36318,-7.18466z" fill="#ffffff"/><path d="M184.31669,282.49916c-0.57662,-2.50026 6.5415,-4.14188 7.11812,-1.64162c0.57662,2.50026 -0.01093,7.22935 -1.97654,7.68267c-1.96561,0.45332 -4.56494,-3.5408 -5.14157,-6.04106z" fill="#ffffff"/><path d="M186.3481,290.00717c-0.45332,-1.96561 0.77264,-3.92654 2.73825,-4.37986c1.96561,-0.45332 3.92655,0.77264 4.37986,2.73825c0.45332,1.96561 -0.77264,3.92654 -2.73825,4.37986c-1.96561,0.45332 -3.92655,-0.77264 -4.37986,-2.73825z" fill="url(#color-3)"/></g></g></svg>