<svg version="1.1" xmlns="http://www.w3.org/2000/svg" xmlns:xlink="http://www.w3.org/1999/xlink" width="92.31852" height="88.84134" viewBox="0,0,92.31852,88.84134"><defs><linearGradient x1="172.79832" y1="96.85226" x2="180.70799" y2="129.24021" gradientUnits="userSpaceOnUse" id="color-1"><stop offset="0" stop-color="#ffd200"/><stop offset="1" stop-color="#ff9f00"/></linearGradient></defs><g transform="translate(-128.90633,-69.48963)"><g data-paper-data="{&quot;isPaintingLayer&quot;:true}" fill-rule="nonzero" stroke="none" stroke-width="0" stroke-linecap="butt" stroke-linejoin="miter" stroke-miterlimit="10" stroke-dasharray="" stroke-dashoffset="0" style="mix-blend-mode: normal"><path d="M135.16349,126.74072c-12.10574,-2.36953 -4.9622,-34.91589 7.14354,-32.54632c12.10574,2.36953 31.62452,13.7889 29.65188,22.77632c-1.97263,8.98742 -24.68968,12.13958 -36.79542,9.77001z" fill="#ffffff"/><path d="M181.66925,153.55331c-3.97697,11.11118 -37.27603,0.81899 -33.2991,-10.29223c3.97697,-11.11118 18.36885,-28.19018 27.56413,-25.34804c9.19528,2.8421 9.7119,24.52909 5.73497,35.64027z" fill="#ffffff"/><path d="M218.30959,122.0625c10.29533,6.46385 -9.19146,34.14289 -19.48676,27.67904c-10.29533,-6.46385 -23.89279,-23.93595 -18.51166,-31.57929c5.38113,-7.64334 27.70313,-2.5636 37.99842,3.9003z" fill="#ffffff"/><path d="M196.67003,80.81872c9.80812,-7.10744 31.23509,19.26179 21.42696,26.36923c-9.80812,7.10744 -31.71459,13.60312 -37.63149,6.32145c-5.91691,-7.28167 6.39637,-25.58327 16.20453,-32.69072z" fill="#ffffff"/><path d="M149.81709,82.61898c-2.77831,-11.37639 31.51833,-18.84587 34.29664,-7.46948c2.77831,11.37636 -0.05263,32.89409 -9.52339,34.95673c-9.47076,2.06264 -21.9949,-16.1109 -24.77321,-27.48729z" fill="#ffffff"/><path d="M159.60486,116.78099c-2.18419,-8.94369 3.7227,-17.86606 13.19347,-19.92869c9.47076,-2.06264 18.91895,3.51553 21.10314,12.45922c2.18419,8.94369 -3.72271,17.86606 -13.19347,19.9287c-9.47076,2.06264 -18.91894,-3.51553 -21.10313,-12.45922z" fill="url(#color-1)"/></g></g></svg>