<svg version="1.1" xmlns="http://www.w3.org/2000/svg" xmlns:xlink="http://www.w3.org/1999/xlink" width="57.0333" height="57.03331" viewBox="0,0,57.0333,57.03331"><defs><linearGradient x1="175.58855" y1="270.27763" x2="177.65198" y2="279.22475" gradientUnits="userSpaceOnUse" id="color-1"><stop offset="0" stop-color="#ffd200"/><stop offset="1" stop-color="#ff9f00"/></linearGradient></defs><g transform="translate(-151.48335,-246.48338)"><g data-paper-data="{&quot;isPaintingLayer&quot;:true}" fill-rule="nonzero" stroke-linejoin="miter" stroke-miterlimit="10" stroke-dasharray="" stroke-dashoffset="0" style="mix-blend-mode: normal"><path d="M156.61252,275.00001c0,-12.91656 10.47093,-23.38748 23.38749,-23.38748c12.91655,0 23.38749,10.47093 23.38749,23.38749c0,12.91656 -10.47093,23.38749 -23.38748,23.38749c-12.91655,0 -23.38748,-10.47093 -23.38748,-23.38749z" fill="#3a984b" stroke="none" stroke-width="0" stroke-linecap="butt"/><path d="M151.48335,275.00003c0,-15.74932 12.76734,-28.51665 28.51665,-28.51665c15.74931,0 28.51665,12.76734 28.51665,28.51665c0,15.74932 -12.76734,28.51666 -28.51665,28.51666c-15.74931,0 -28.51665,-12.76734 -28.51665,-28.51666z" fill="none" stroke="none" stroke-width="0" stroke-linecap="butt"/><path d="M159.03187,275.00003c0,-11.58038 9.38775,-20.96813 20.96813,-20.96813c11.58038,0 20.96813,9.38775 20.96813,20.96813c0,11.58038 -9.38775,20.96813 -20.96813,20.96813c-11.58038,0 -20.96813,-9.38775 -20.96813,-20.96813z" fill="#ffc054" stroke="none" stroke-width="0" stroke-linecap="butt"/><path d="M159.15312,272.73188c0.43991,-4.08991 2.05582,-7.82764 4.50283,-10.86827l2.81365,2.81365c-1.75429,2.29591 -2.93746,5.05147 -3.33742,8.05462zM166.86359,258.65596c3.04063,-2.447 6.77836,-4.06292 10.86827,-4.50283v3.97904c-3.00314,0.39997 -5.75872,1.58314 -8.05462,3.33743zM182.26815,254.15315c4.08991,0.43991 7.82764,2.05582 10.86827,4.50283l-2.81365,2.81364c-2.29591,-1.75429 -5.05148,-2.93746 -8.05462,-3.33743zM196.34406,261.86359c2.447,3.04063 4.06292,6.77836 4.50283,10.86827h-3.97905c-0.39997,-3.00315 -1.58314,-5.75871 -3.33742,-8.05462zM200.84688,277.26815c-0.43991,4.08991 -2.05582,7.82764 -4.50283,10.86827l-2.81366,-2.81366c1.75429,-2.29591 2.93746,-5.05147 3.33743,-8.05461zM193.13642,291.34407c-3.04063,2.447 -6.77836,4.06292 -10.86827,4.50283v-3.97907c3.00313,-0.39997 5.7587,-1.58314 8.05461,-3.33742zM177.73186,295.84689c-4.08991,-0.43991 -7.82764,-2.05583 -10.86827,-4.50283l2.81366,-2.81366c2.29591,1.75428 5.05147,2.93745 8.05461,3.33742zM163.65595,288.13642c-2.447,-3.04063 -4.06292,-6.77836 -4.50283,-10.86827h3.97905c0.39997,3.00314 1.58315,5.7587 3.33743,8.05461z" fill="#ffa200" stroke="none" stroke-width="0" stroke-linecap="butt"/><path d="M165.77058,278.53427c-3.15808,-0.65458 -1.29451,-9.64546 1.86357,-8.99087c3.15808,0.65458 8.25003,3.80916 7.73542,6.29192c-0.51461,2.48276 -6.44091,3.35354 -9.59899,2.69895z" fill="#ffffff" stroke="none" stroke-width="0" stroke-linecap="butt"/><path d="M176.77241,286.24582c-1.36647,2.92142 -9.68359,-0.96883 -8.31713,-3.89026c1.36647,-2.92142 5.61206,-7.14685 7.90877,-6.07258c2.29671,1.07426 1.77482,7.04142 0.40836,9.96284z" fill="#ffffff" stroke="none" stroke-width="0" stroke-linecap="butt"/><path d="M187.46128,277.24192c2.68579,1.78563 -2.39782,9.43192 -5.0836,7.64629c-2.68579,-1.78563 -6.23302,-6.61227 -4.82922,-8.72373c1.4038,-2.11146 7.22704,-0.70819 9.91282,1.07745z" fill="#ffffff" stroke="none" stroke-width="0" stroke-linecap="butt"/><path d="M181.81607,265.84842c2.55869,-1.96342 8.14844,5.32104 5.58975,7.28446c-2.55869,1.96342 -8.27353,3.75784 -9.8171,1.74629c-1.54357,-2.01155 1.66865,-7.06734 4.22735,-9.03076z" fill="#ffffff" stroke="none" stroke-width="0" stroke-linecap="butt"/><path d="M169.59333,266.34572c-0.72479,-3.14271 8.22233,-5.20614 8.94712,-2.06343c0.72479,3.1427 -0.01373,9.08694 -2.48441,9.65674c-2.47068,0.5698 -5.73791,-4.45061 -6.4627,-7.59332z" fill="#ffffff" stroke="none" stroke-width="0" stroke-linecap="butt"/><path d="M172.14671,275.78292c-0.5698,-2.47068 0.97116,-4.93547 3.44184,-5.50527c2.47068,-0.5698 4.93547,0.97116 5.50527,3.44184c0.5698,2.47068 -0.97116,4.93547 -3.44184,5.50527c-2.47068,0.5698 -4.93547,-0.97116 -5.50527,-3.44184z" fill="url(#color-1)" stroke="none" stroke-width="0" stroke-linecap="butt"/><path d="M192.02546,279.26667l-1.01947,-8.40143" fill="none" stroke="#000000" stroke-width="2" stroke-linecap="round"/><path d="M195.86176,274.38867l-8.19411,0.89794" fill="none" stroke="#000000" stroke-width="2" stroke-linecap="round"/></g></g></svg>