<svg version="1.1" xmlns="http://www.w3.org/2000/svg" xmlns:xlink="http://www.w3.org/1999/xlink" width="57.0333" height="57.03331" viewBox="0,0,57.0333,57.03331"><g transform="translate(-151.48335,-246.4834)"><g data-paper-data="{&quot;isPaintingLayer&quot;:true}" fill-rule="nonzero" stroke-linecap="butt" stroke-linejoin="miter" stroke-miterlimit="10" stroke-dasharray="" stroke-dashoffset="0" style="mix-blend-mode: normal"><path d="M156.61252,275.00005c0,-12.91656 10.47093,-23.38748 23.38749,-23.38748c12.91655,0 23.38749,10.47093 23.38749,23.38749c0,12.91656 -10.47093,23.38749 -23.38748,23.38749c-12.91655,0 -23.38748,-10.47093 -23.38748,-23.38749z" fill="#ffffff" stroke="none" stroke-width="0"/><path d="M151.48335,275.00005c0,-15.74932 12.76734,-28.51665 28.51665,-28.51665c15.74931,0 28.51665,12.76734 28.51665,28.51665c0,15.74932 -12.76734,28.51666 -28.51665,28.51666c-15.74931,0 -28.51665,-12.76734 -28.51665,-28.51666z" fill="none" stroke="none" stroke-width="0"/><path d="M159.03187,275.00005c0,-11.58038 9.38775,-20.96813 20.96813,-20.96813c11.58038,0 20.96813,9.38775 20.96813,20.96813c0,11.58038 -9.38775,20.96813 -20.96813,20.96813c-11.58038,0 -20.96813,-9.38775 -20.96813,-20.96813z" fill="#ffc054" stroke="none" stroke-width="0"/><path d="M159.15312,272.73188c0.43991,-4.08991 2.05582,-7.82764 4.50283,-10.86827l2.81365,2.81365c-1.75429,2.29591 -2.93746,5.05147 -3.33742,8.05462zM166.86359,258.65596c3.04063,-2.447 6.77836,-4.06292 10.86827,-4.50283v3.97904c-3.00314,0.39997 -5.75872,1.58314 -8.05462,3.33743zM182.26815,254.15317c4.08991,0.43991 7.82764,2.05582 10.86827,4.50283l-2.81365,2.81364c-2.29591,-1.75429 -5.05148,-2.93746 -8.05462,-3.33743zM196.34406,261.86359c2.447,3.04063 4.06292,6.77836 4.50283,10.86827h-3.97905c-0.39997,-3.00315 -1.58314,-5.75871 -3.33742,-8.05462zM200.84688,277.26815c-0.43991,4.08991 -2.05582,7.82764 -4.50283,10.86827l-2.81366,-2.81366c1.75429,-2.29591 2.93746,-5.05147 3.33743,-8.05461zM193.13642,291.34407c-3.04063,2.447 -6.77836,4.06292 -10.86827,4.50283v-3.97907c3.00313,-0.39997 5.7587,-1.58314 8.05461,-3.33742zM177.73186,295.84691c-4.08991,-0.43991 -7.82764,-2.05583 -10.86827,-4.50283l2.81366,-2.81366c2.29591,1.75428 5.05147,2.93745 8.05461,3.33742zM163.65595,288.13642c-2.447,-3.04063 -4.06292,-6.77836 -4.50283,-10.86827h3.97905c0.39997,3.00314 1.58315,5.7587 3.33743,8.05461z" fill="#ffa200" stroke="none" stroke-width="0"/><path d="M182.1177,270.58825c-0.00659,0.15483 -0.10061,0.28322 -0.23483,0.3454c-0.06587,0.0305 -0.14142,0.04506 -0.22114,0.03894l-1.35433,-0.10405l0.59988,0.80197c0.10743,0.2086 0.02067,0.44939 -0.1906,0.54723c-0.00239,0.00111 -0.00471,0.00218 -0.00709,0.00329c-0.21449,0.09933 -0.47755,0.00665 -0.58624,-0.20426l-0.58243,-1.45841l-0.70592,-0.0542l0.32531,0.65717c0.10306,0.20803 -0.01624,0.02168 -0.22468,0.1182c-0.00446,0.00205 -0.0094,0.0043 -0.01394,0.0062c-0.21819,0.09222 -0.48139,-0.00469 -0.58662,-0.21714l-0.49743,-0.63882l-1.7258,-0.55533l-0.9754,1.40445l0.75689,1.4078l1.20075,-0.04398c0.2415,-0.00831 0.45857,0.16963 0.47681,0.40111c0.01825,0.23148 -0.167,0.42778 -0.40857,0.43608l-0.82533,0.03202l0.35293,0.65644l1.69306,0.28619c0.24223,0.00699 0.44687,0.19745 0.44907,0.42889c0.00235,0.23151 -0.19653,0.41554 -0.43871,0.40839l-1.24567,-0.27207l0.41124,1.43623c0.11251,0.20928 0.02984,0.45934 -0.1847,0.55869c-0.21455,0.09936 -0.24404,-0.22302 -0.35654,-0.43228l-0.62955,-1.17095l-0.77141,1.09794c-0.04231,0.05977 -0.09109,0.10148 -0.15474,0.13096c-0.13666,0.06329 -0.30923,0.0552 -0.44725,-0.03684c-0.20229,-0.13496 -0.26266,-0.39486 -0.12957,-0.58311l1.03729,-1.47508l-0.32816,-0.61038l-0.4141,0.57206c-0.04191,0.05726 -0.08916,0.09712 -0.15084,0.12569c-0.13888,0.06432 -0.31444,0.05464 -0.45308,-0.04083c-0.2002,-0.1378 -0.25626,-0.39846 -0.11992,-0.58454l0.67629,-0.93102l-0.78584,-1.46163l-1.70148,-0.13779l-0.89766,1.32998l0.60114,1.0339c0.11963,0.20578 0.04587,0.45873 -0.16471,0.56508c-0.00432,0.00219 -0.00881,0.00433 -0.0132,0.00637c-0.20843,0.09652 -0.46752,0.01508 -0.58474,-0.18646l-0.37005,-0.63646l-0.37784,0.55615l1.23527,1.28708c0.11629,0.2074 0.03784,0.45823 -0.17665,0.55756c-0.00233,0.00108 -0.00471,0.00218 -0.00704,0.00325c-0.21127,0.09785 -0.4707,0.01748 -0.58574,-0.1877l-0.6778,-1.20897l-0.72486,1.06699c-0.04258,0.06275 -0.10064,0.11007 -0.16652,0.14058c-0.13421,0.06215 -0.3013,0.05468 -0.43856,-0.03355c-0.20466,-0.13152 -0.26558,-0.39269 -0.13608,-0.58332l0.7458,-1.09781l-0.97029,0.05297c-0.24125,-0.0301 -0.41873,-0.24001 -0.39681,-0.46969c0.0219,-0.22969 0.23546,-0.39103 0.47652,-0.36105l1.09233,0.34156l0.40623,-0.598l-0.31079,0.08257c-0.23923,-0.04522 -0.4026,-0.26595 -0.36478,-0.49311c0.03792,-0.2272 0.26243,-0.37464 0.50157,-0.3295l0.68492,-0.01187l0.88388,-1.301l-0.81937,-1.51836l-1.14784,0.1089l-0.61576,0.97949c-0.04294,0.06846 -0.10405,0.11986 -0.17417,0.15233c-0.12966,0.06005 -0.29041,0.05544 -0.42596,-0.02575c-0.20895,-0.12505 -0.27892,-0.38443 -0.15632,-0.57936l0.37906,-0.60295l-0.70597,-0.05418l-0.98878,1.51589c-0.04289,0.06566 -0.10249,0.11516 -0.17065,0.14672c-0.13173,0.06101 -0.29552,0.05509 -0.43192,-0.02937c-0.20697,-0.12812 -0.27272,-0.38838 -0.14687,-0.58134l0.73641,-1.12887l-1.35444,-0.10401c-0.24199,-0.01859 -0.4302,-0.22081 -0.42037,-0.45165c0.00976,-0.23087 0.21383,-0.40285 0.45597,-0.38434l1.39128,0.10688l-0.61788,-1.30058c-0.10168,-0.2139 -0.00479,-0.46016 0.21398,-0.54801c0.21987,-0.08883 0.48043,0.01264 0.58205,0.22657l0.80656,1.69771l0.75913,0.05839l-0.29397,-0.74154c-0.08687,-0.21932 0.02534,-0.45802 0.25153,-0.5316c0.22604,-0.07446 0.47867,0.04356 0.56554,0.26285l0.42745,1.08544l1.5418,-0.22143l0.51654,-0.80217l-0.29013,-1.2307l-1.21033,-0.05732c-0.24223,-0.01085 -0.43074,-0.21014 -0.42899,-0.44149c0.00164,-0.23128 0.19502,-0.40815 0.43724,-0.3973l0.74042,0.03741l-0.32816,-0.61038l-1.89583,-0.11674c-0.24209,-0.01445 -0.42745,-0.21653 -0.42193,-0.44771c0.00556,-0.23121 0.20194,-0.40498 0.44409,-0.39031l1.40804,0.0887l-0.62955,-1.17095c-0.11251,-0.20928 -0.02984,-0.45934 0.1847,-0.55869c0.21455,-0.09936 0.47954,-0.01029 0.59206,0.19898l0.64672,1.20287l0.85509,-1.12068c0.13954,-0.18386 0.4196,-0.22164 0.61757,-0.08078c0.19797,0.14085 0.24098,0.40611 0.10141,0.58991l-1.11626,1.46294l0.35296,0.6565l0.52166,-0.59178c0.15254,-0.17417 0.43503,-0.19441 0.62321,-0.04176c0.18828,0.15266 0.21313,0.41962 0.0608,0.59377l-0.76201,0.86498l0.26068,1.1759l1.78295,0.13811l0.88591,-1.29521l-0.9748,-1.08454c-0.13664,-0.19627 -0.0851,-0.45507 0.11493,-0.57793c0.19936,-0.12337 0.47288,-0.06335 0.60941,0.13296l0.4618,0.66381l0.40641,-0.59816l-0.97662,-1.61895c-0.12307,-0.204 -0.05378,-0.45828 0.15485,-0.56788c0.20902,-0.11106 0.47746,-0.03317 0.6005,0.17077l0.74821,1.24034l0.7446,-1.09594c0.12949,-0.19042 0.40041,-0.23856 0.60506,-0.10703c0.20466,0.13152 0.26558,0.39269 0.13608,0.58332l-0.72475,1.06683l1.41468,0.1327c0.24182,0.02271 0.4264,0.22793 0.41225,0.45844c-0.00937,0.15196 -0.1027,0.27695 -0.23449,0.33798c-0.06814,0.03157 -0.14648,0.04607 -0.22893,0.03832l-1.89969,-0.17829l-0.37779,0.55611l0.74708,0.08145c0.2415,0.02634 0.4227,0.23418 0.40478,0.4643c-0.01162,0.14935 0.19516,0.38509 0.06549,0.44514c-0.07011,0.03247 -0.15109,0.04689 -0.23587,0.03756l-1.21364,-0.13231l-0.89098,1.31135l0.81254,1.5048l1.66361,0.12775l0.51886,-1.01165c0.10487,-0.20471 0.36702,-0.28238 0.58521,-0.17392c0.2183,0.10855 0.31015,0.3624 0.20528,0.56697l-0.35487,0.69187l0.75814,0.05822l0.94635,-1.56365c0.1191,-0.19685 0.38681,-0.25762 0.59767,-0.13572c0.21089,0.12182 0.28532,0.38045 0.16619,0.57739l-0.95986,1.43103l1.39139,0.10683c0.24202,0.01865 0.43022,0.22087 0.42037,0.45165z" fill="#ffffff" stroke="#ffffff" stroke-width="0.5"/><path d="M194.82288,278.92925c-0.00483,0.11354 -0.07378,0.20769 -0.1722,0.25328c-0.0483,0.02237 -0.1037,0.03304 -0.16216,0.02855l-0.99311,-0.0763l0.43989,0.58807c0.07878,0.15296 0.01516,0.32954 -0.13976,0.40128c-0.00175,0.00081 -0.00345,0.0016 -0.0052,0.00241c-0.15729,0.07284 -0.35018,0.00488 -0.42988,-0.14979l-0.42709,-1.06944l-0.51765,-0.03974l0.23855,0.4819c0.07557,0.15255 -0.0119,0.0159 -0.16475,0.08667c-0.00327,0.0015 -0.0069,0.00315 -0.01022,0.00454c-0.16,0.06762 -0.353,-0.00344 -0.43016,-0.15923l-0.36476,-0.46844l-1.26551,-0.40722l-0.71526,1.02987l0.55502,1.03233l0.8805,-0.03225c0.17709,-0.00609 0.33627,0.12439 0.34964,0.29413c0.01338,0.16974 -0.12246,0.31368 -0.2996,0.31977l-0.60521,0.02348l0.2588,0.48136l1.2415,0.20986c0.17763,0.00513 0.32769,0.14479 0.3293,0.31451c0.00173,0.16976 -0.14411,0.30471 -0.3217,0.29947l-0.91344,-0.1995l0.30156,1.05318c0.08251,0.15346 0.02188,0.33683 -0.13544,0.40968c-0.15732,0.07286 -0.17895,-0.16353 -0.26144,-0.31699l-0.46164,-0.85865l-0.56567,0.80511c-0.03103,0.04383 -0.0668,0.07441 -0.11347,0.09603c-0.10021,0.04641 -0.22675,0.04048 -0.32796,-0.02701c-0.14833,-0.09896 -0.1926,-0.28955 -0.09501,-0.42759l0.76064,-1.08166l-0.24063,-0.44759l-0.30366,0.41949c-0.03073,0.04199 -0.06538,0.07122 -0.11061,0.09217c-0.10184,0.04717 -0.23058,0.04007 -0.33224,-0.02994c-0.14681,-0.10105 -0.18792,-0.29219 -0.08794,-0.42864l0.49592,-0.68271l-0.57625,-1.0718l-1.24768,-0.10104l-0.65825,0.97526l0.44081,0.75815c0.08772,0.1509 0.03364,0.33638 -0.12078,0.41437c-0.00316,0.00161 -0.00646,0.00317 -0.00968,0.00467c-0.15284,0.07078 -0.34283,0.01106 -0.42878,-0.13673l-0.27136,-0.46671l-0.27707,0.40782l0.90582,0.9438c0.08527,0.15208 0.02775,0.33601 -0.12953,0.40885c-0.00171,0.00079 -0.00345,0.0016 -0.00516,0.00239c-0.15492,0.07175 -0.34516,0.01282 -0.42952,-0.13764l-0.49702,-0.88653l-0.53153,0.78241c-0.03123,0.04601 -0.0738,0.08071 -0.1221,0.10309c-0.09842,0.04557 -0.22094,0.04009 -0.32159,-0.0246c-0.15007,-0.09644 -0.19475,-0.28796 -0.09979,-0.42774l0.54689,-0.80502l-0.71151,0.03885c-0.17691,-0.02207 -0.30705,-0.17599 -0.29098,-0.34442c0.01606,-0.16843 0.17266,-0.28674 0.34943,-0.26476l0.801,0.25046l0.29788,-0.43851l-0.2279,0.06054c-0.17543,-0.03316 -0.29522,-0.19502 -0.26749,-0.36159c0.02781,-0.16661 0.19244,-0.27472 0.3678,-0.24162l0.50225,-0.0087l0.64814,-0.95401l-0.60084,-1.1134l-0.8417,0.07986l-0.45154,0.71826c-0.03149,0.0502 -0.0763,0.08789 -0.12771,0.1117c-0.09508,0.04403 -0.21296,0.04065 -0.31235,-0.01889c-0.15322,-0.0917 -0.20453,-0.2819 -0.11463,-0.42484l0.27796,-0.44214l-0.51768,-0.03973l-0.72506,1.11159c-0.03145,0.04814 -0.07516,0.08445 -0.12514,0.10759c-0.0966,0.04474 -0.2167,0.04039 -0.31672,-0.02154c-0.15177,-0.09395 -0.19998,-0.2848 -0.10769,-0.42629l0.54,-0.82779l-0.9932,-0.07627c-0.17745,-0.01363 -0.31546,-0.16192 -0.30825,-0.33119c0.00716,-0.16929 0.1568,-0.29541 0.33436,-0.28183l1.02022,0.07837l-0.45309,-0.9537c-0.07456,-0.15685 -0.00351,-0.33743 0.15691,-0.40185c0.16123,-0.06514 0.35229,0.00927 0.42681,0.16614l0.59145,1.24492l0.55667,0.04281l-0.21557,-0.54376c-0.0637,-0.16082 0.01858,-0.33586 0.18445,-0.38982c0.16576,-0.0546 0.35101,0.03194 0.41471,0.19275l0.31345,0.79594l1.13059,-0.16237l0.37877,-0.58822l-0.21275,-0.90246l-0.88752,-0.04203c-0.17763,-0.00795 -0.31586,-0.15409 -0.31458,-0.32374c0.0012,-0.1696 0.14301,-0.29929 0.32062,-0.29134l0.54294,0.02743l-0.24063,-0.44759l-1.3902,-0.0856c-0.17752,-0.01059 -0.31345,-0.15878 -0.3094,-0.32831c0.00408,-0.16954 0.14808,-0.29697 0.32565,-0.28621l1.0325,0.06505l-0.46164,-0.85865c-0.08251,-0.15346 -0.02188,-0.33683 0.13544,-0.40968c0.15732,-0.07286 0.35164,-0.00755 0.43416,0.14591l0.47423,0.88206l0.62703,-0.82179c0.10233,-0.13483 0.30769,-0.16253 0.45286,-0.05923c0.14517,0.10329 0.17671,0.29779 0.07436,0.43258l-0.81854,1.07276l0.25883,0.48141l0.38253,-0.43395c0.11186,-0.12771 0.319,-0.14256 0.457,-0.03062c0.13807,0.11195 0.15628,0.30771 0.04458,0.43541l-0.55877,0.63428l0.19115,0.86228l1.30742,0.10127l0.64963,-0.94977l-0.71481,-0.79528c-0.10019,-0.14392 -0.0624,-0.3337 0.08428,-0.42379c0.14619,-0.09047 0.34676,-0.04646 0.44687,0.09749l0.33863,0.48677l0.29802,-0.43863l-0.71614,-1.18716c-0.09024,-0.1496 -0.03944,-0.33605 0.11355,-0.41643c0.15328,-0.08144 0.35012,-0.02432 0.44034,0.12522l0.54865,0.90953l0.54601,-0.80365c0.09495,-0.13964 0.29362,-0.17493 0.44369,-0.07848c0.15007,0.09644 0.19474,0.28796 0.09979,0.42774l-0.53145,0.7823l1.03738,0.0973c0.17732,0.01666 0.31268,0.16714 0.3023,0.33617c-0.00687,0.11143 -0.07531,0.20308 -0.17195,0.24783c-0.04997,0.02315 -0.10742,0.03379 -0.16787,0.0281l-1.39302,-0.13074l-0.27703,0.40779l0.54783,0.05973c0.17709,0.01931 0.30997,0.17172 0.29683,0.34047c-0.00852,0.10952 0.14311,0.28238 0.04803,0.32641c-0.05141,0.02381 -0.1108,0.03438 -0.17297,0.02755l-0.88995,-0.09702l-0.65335,0.96161l0.59582,1.10346l1.21991,0.09368l0.38048,-0.74183c0.0769,-0.15011 0.26913,-0.20707 0.42913,-0.12753c0.16008,0.0796 0.22743,0.26574 0.15053,0.41575l-0.26022,0.50735l0.55593,0.0427l0.69395,-1.14661c0.08734,-0.14435 0.28365,-0.18891 0.43827,-0.09952c0.15465,0.08933 0.20922,0.27898 0.12187,0.42339l-0.70385,1.04936l1.02029,0.07834c0.17747,0.01368 0.31548,0.16196 0.30826,0.33119z" fill="#ffffff" stroke="#ffffff" stroke-width="0.5"/></g></g></svg>