<svg version="1.1" xmlns="http://www.w3.org/2000/svg" xmlns:xlink="http://www.w3.org/1999/xlink" width="279.7848" height="127.47204" viewBox="0,0,279.7848,127.47204"><defs><linearGradient x1="154.41762" y1="166.09545" x2="154.85352" y2="180.15568" gradientUnits="userSpaceOnUse" id="color-1"><stop offset="0" stop-color="#3e2c1b"/><stop offset="1" stop-color="#2d2014"/></linearGradient><linearGradient x1="189.29948" y1="167.40329" x2="189.65684" y2="178.92988" gradientUnits="userSpaceOnUse" id="color-2"><stop offset="0" stop-color="#3e2c1b"/><stop offset="1" stop-color="#2d2014"/></linearGradient><linearGradient x1="108.51379" y1="175.48353" x2="113.77886" y2="175.32029" gradientUnits="userSpaceOnUse" id="color-3"><stop offset="0" stop-color="#ba533a"/><stop offset="1" stop-color="#853521"/></linearGradient><linearGradient x1="89.17074" y1="203.52234" x2="90.26096" y2="238.68741" gradientUnits="userSpaceOnUse" id="color-4"><stop offset="0" stop-color="#1e160d"/><stop offset="1" stop-color="#563d26"/></linearGradient><linearGradient x1="145.44714" y1="215.10055" x2="146.19086" y2="239.08902" gradientUnits="userSpaceOnUse" id="color-5"><stop offset="0" stop-color="#1e160d"/><stop offset="1" stop-color="#563d26"/></linearGradient><linearGradient x1="125.85269" y1="215.08273" x2="126.66223" y2="241.19518" gradientUnits="userSpaceOnUse" id="color-6"><stop offset="0" stop-color="#1e160d"/><stop offset="1" stop-color="#563d26"/></linearGradient><linearGradient x1="115.79168" y1="187.68812" x2="117.06218" y2="228.66843" gradientUnits="userSpaceOnUse" id="color-7"><stop offset="0" stop-color="#3e2c1b"/><stop offset="1" stop-color="#2f2115"/></linearGradient><linearGradient x1="169.46826" y1="175.3191" x2="170.82186" y2="218.98018" gradientUnits="userSpaceOnUse" id="color-8"><stop offset="0" stop-color="#3e2c1b"/><stop offset="1" stop-color="#2f2115"/></linearGradient><linearGradient x1="121.67172" y1="188.66085" x2="122.90746" y2="228.52002" gradientUnits="userSpaceOnUse" id="color-9"><stop offset="0" stop-color="#895a35"/><stop offset="1" stop-color="#b98d69"/></linearGradient><linearGradient x1="95.78835" y1="221.76757" x2="96.53205" y2="245.75604" gradientUnits="userSpaceOnUse" id="color-10"><stop offset="0" stop-color="#271b11"/><stop offset="1" stop-color="#332416"/></linearGradient><linearGradient x1="124.84655" y1="220.24138" x2="125.65611" y2="246.35384" gradientUnits="userSpaceOnUse" id="color-11"><stop offset="0" stop-color="#271b11"/><stop offset="1" stop-color="#332416"/></linearGradient><linearGradient x1="66.21758" y1="204.77167" x2="67.3078" y2="239.93673" gradientUnits="userSpaceOnUse" id="color-12"><stop offset="0" stop-color="#271b11"/><stop offset="1" stop-color="#332416"/></linearGradient><linearGradient x1="117.36363" y1="175.42019" x2="117.8633" y2="191.53684" gradientUnits="userSpaceOnUse" id="color-13"><stop offset="0" stop-color="#a96c39"/><stop offset="1" stop-color="#643814"/></linearGradient><linearGradient x1="124.79825" y1="173.80855" x2="125.35204" y2="191.67148" gradientUnits="userSpaceOnUse" id="color-14"><stop offset="0" stop-color="#b98d69"/><stop offset="1" stop-color="#956339"/></linearGradient></defs><g transform="translate(-48.21991,-162.53928)"><g data-paper-data="{&quot;isPaintingLayer&quot;:true}" fill-rule="nonzero" stroke-miterlimit="10" stroke-dasharray="" stroke-dashoffset="0" style="mix-blend-mode: normal"><g><path d="M147.78999,166.30852c0,0 6.69138,-0.735 10.79982,6.88151c2.62727,4.87061 2.89158,6.76017 2.89158,6.76017" fill="none" stroke="url(#color-1)" stroke-width="7.5" stroke-linecap="round" stroke-linejoin="miter"/><path d="M182.2767,179.15869c0,0 1.04793,-2.82921 2.17119,-5.4799c3.37098,-7.95491 12.23832,-6.2931 12.23832,-6.2931" fill="none" stroke="url(#color-2)" stroke-width="7.5" stroke-linecap="round" stroke-linejoin="miter"/><path d="M108.50804,175.29821l3.66342,0.15668" fill="none" stroke="url(#color-3)" stroke-width="1" stroke-linecap="round" stroke-linejoin="miter"/><path d="M82.37491,215.37072l17.17915,-13.75727l4.54477,36.64494" data-paper-data="{&quot;index&quot;:null}" fill="none" stroke="url(#color-4)" stroke-width="10.5" stroke-linecap="round" stroke-linejoin="bevel"/><path d="M133.01563,215.48596l16.22365,5.04945l9.38311,18.1682" data-paper-data="{&quot;index&quot;:null}" fill="none" stroke="url(#color-5)" stroke-width="10.5" stroke-linecap="round" stroke-linejoin="miter"/><path d="M113.42114,215.46814l16.23888,5.5406l6.42962,17.96711" data-paper-data="{&quot;index&quot;:null}" fill="none" stroke="url(#color-6)" stroke-width="10.5" stroke-linecap="round" stroke-linejoin="miter"/><path d="M95.15158,208.71665l40.97252,-1.14904" fill="#3e2c1b" stroke="url(#color-7)" stroke-width="41" stroke-linecap="round" stroke-linejoin="miter"/><path d="M144.12902,197.95621c-0.37379,-12.05668 10.97098,-22.19166 25.33924,-22.63712c14.36826,-0.44546 26.31904,8.96731 26.69284,21.02399c0.37379,12.05668 -10.97097,22.19165 -25.33922,22.63711c-14.36826,0.44546 -26.31905,-8.9673 -26.69285,-21.02397z" fill="url(#color-8)" stroke="none" stroke-width="0" stroke-linecap="butt" stroke-linejoin="miter"/><path d="M119.7739,228.61717c0,0 1.6859,-7.34429 1.67947,-18.71735c-0.00472,-8.36435 -2.91521,-21.14183 -2.91521,-21.14183l4.02214,-0.1247c0,0 2.391,9.08258 2.89908,21.16774c0.45152,10.74002 -1.66333,18.69144 -1.66333,18.69144z" fill="url(#color-9)" stroke="none" stroke-width="0" stroke-linecap="butt" stroke-linejoin="miter"/><path d="M84.10052,246.14145l8.23964,-18.71455l15.87971,-6.04474" fill="none" stroke="url(#color-10)" stroke-width="10.5" stroke-linecap="round" stroke-linejoin="bevel"/><path d="M113.22458,246.73925l8.18902,-20.34738l15.86447,-6.53589" fill="none" stroke="url(#color-11)" stroke-width="10.5" stroke-linecap="round" stroke-linejoin="bevel"/><path d="M53.46991,240.36575l8.99678,-35.47779l17.99837,12.66667" fill="none" stroke="url(#color-12)" stroke-width="10.5" stroke-linecap="round" stroke-linejoin="bevel"/><path d="M167.69771,188.56805l0.27992,9.02886" fill="none" stroke="#ffffff" stroke-width="4" stroke-linecap="round" stroke-linejoin="miter"/><path d="M181.20915,188.05145l0.26479,8.54083" fill="none" stroke="#ffffff" stroke-width="4" stroke-linecap="round" stroke-linejoin="miter"/><path d="M186.24191,200.26455c0,0 8.68965,4.83897 -4.63406,4.81415c-11.66296,-0.02172 -25.10176,-5.12858 -25.10176,-5.12858" fill="none" stroke="#ffffff" stroke-width="3" stroke-linecap="round" stroke-linejoin="miter"/><path d="M100.13203,191.28501c-0.07534,-2.43033 -0.26367,-8.50442 -0.3378,-10.89572c-0.05745,-1.85298 3.30058,-4.52673 4.66499,-4.56903c3.56974,-0.11067 29.7643,-0.28804 29.7643,-0.28804c0,0 1.02458,5.08191 1.10375,7.63549c0.06207,2.00204 -0.31356,5.52515 -0.50697,7.17481c-0.06523,0.55633 -0.34748,0.79512 -0.87663,0.64012c-1.76553,-0.51718 -6.77515,-1.59687 -17.02228,-1.23545c-8.52022,0.30051 -13.56646,1.54461 -15.64415,2.18351c-0.75014,0.23066 -1.12534,-0.00501 -1.1452,-0.6457z" fill="url(#color-13)" stroke="none" stroke-width="10.5" stroke-linecap="butt" stroke-linejoin="miter"/><path d="M111.76021,174.21277c1.23387,-0.03825 6.79175,0.94524 11.38116,0.99126c4.68739,0.047 10.32211,0.00104 12.43769,-0.02051c0.53357,-0.00544 0.97391,0.44854 0.97528,0.70982c0.00036,0.0663 1.47521,1.09541 1.89507,4.94462c0.54826,5.02626 -0.48128,6.35476 -0.48128,6.35476c0,0 -1.03547,-0.16807 -1.64195,0.19019c-1.68452,0.99505 -1.67461,4.00026 -1.67461,4.00026c0,0 0.35761,-4.56302 0.21848,-8.64763c-0.06816,-2.00099 0.32018,-4.26257 -1.59285,-5.24085c-1.91303,-0.97828 -7.18316,-0.70389 -10.09258,-0.73483c-4.70972,-0.05006 -9.88861,-0.90331 -11.2184,-0.86209c-0.75911,0.02354 -0.89204,-1.66373 -0.20601,-1.685z" fill="url(#color-14)" stroke="none" stroke-width="0" stroke-linecap="butt" stroke-linejoin="miter"/></g><text transform="translate(61.48156,279.41531) scale(0.78489,0.78489)" font-size="40" xml:space="preserve" fill="#ffffff" fill-rule="nonzero" stroke="#000000" stroke-width="1" stroke-linecap="butt" stroke-linejoin="miter" stroke-miterlimit="10" stroke-dasharray="" stroke-dashoffset="0" font-family="&quot;PatrickHand-Regular&quot;, Sans Serif" font-weight="normal" text-anchor="start" style="mix-blend-mode: normal"><tspan x="0" dy="0">Collector Ant's Shop!</tspan></text><text transform="translate(241.11789,230.41246) scale(0.7165,0.7165)" font-size="40" xml:space="preserve" fill="#ffffff" fill-rule="nonzero" stroke="#000000" stroke-width="1" stroke-linecap="butt" stroke-linejoin="miter" stroke-miterlimit="10" stroke-dasharray="" stroke-dashoffset="0" font-family="&quot;PatrickHand-Regular&quot;, Sans Serif" font-weight="normal" text-anchor="start" style="mix-blend-mode: normal"><tspan x="0" dy="0">Leave -&gt;</tspan></text></g></g></svg>