<svg version="1.1" xmlns="http://www.w3.org/2000/svg" xmlns:xlink="http://www.w3.org/1999/xlink" width="35.95728" height="44.59204" viewBox="0,0,35.95728,44.59204"><defs><linearGradient x1="173.03726" y1="278.82091" x2="175.10069" y2="287.76803" gradientUnits="userSpaceOnUse" id="color-1"><stop offset="0" stop-color="#ffd200"/><stop offset="1" stop-color="#ff9f00"/></linearGradient><linearGradient x1="187.49352" y1="257.24618" x2="189.13514" y2="264.36429" gradientUnits="userSpaceOnUse" id="color-2"><stop offset="0" stop-color="#ffd200"/><stop offset="1" stop-color="#ff9f00"/></linearGradient></defs><g transform="translate(-161.58696,-251.23251)"><g data-paper-data="{&quot;isPaintingLayer&quot;:true}" fill-rule="nonzero" stroke="none" stroke-width="0" stroke-linecap="butt" stroke-linejoin="miter" stroke-miterlimit="10" stroke-dasharray="" stroke-dashoffset="0" style="mix-blend-mode: normal"><path d="M163.21929,287.07755c-3.15808,-0.65458 -1.29451,-9.64546 1.86357,-8.99087c3.15808,0.65458 8.25003,3.80916 7.73542,6.29192c-0.51461,2.48276 -6.44091,3.35354 -9.59899,2.69895z" fill="#ffffff"/><path d="M174.22112,294.78911c-1.36647,2.92142 -9.68359,-0.96883 -8.31713,-3.89026c1.36647,-2.92142 5.61206,-7.14685 7.90877,-6.07258c2.29671,1.07426 1.77482,7.04142 0.40836,9.96284z" fill="#ffffff"/><path d="M184.90999,285.7852c2.68579,1.78563 -2.39782,9.43192 -5.0836,7.64629c-2.68579,-1.78563 -6.23302,-6.61227 -4.82922,-8.72373c1.4038,-2.11146 7.22704,-0.70819 9.91282,1.07745z" fill="#ffffff"/><path d="M179.26478,274.39167c2.55869,-1.96342 8.14844,5.32104 5.58975,7.28446c-2.55869,1.96342 -8.27353,3.75784 -9.8171,1.74629c-1.54357,-2.01155 1.66865,-7.06734 4.22735,-9.03076z" fill="#ffffff"/><path d="M167.04204,274.88899c-0.72479,-3.14271 8.22233,-5.20614 8.94712,-2.06343c0.72479,3.1427 -0.01373,9.08694 -2.48441,9.65674c-2.47068,0.5698 -5.73791,-4.45061 -6.4627,-7.59332z" fill="#ffffff"/><path d="M169.59542,284.32619c-0.5698,-2.47068 0.97116,-4.93547 3.44184,-5.50527c2.47068,-0.5698 4.93547,0.97116 5.50527,3.44184c0.5698,2.47068 -0.97116,4.93547 -3.44184,5.50527c-2.47068,0.5698 -4.93547,-0.97116 -5.50527,-3.44184z" fill="url(#color-1)"/><path d="M179.68259,263.81497c-2.51249,-0.52077 -1.02988,-7.6737 1.48261,-7.15292c2.51249,0.52077 6.56352,3.03047 6.15411,5.0057c-0.40941,1.97523 -5.12423,2.668 -7.63672,2.14722z" fill="#ffffff"/><path d="M188.43538,269.9501c-1.08713,2.32421 -7.70403,-0.77078 -6.61691,-3.095c1.08713,-2.32421 4.46482,-5.68586 6.29203,-4.8312c1.82721,0.85466 1.412,5.60198 0.32488,7.9262z" fill="#ffffff"/><path d="M196.93919,262.7868c2.13675,1.4206 -1.90765,7.50381 -4.04439,6.0832c-2.13675,-1.4206 -4.95884,-5.26056 -3.84201,-6.94039c1.11683,-1.67983 5.74966,-0.56341 7.8864,0.8572z" fill="#ffffff"/><path d="M192.44799,253.72238c2.03564,-1.56205 6.4827,4.23329 4.44707,5.79534c-2.03564,1.56205 -6.58222,2.98965 -7.81024,1.38931c-1.22803,-1.60034 1.32754,-5.62261 3.36318,-7.18466z" fill="#ffffff"/><path d="M182.72387,254.11804c-0.57662,-2.50026 6.5415,-4.14188 7.11812,-1.64162c0.57662,2.50026 -0.01093,7.22935 -1.97654,7.68267c-1.96561,0.45332 -4.56494,-3.5408 -5.14157,-6.04106z" fill="#ffffff"/><path d="M184.75528,261.62605c-0.45332,-1.96561 0.77264,-3.92654 2.73825,-4.37986c1.96561,-0.45332 3.92655,0.77264 4.37986,2.73825c0.45332,1.96561 -0.77264,3.92654 -2.73825,4.37986c-1.96561,0.45332 -3.92655,-0.77264 -4.37986,-2.73825z" fill="url(#color-2)"/></g></g></svg>