<svg version="1.1" xmlns="http://www.w3.org/2000/svg" xmlns:xlink="http://www.w3.org/1999/xlink" width="154.40898" height="88.32857" viewBox="0,0,154.40898,88.32857"><defs><linearGradient x1="210.49622" y1="235.33571" x2="210.49622" y2="249.40269" gradientUnits="userSpaceOnUse" id="color-1"><stop offset="0" stop-color="#3e2c1b"/><stop offset="1" stop-color="#2d2014"/></linearGradient><linearGradient x1="245.32079" y1="237.72383" x2="245.32079" y2="249.25596" gradientUnits="userSpaceOnUse" id="color-2"><stop offset="0" stop-color="#3e2c1b"/><stop offset="1" stop-color="#2d2014"/></linearGradient><linearGradient x1="164.32351" y1="243.29681" x2="169.59111" y2="243.29681" gradientUnits="userSpaceOnUse" id="color-3"><stop offset="0" stop-color="#ba533a"/><stop offset="1" stop-color="#853521"/></linearGradient><linearGradient x1="144.12089" y1="270.72276" x2="144.12089" y2="305.90472" gradientUnits="userSpaceOnUse" id="color-4"><stop offset="0" stop-color="#1e160d"/><stop offset="1" stop-color="#563d26"/></linearGradient><linearGradient x1="200.01149" y1="284.03929" x2="200.01149" y2="308.03929" gradientUnits="userSpaceOnUse" id="color-5"><stop offset="0" stop-color="#1e160d"/><stop offset="1" stop-color="#563d26"/></linearGradient><linearGradient x1="180.42698" y1="283.41429" x2="180.42698" y2="309.53929" gradientUnits="userSpaceOnUse" id="color-6"><stop offset="0" stop-color="#1e160d"/><stop offset="1" stop-color="#563d26"/></linearGradient><linearGradient x1="171.21972" y1="255.72107" x2="171.21972" y2="296.72107" gradientUnits="userSpaceOnUse" id="color-7"><stop offset="0" stop-color="#3e2c1b"/><stop offset="1" stop-color="#2f2115"/></linearGradient><linearGradient x1="225.2538" y1="245.02131" x2="225.2538" y2="288.70337" gradientUnits="userSpaceOnUse" id="color-8"><stop offset="0" stop-color="#3e2c1b"/><stop offset="1" stop-color="#2f2115"/></linearGradient><linearGradient x1="177.06679" y1="256.87554" x2="177.06679" y2="296.75386" gradientUnits="userSpaceOnUse" id="color-9"><stop offset="0" stop-color="#895a35"/><stop offset="1" stop-color="#b98d69"/></linearGradient><linearGradient x1="150.16994" y1="289.16429" x2="150.16994" y2="313.16429" gradientUnits="userSpaceOnUse" id="color-10"><stop offset="0" stop-color="#271b11"/><stop offset="1" stop-color="#332416"/></linearGradient><linearGradient x1="179.26149" y1="288.53929" x2="179.26149" y2="314.66429" gradientUnits="userSpaceOnUse" id="color-11"><stop offset="0" stop-color="#271b11"/><stop offset="1" stop-color="#332416"/></linearGradient><linearGradient x1="121.14005" y1="271.26022" x2="121.14005" y2="306.44218" gradientUnits="userSpaceOnUse" id="color-12"><stop offset="0" stop-color="#271b11"/><stop offset="1" stop-color="#332416"/></linearGradient><linearGradient x1="173.17107" y1="243.50774" x2="173.17107" y2="259.63214" gradientUnits="userSpaceOnUse" id="color-13"><stop offset="0" stop-color="#a96c39"/><stop offset="1" stop-color="#643814"/></linearGradient><linearGradient x1="180.65206" y1="242.12726" x2="180.65206" y2="259.99877" gradientUnits="userSpaceOnUse" id="color-14"><stop offset="0" stop-color="#b98d69"/><stop offset="1" stop-color="#956339"/></linearGradient></defs><g transform="translate(-102.04551,-231.58572)"><g data-paper-data="{&quot;isPaintingLayer&quot;:true}" fill-rule="nonzero" stroke-miterlimit="10" stroke-dasharray="" stroke-dashoffset="0" style="mix-blend-mode: normal"><path d="M203.86517,235.3433c0,0 6.71094,-0.5273 10.58139,7.21286c2.47508,4.94969 2.68071,6.84653 2.68071,6.84653" fill="none" stroke="url(#color-1)" stroke-width="7.5" stroke-linecap="round" stroke-linejoin="miter"/><path d="M237.93709,249.25596c0,0 1.1351,-2.79538 2.33996,-5.40999c3.61587,-7.84663 12.42745,-5.91084 12.42745,-5.91084" fill="none" stroke="url(#color-2)" stroke-width="7.5" stroke-linecap="round" stroke-linejoin="miter"/><path d="M164.32351,243.1114l3.6568,0.27013" fill="none" stroke="url(#color-3)" stroke-width="1" stroke-linecap="round" stroke-linejoin="miter"/><path d="M136.96118,282.35486l17.59721,-13.21832l3.40704,36.76818" data-paper-data="{&quot;index&quot;:null}" fill="none" stroke="url(#color-4)" stroke-width="10.5" stroke-linecap="round" stroke-linejoin="bevel"/><path d="M187.57399,284.03929l16.05939,5.54976l8.81561,18.45024" data-paper-data="{&quot;index&quot;:null}" fill="none" stroke="url(#color-5)" stroke-width="10.5" stroke-linecap="round" stroke-linejoin="miter"/><path d="M167.98948,283.41429l16.05939,6.04115l5.86977,18.15772" data-paper-data="{&quot;index&quot;:null}" fill="none" stroke="url(#color-6)" stroke-width="10.5" stroke-linecap="round" stroke-linejoin="miter"/><path d="M190.92635,276.22107l-40.98845,-0.12117" fill="#3e2c1b" stroke="url(#color-7)" stroke-width="41" stroke-linecap="round" stroke-linejoin="miter"/><path d="M199.22527,266.86234c0,-12.06247 11.65338,-21.84104 26.02854,-21.84104c14.37516,0 26.02853,9.77857 26.02853,21.84104c0,12.06247 -11.65337,21.84103 -26.02853,21.84103c-14.37516,0 -26.02854,-9.77856 -26.02854,-21.84103z" fill="url(#color-8)" stroke="none" stroke-width="0" stroke-linecap="butt" stroke-linejoin="miter"/><path d="M173.93173,296.75386c0,0 1.91267,-7.28852 2.25867,-18.65632c0.25447,-8.36048 -2.25867,-21.22201 -2.25867,-21.22201h4.02407c0,0 2.1084,9.15231 2.24174,21.24741c0.11849,10.74885 -2.24174,18.63092 -2.24174,18.63092z" fill="url(#color-9)" stroke="none" stroke-width="0" stroke-linecap="butt" stroke-linejoin="miter"/><path d="M137.73244,313.16429l8.81561,-18.45024l16.05939,-5.54976" fill="none" stroke="url(#color-10)" stroke-width="10.5" stroke-linecap="round" stroke-linejoin="bevel"/><path d="M166.82399,314.66429l8.81561,-20.08385l16.05939,-6.04115" fill="none" stroke="url(#color-11)" stroke-width="10.5" stroke-linecap="round" stroke-linejoin="bevel"/><path d="M107.29552,306.44218l10.09183,-35.18196l17.59721,13.21832" fill="none" stroke="url(#color-12)" stroke-width="10.5" stroke-linecap="round" stroke-linejoin="bevel"/><path d="M223.07356,258.20903v9.0332" fill="none" stroke="#ffffff" stroke-width="4" stroke-linecap="round" stroke-linejoin="miter"/><path d="M236.59451,266.6563v-8.54493" fill="none" stroke="#ffffff" stroke-width="4" stroke-linecap="round" stroke-linejoin="miter"/><path d="M241.2464,270.47456c0,0 8.53553,5.10591 -4.78102,4.66824c-11.65669,-0.38312 -24.93078,-5.90397 -24.93078,-5.90397" fill="none" stroke="#ffffff" stroke-width="3" stroke-linecap="round" stroke-linejoin="miter"/><path d="M155.45612,258.83097c0,-2.4315 0,-8.50851 0,-10.90096c0,-1.85387 3.43926,-4.42228 4.80433,-4.42228c3.57146,0 29.75893,0.63443 29.75893,0.63443c0,0 0.86661,5.11122 0.86661,7.66603c0,2.003 -0.48463,5.51278 -0.72906,7.15566c-0.08244,0.55404 -0.37194,0.78397 -0.89604,0.61264c-1.74866,-0.57164 -6.72242,-1.80605 -16.97583,-1.76234c-8.52544,0.03634 -13.60781,1.12347 -15.7043,1.69768c-0.75693,0.20731 -1.12464,-0.03988 -1.12464,-0.68088z" fill="url(#color-13)" stroke="none" stroke-width="10.5" stroke-linecap="butt" stroke-linejoin="miter"/><path d="M167.60776,242.12726c1.23447,0 6.75919,1.15525 11.34497,1.34347c4.68368,0.19223 10.31712,0.32089 12.43235,0.36491c0.53348,0.0111 0.95954,0.47851 0.95282,0.7397c-0.0017,0.06628 1.44055,1.1406 1.74093,5.00097c0.39224,5.04084 -0.67797,6.33679 -0.67797,6.33679c0,0 -1.02976,-0.20007 -1.64705,0.13922c-1.71454,0.94237 -1.79777,3.94645 -1.79777,3.94645c0,0 0.49884,-4.54975 0.48635,-8.63671c-0.00612,-2.00214 0.45211,-4.2506 -1.42968,-5.28769c-1.88179,-1.03709 -7.1579,-0.92615 -10.06496,-1.04722c-4.7059,-0.19598 -9.85587,-1.20931 -11.1863,-1.20931c-0.75948,0 -0.84005,-1.69057 -0.15369,-1.69057z" fill="url(#color-14)" stroke="none" stroke-width="0" stroke-linecap="butt" stroke-linejoin="miter"/></g></g></svg>