<svg version="1.1" xmlns="http://www.w3.org/2000/svg" xmlns:xlink="http://www.w3.org/1999/xlink" width="57.0333" height="57.03331" viewBox="0,0,57.0333,57.03331"><g transform="translate(-151.48335,-246.48338)"><g data-paper-data="{&quot;isPaintingLayer&quot;:true}" fill-rule="nonzero" stroke-linejoin="miter" stroke-miterlimit="10" stroke-dasharray="" stroke-dashoffset="0" style="mix-blend-mode: normal"><path d="M156.61252,275.00002c0,-12.91656 10.47093,-23.38748 23.38749,-23.38748c12.91655,0 23.38749,10.47093 23.38749,23.38749c0,12.91656 -10.47093,23.38749 -23.38748,23.38749c-12.91655,0 -23.38748,-10.47093 -23.38748,-23.38749z" fill="#3a984b" stroke="none" stroke-width="0" stroke-linecap="butt"/><path d="M156.61252,275.00001c0,-12.91656 10.47093,-23.38748 23.38749,-23.38748c12.91655,0 23.38749,10.47093 23.38749,23.38749c0,12.91656 -10.47093,23.38749 -23.38748,23.38749c-12.91655,0 -23.38748,-10.47093 -23.38748,-23.38749z" fill-opacity="0.18431" fill="#000000" stroke="none" stroke-width="0" stroke-linecap="butt"/><path d="M151.48335,275.00003c0,-15.74932 12.76734,-28.51665 28.51665,-28.51665c15.74931,0 28.51665,12.76734 28.51665,28.51665c0,15.74932 -12.76734,28.51666 -28.51665,28.51666c-15.74931,0 -28.51665,-12.76734 -28.51665,-28.51666z" fill="none" stroke="none" stroke-width="0" stroke-linecap="butt"/><path d="M159.03187,275.00003c0,-11.58038 9.38775,-20.96813 20.96813,-20.96813c11.58038,0 20.96813,9.38775 20.96813,20.96813c0,11.58038 -9.38775,20.96813 -20.96813,20.96813c-11.58038,0 -20.96813,-9.38775 -20.96813,-20.96813z" fill="#ffc054" stroke="none" stroke-width="0" stroke-linecap="butt"/><path d="M159.15312,272.73188c0.43991,-4.08991 2.05582,-7.82764 4.50283,-10.86827l2.81365,2.81365c-1.75429,2.29591 -2.93746,5.05147 -3.33742,8.05462zM166.86359,258.65596c3.04063,-2.447 6.77836,-4.06292 10.86827,-4.50283v3.97904c-3.00314,0.39997 -5.75872,1.58314 -8.05462,3.33743zM182.26815,254.15315c4.08991,0.43991 7.82764,2.05582 10.86827,4.50283l-2.81365,2.81364c-2.29591,-1.75429 -5.05148,-2.93746 -8.05462,-3.33743zM196.34406,261.86359c2.447,3.04063 4.06292,6.77836 4.50283,10.86827h-3.97905c-0.39997,-3.00315 -1.58314,-5.75871 -3.33742,-8.05462zM200.84688,277.26815c-0.43991,4.08991 -2.05582,7.82764 -4.50283,10.86827l-2.81366,-2.81366c1.75429,-2.29591 2.93746,-5.05147 3.33743,-8.05461zM193.13642,291.34407c-3.04063,2.447 -6.77836,4.06292 -10.86827,4.50283v-3.97907c3.00313,-0.39997 5.7587,-1.58314 8.05461,-3.33742zM177.73186,295.84689c-4.08991,-0.43991 -7.82764,-2.05583 -10.86827,-4.50283l2.81366,-2.81366c2.29591,1.75428 5.05147,2.93745 8.05461,3.33742zM163.65595,288.13642c-2.447,-3.04063 -4.06292,-6.77836 -4.50283,-10.86827h3.97905c0.39997,3.00314 1.58315,5.7587 3.33743,8.05461z" fill="#ffa200" stroke="none" stroke-width="0" stroke-linecap="butt"/><path d="M170.53202,277.83471l-5.02817,-2.49631l5.02817,-2.49631z" data-paper-data="{&quot;index&quot;:null}" fill="#313131" stroke="none" stroke-width="NaN" stroke-linecap="butt"/><path d="M187.0186,275.34331h-10.43023" data-paper-data="{&quot;index&quot;:null}" fill="none" stroke="#d96832" stroke-width="14" stroke-linecap="round"/><path d="M176.5008,282.3837c0,0 -2.80571,-2.07342 -2.80571,-6.91063c0,-4.89351 2.80571,-7.18415 2.80571,-7.18415h3.02137c0,0 -2.80571,2.59609 -2.80571,7.1326c0,4.53651 2.80571,6.96218 2.80571,6.96218z" data-paper-data="{&quot;index&quot;:null}" fill="#2d200a" stroke="none" stroke-width="0" stroke-linecap="butt"/><path d="M181.22984,282.3837c0,0 -2.75885,-2.07342 -2.75885,-6.91063c0,-4.89351 2.75885,-7.18415 2.75885,-7.18415h3.02137c0,0 -2.80571,2.59609 -2.80571,7.1326c0,4.53651 2.80571,6.96218 2.80571,6.96218z" data-paper-data="{&quot;index&quot;:null}" fill="#2d200a" stroke="none" stroke-width="0" stroke-linecap="butt"/><path d="M164.88078,275c0,-8.35011 6.7691,-15.11922 15.11922,-15.11922c8.35011,0 15.11922,6.7691 15.11922,15.11922c0,8.35011 -6.7691,15.11922 -15.11922,15.11922c-8.35011,0 -15.11922,-6.7691 -15.11922,-15.11922z" fill-opacity="0.66667" fill="#ffffff" stroke="none" stroke-width="0" stroke-linecap="butt"/><path d="M169.71886,272.41431c0,0 -0.60703,-1.78246 1.1932,-4.25746c2.09086,-2.87457 3.30703,-2.53237 3.30703,-2.53237" fill="none" stroke="#ffffff" stroke-width="4" stroke-linecap="round"/><path d="M188.94176,262.10015c-0.00477,0.1122 -0.07291,0.20524 -0.17017,0.25029c-0.04773,0.0221 -0.10248,0.03265 -0.16025,0.02822l-0.98141,-0.0754l0.4347,0.58114c0.07785,0.15116 0.01498,0.32565 -0.13812,0.39655c-0.00173,0.0008 -0.00341,0.00158 -0.00514,0.00238c-0.15543,0.07198 -0.34606,0.00482 -0.42481,-0.14802l-0.42206,-1.05683l-0.51154,-0.03928l0.23574,0.47622c0.07468,0.15075 -0.01177,0.01571 -0.16281,0.08565c-0.00323,0.00149 -0.00681,0.00311 -0.0101,0.00449c-0.15811,0.06682 -0.34884,-0.0034 -0.42509,-0.15735l-0.36046,-0.46292l-1.2506,-0.40241l-0.70682,1.01773l0.54848,1.02016l0.87012,-0.03187c0.175,-0.00602 0.3323,0.12292 0.34552,0.29066c0.01322,0.16774 -0.12101,0.30999 -0.29607,0.316l-0.59807,0.0232l0.25575,0.47569l1.22687,0.20738c0.17553,0.00507 0.32382,0.14308 0.32542,0.3108c0.00171,0.16776 -0.14242,0.30112 -0.31791,0.29594l-0.90267,-0.19715l0.298,1.04076c0.08153,0.15165 0.02162,0.33286 -0.13384,0.40485c-0.15547,0.072 -0.17684,-0.16161 -0.25837,-0.31325l-0.4562,-0.84853l-0.559,0.79562c-0.03066,0.04332 -0.06601,0.07354 -0.11213,0.0949c-0.09903,0.04586 -0.22408,0.04 -0.3241,-0.02669c-0.14659,-0.09779 -0.19034,-0.28613 -0.09389,-0.42255l0.75167,-1.06891l-0.2378,-0.44231l-0.30008,0.41454c-0.03037,0.04149 -0.06461,0.07038 -0.10931,0.09108c-0.10064,0.04661 -0.22786,0.0396 -0.32833,-0.02958c-0.14508,-0.09986 -0.1857,-0.28874 -0.0869,-0.42359l0.49008,-0.67466l-0.56945,-1.05917l-1.23297,-0.09985l-0.65049,0.96376l0.43561,0.74921c0.08669,0.14912 0.03324,0.33241 -0.11936,0.40948c-0.00313,0.00159 -0.00638,0.00314 -0.00957,0.00461c-0.15104,0.06995 -0.33879,0.01092 -0.42373,-0.13512l-0.26816,-0.46121l-0.2738,0.40301l0.89514,0.93268c0.08427,0.15029 0.02742,0.33205 -0.12801,0.40403c-0.00169,0.00078 -0.00341,0.00158 -0.0051,0.00236c-0.1531,0.0709 -0.34109,0.01267 -0.42445,-0.13602l-0.49117,-0.87608l-0.52527,0.77319c-0.03086,0.04547 -0.07293,0.07976 -0.12066,0.10187c-0.09726,0.04504 -0.21833,0.03962 -0.3178,-0.02431c-0.1483,-0.0953 -0.19245,-0.28456 -0.09861,-0.4227l0.54044,-0.79553l-0.70312,0.03839c-0.17482,-0.02181 -0.30343,-0.17392 -0.28755,-0.34036c0.01587,-0.16644 0.17062,-0.28336 0.34531,-0.26163l0.79155,0.24751l0.29437,-0.43334l-0.22521,0.05983c-0.17336,-0.03277 -0.29174,-0.19272 -0.26434,-0.35733c0.02748,-0.16464 0.19017,-0.27148 0.36346,-0.23877l0.49633,-0.0086l0.6405,-0.94277l-0.59375,-1.10027l-0.83178,0.07891l-0.44621,0.70979c-0.03112,0.04961 -0.0754,0.08685 -0.12621,0.11038c-0.09396,0.04351 -0.21044,0.04017 -0.30867,-0.01866c-0.15141,-0.09062 -0.20212,-0.27857 -0.11328,-0.41983l0.27468,-0.43693l-0.51158,-0.03926l-0.71651,1.09848c-0.03108,0.04758 -0.07427,0.08345 -0.12366,0.10632c-0.09546,0.04421 -0.21414,0.03992 -0.31299,-0.02128c-0.14998,-0.09284 -0.19762,-0.28144 -0.10642,-0.42127l0.53364,-0.81803l-0.98149,-0.07537c-0.17536,-0.01347 -0.31174,-0.16001 -0.30462,-0.32729c0.00707,-0.1673 0.15495,-0.29193 0.33042,-0.27851l1.00819,0.07745l-0.44774,-0.94246c-0.07368,-0.15501 -0.00347,-0.33345 0.15506,-0.39712c0.15933,-0.06437 0.34814,0.00916 0.42178,0.16418l0.58447,1.23024l0.5501,0.04231l-0.21302,-0.53735c-0.06295,-0.15893 0.01836,-0.3319 0.18227,-0.38522c0.1638,-0.05396 0.34687,0.03156 0.40982,0.19048l0.30975,0.78656l1.11726,-0.16045l0.37431,-0.58129l-0.21025,-0.89182l-0.87706,-0.04153c-0.17553,-0.00786 -0.31214,-0.15228 -0.31087,-0.31992c0.00119,-0.1676 0.14132,-0.29576 0.31684,-0.2879l0.53654,0.02711l-0.2378,-0.44231l-1.37381,-0.0846c-0.17543,-0.01047 -0.30975,-0.15691 -0.30575,-0.32444c0.00403,-0.16754 0.14634,-0.29347 0.32181,-0.28284l1.02033,0.06428l-0.4562,-0.84853c-0.08153,-0.15165 -0.02162,-0.33286 0.13384,-0.40485c0.15547,-0.072 0.3475,-0.00746 0.42903,0.14419l0.46864,0.87166l0.61964,-0.8121c0.10112,-0.13323 0.30406,-0.16061 0.44752,-0.05853c0.14346,0.10207 0.17462,0.29428 0.07348,0.42748l-0.80889,1.06011l0.25577,0.47573l0.37802,-0.42883c0.11053,-0.12621 0.31524,-0.14087 0.45161,-0.03026c0.13644,0.11063 0.15444,0.30408 0.04405,0.43027l-0.55219,0.6268l0.1889,0.85211l1.292,0.10008l0.64197,-0.93856l-0.70638,-0.78591c-0.09901,-0.14223 -0.06167,-0.32976 0.08328,-0.41879c0.14447,-0.0894 0.34267,-0.04591 0.4416,0.09635l0.33464,0.48103l0.2945,-0.43345l-0.7077,-1.17317c-0.08918,-0.14783 -0.03897,-0.33209 0.11221,-0.41152c0.15147,-0.08048 0.34599,-0.02404 0.43515,0.12375l0.54219,0.89881l0.53957,-0.79417c0.09383,-0.13799 0.29016,-0.17287 0.43846,-0.07756c0.1483,0.0953 0.19245,0.28456 0.09861,0.4227l-0.52519,0.77307l1.02514,0.09616c0.17523,0.01646 0.30899,0.16517 0.29873,0.33221c-0.00679,0.11012 -0.07442,0.20069 -0.16992,0.24491c-0.04938,0.02287 -0.10615,0.03339 -0.16589,0.02777l-1.3766,-0.1292l-0.27376,0.40299l0.54137,0.05902c0.175,0.01908 0.30631,0.1697 0.29333,0.33645c-0.00842,0.10822 0.14142,0.27905 0.04746,0.32257c-0.05081,0.02353 -0.10949,0.03398 -0.17092,0.02722l-0.87946,-0.09587l-0.64565,0.95027l0.5888,1.09045l1.20553,0.09258l0.37599,-0.73309c0.07599,-0.14834 0.26596,-0.20463 0.42407,-0.12603c0.15819,0.07866 0.22475,0.26261 0.14876,0.41085l-0.25715,0.50136l0.54938,0.04219l0.68576,-1.1331c0.08631,-0.14265 0.2803,-0.18668 0.4331,-0.09835c0.15282,0.08828 0.20676,0.27569 0.12043,0.4184l-0.69556,1.03699l1.00827,0.07741c0.17538,0.01351 0.31176,0.16005 0.30462,0.32729z" fill="#ffffff" stroke="#ffffff" stroke-width="0.5" stroke-linecap="butt"/><path d="M197.84079,281.52155c-0.00297,0.06972 -0.0453,0.12753 -0.10573,0.15551c-0.02966,0.01373 -0.06367,0.02029 -0.09957,0.01754l-0.6098,-0.04685l0.2701,0.36109c0.04837,0.09392 0.00931,0.20234 -0.08582,0.2464c-0.00107,0.0005 -0.00212,0.00098 -0.00319,0.00148c-0.09658,0.04472 -0.21502,0.00299 -0.26395,-0.09197l-0.26225,-0.65666l-0.31784,-0.0244l0.14648,0.2959c0.0464,0.09367 -0.00732,0.00976 -0.10116,0.05322c-0.002,0.00093 -0.00423,0.00193 -0.00628,0.00279c-0.09824,0.04152 -0.21675,-0.00211 -0.26413,-0.09777l-0.22397,-0.28763l-0.77705,-0.25003l-0.43918,0.63237l0.34079,0.63387l0.54064,-0.01981c0.10874,-0.00374 0.20647,0.07638 0.21469,0.1806c0.00822,0.10422 -0.07519,0.19261 -0.18396,0.19634l-0.37161,0.01442l0.15891,0.29557l0.76231,0.12885c0.10907,0.00315 0.20121,0.0889 0.2022,0.19312c0.00106,0.10424 -0.08849,0.1871 -0.19753,0.18388l-0.56087,-0.1225l0.18516,0.64667c0.05066,0.09422 0.01344,0.20682 -0.08316,0.25156c-0.0966,0.04473 -0.10988,-0.10042 -0.16054,-0.19464l-0.28346,-0.52723l-0.34733,0.49436c-0.01905,0.02691 -0.04101,0.0457 -0.06967,0.05897c-0.06153,0.02849 -0.13923,0.02485 -0.20138,-0.01659c-0.09108,-0.06076 -0.11827,-0.17779 -0.05834,-0.26255l0.46705,-0.66416l-0.14776,-0.27483l-0.18645,0.25757c-0.01887,0.02578 -0.04015,0.04373 -0.06792,0.05659c-0.06253,0.02896 -0.14158,0.0246 -0.204,-0.01838c-0.09015,-0.06205 -0.11538,-0.1794 -0.054,-0.2632l0.30451,-0.4192l-0.35383,-0.65812l-0.7661,-0.06204l-0.40418,0.59883l0.27067,0.46552c0.05386,0.09266 0.02066,0.20655 -0.07416,0.25443c-0.00194,0.00098 -0.00396,0.00195 -0.00594,0.00286c-0.09385,0.04346 -0.21051,0.00679 -0.26329,-0.08396l-0.16662,-0.28657l-0.17012,0.25041l0.55619,0.57952c0.05236,0.09338 0.01704,0.20632 -0.07954,0.25104c-0.00105,0.00048 -0.00212,0.00098 -0.00317,0.00147c-0.09513,0.04405 -0.21193,0.00787 -0.26373,-0.08452l-0.30519,-0.54435l-0.32637,0.48042c-0.01917,0.02825 -0.04531,0.04956 -0.07497,0.0633c-0.06044,0.02799 -0.13566,0.02462 -0.19746,-0.0151c-0.09215,-0.05922 -0.11958,-0.17681 -0.06127,-0.26264l0.3358,-0.4943l-0.43688,0.02386c-0.10863,-0.01355 -0.18854,-0.10806 -0.17867,-0.21148c0.00986,-0.10342 0.10601,-0.17607 0.21455,-0.16256l0.49183,0.15379l0.18291,-0.26926l-0.13994,0.03718c-0.10772,-0.02036 -0.18127,-0.11975 -0.16424,-0.22203c0.01707,-0.1023 0.11816,-0.16868 0.22583,-0.14836l0.30839,-0.00534l0.39797,-0.58579l-0.36892,-0.68365l-0.51682,0.04903l-0.27725,0.44103c-0.01933,0.03083 -0.04685,0.05396 -0.07842,0.06858c-0.05838,0.02704 -0.13076,0.02496 -0.19179,-0.01159c-0.09408,-0.05631 -0.12559,-0.17309 -0.07039,-0.26086l0.17067,-0.27149l-0.31787,-0.02439l-0.4452,0.68253c-0.01931,0.02957 -0.04615,0.05185 -0.07683,0.06606c-0.05932,0.02747 -0.13306,0.0248 -0.19447,-0.01322c-0.09319,-0.05769 -0.12279,-0.17487 -0.06612,-0.26176l0.33158,-0.50828l-0.60984,-0.04683c-0.10896,-0.00837 -0.1937,-0.09942 -0.18927,-0.20336c0.00439,-0.10395 0.09628,-0.18139 0.20531,-0.17305l0.62644,0.04812l-0.27821,-0.58559c-0.04578,-0.09631 -0.00216,-0.20718 0.09635,-0.24675c0.099,-0.04 0.21632,0.00569 0.26207,0.10201l0.36316,0.76441l0.34181,0.02629l-0.13236,-0.33388c-0.03911,-0.09875 0.0114,-0.20622 0.11325,-0.23936c0.10178,-0.03353 0.21552,0.01961 0.25464,0.11835l0.19246,0.48873l0.69421,-0.0997l0.23258,-0.36119l-0.13064,-0.55413l-0.54496,-0.02581c-0.10906,-0.00488 -0.19394,-0.09462 -0.19316,-0.19878c0.00074,-0.10414 0.08781,-0.18377 0.19687,-0.17889l0.33337,0.01684l-0.14776,-0.27482l-0.85361,-0.05256c-0.109,-0.0065 -0.19246,-0.0975 -0.18998,-0.20159c0.00251,-0.1041 0.09093,-0.18235 0.19996,-0.17574l0.63398,0.03994l-0.28346,-0.52723c-0.05066,-0.09422 -0.01343,-0.20682 0.08316,-0.25155c0.0966,-0.04473 0.21592,-0.00464 0.26658,0.08959l0.29119,0.5416l0.38501,-0.5046c0.06283,-0.08279 0.18893,-0.09979 0.27807,-0.03637c0.08914,0.06342 0.1085,0.18285 0.04565,0.26561l-0.5026,0.6587l0.15892,0.29559l0.23488,-0.26645c0.06867,-0.07842 0.19587,-0.08753 0.28061,-0.0188c0.08477,0.06874 0.09596,0.18894 0.02737,0.26735l-0.3431,0.38946l0.11737,0.52946l0.80278,0.06218l0.39889,-0.58317l-0.43891,-0.48832c-0.06152,-0.08837 -0.03832,-0.2049 0.05175,-0.26021c0.08977,-0.05555 0.21291,-0.02853 0.27439,0.05987l0.20793,0.29889l0.18299,-0.26932l-0.43972,-0.72895c-0.05541,-0.09185 -0.02422,-0.20635 0.06972,-0.2557c0.09412,-0.05 0.21498,-0.01494 0.27038,0.07689l0.33689,0.55847l0.33526,-0.49346c0.0583,-0.08574 0.18029,-0.10741 0.27244,-0.04819c0.09215,0.05922 0.11958,0.17681 0.06127,0.26264l-0.32633,0.48034l0.63697,0.05975c0.10888,0.01022 0.19199,0.10263 0.18562,0.20642c-0.00422,0.06842 -0.04624,0.1247 -0.10558,0.15218c-0.03069,0.01421 -0.06596,0.02074 -0.10307,0.01725l-0.85535,-0.08028l-0.1701,0.2504l0.33638,0.03667c0.10873,0.01185 0.19032,0.10544 0.18226,0.20906c-0.00523,0.06724 0.08787,0.17339 0.02949,0.20042c-0.03157,0.01462 -0.06803,0.02111 -0.1062,0.01691l-0.54645,-0.05957l-0.40117,0.59045l0.36585,0.67755l0.74906,0.05752l0.23362,-0.45551c0.04722,-0.09217 0.16525,-0.12715 0.26349,-0.07831c0.09829,0.04887 0.13965,0.16317 0.09243,0.25528l-0.15978,0.31152l0.34136,0.02621l0.42609,-0.70405c0.05363,-0.08864 0.17416,-0.11599 0.26911,-0.06111c0.09495,0.05485 0.12847,0.1713 0.07483,0.25997l-0.43218,0.64433l0.62649,0.0481c0.10897,0.00839 0.19371,0.09945 0.18927,0.20336z" fill="#ffffff" stroke="#ffffff" stroke-width="0.5" stroke-linecap="butt"/><path d="M176.61037,285.16172c-0.0042,0.09874 -0.06415,0.1806 -0.14974,0.22024c-0.042,0.01945 -0.09017,0.02873 -0.14101,0.02484l-0.86358,-0.06636l0.3825,0.51136c0.0685,0.13301 0.01318,0.28655 -0.12154,0.34894c-0.00152,0.0007 -0.003,0.00139 -0.00452,0.0021c-0.13677,0.06334 -0.30451,0.00424 -0.37381,-0.13025l-0.37139,-0.92995l-0.45013,-0.03455l0.20744,0.41904c0.06571,0.13265 -0.01037,0.01382 -0.14327,0.07537c-0.00284,0.00132 -0.006,0.00273 -0.00889,0.00395c-0.13913,0.0588 -0.30695,-0.00299 -0.37405,-0.13845l-0.31719,-0.40734l-1.10044,-0.35409l-0.62196,0.89554l0.48263,0.89767l0.76565,-0.02805c0.15399,-0.0053 0.29241,0.10817 0.30404,0.25576c0.01163,0.14759 -0.10648,0.27278 -0.26052,0.27806l-0.52627,0.02041l0.22505,0.41858l1.07958,0.18248c0.15446,0.00446 0.28494,0.1259 0.28634,0.27349c0.00151,0.14762 -0.12532,0.26497 -0.27974,0.26041l-0.79429,-0.17347l0.26222,0.9158c0.07174,0.13344 0.01903,0.2929 -0.11777,0.35625c-0.1368,0.06335 -0.15562,-0.14221 -0.22736,-0.27565l-0.40142,-0.74665l-0.49188,0.7001c-0.02697,0.03812 -0.05808,0.06471 -0.09867,0.08351c-0.08714,0.04035 -0.19718,0.03519 -0.28519,-0.02349c-0.12899,-0.08605 -0.16748,-0.25178 -0.08261,-0.37182l0.66143,-0.94057l-0.20925,-0.3892l-0.26405,0.36477c-0.02672,0.03652 -0.05685,0.06194 -0.09618,0.08015c-0.08855,0.04101 -0.2005,0.03484 -0.28891,-0.02604c-0.12766,-0.08787 -0.16341,-0.25407 -0.07647,-0.37273l0.43124,-0.59366l-0.50108,-0.93201l-1.08494,-0.08787l-0.57239,0.84805l0.38331,0.65926c0.07628,0.13122 0.02926,0.29251 -0.10502,0.36033c-0.00275,0.00139 -0.00562,0.00276 -0.00842,0.00406c-0.1329,0.06155 -0.29812,0.00961 -0.37286,-0.1189l-0.23596,-0.40583l-0.24093,0.35463l0.78766,0.82071c0.07415,0.13224 0.02413,0.29218 -0.11264,0.35552c-0.00149,0.00069 -0.00301,0.00139 -0.0045,0.00208c-0.13472,0.06239 -0.30013,0.01115 -0.37349,-0.1197l-0.4322,-0.7709l-0.46221,0.68036c-0.02716,0.04001 -0.06417,0.07019 -0.10617,0.08964c-0.08559,0.03964 -0.19212,0.03487 -0.27965,-0.02139c-0.1305,-0.08387 -0.16935,-0.25039 -0.08677,-0.37195l0.47555,-0.70002l-0.6187,0.03379c-0.15383,-0.01919 -0.267,-0.15304 -0.25303,-0.2995c0.01397,-0.14646 0.15013,-0.24935 0.30385,-0.23022l0.69651,0.2178l0.25903,-0.38132l-0.19817,0.05265c-0.15254,-0.02884 -0.25672,-0.16959 -0.2326,-0.31443c0.02418,-0.14488 0.16734,-0.23888 0.31982,-0.2101l0.43674,-0.00757l0.5636,-0.82958l-0.52246,-0.96816l-0.73192,0.06944l-0.39264,0.62458c-0.02738,0.04365 -0.06635,0.07642 -0.11106,0.09713c-0.08268,0.03829 -0.18518,0.03535 -0.27162,-0.01642c-0.13323,-0.07974 -0.17785,-0.24513 -0.09968,-0.36943l0.2417,-0.38447l-0.45015,-0.03454l-0.63049,0.96659c-0.02735,0.04187 -0.06535,0.07344 -0.10881,0.09356c-0.084,0.0389 -0.18844,0.03512 -0.27541,-0.01873c-0.13197,-0.08169 -0.17389,-0.24764 -0.09364,-0.37069l0.46958,-0.71982l-0.86365,-0.06633c-0.1543,-0.01185 -0.27431,-0.1408 -0.26805,-0.28799c0.00622,-0.14722 0.13634,-0.25689 0.29075,-0.24508l0.88715,0.06815l-0.39399,-0.82931c-0.06484,-0.13639 -0.00305,-0.29341 0.13644,-0.34944c0.1402,-0.05664 0.30634,0.00806 0.37115,0.14447l0.51429,1.08254l0.48406,0.03722l-0.18745,-0.47283c-0.05539,-0.13985 0.01615,-0.29204 0.16038,-0.33897c0.14414,-0.04748 0.30522,0.02776 0.36061,0.1676l0.27257,0.69213l0.98312,-0.14119l0.32937,-0.51151l-0.18501,-0.78475l-0.77175,-0.03655c-0.15445,-0.00692 -0.27466,-0.13399 -0.27355,-0.2815c0.00105,-0.14748 0.12435,-0.26026 0.2788,-0.25334l0.47212,0.02385l-0.20925,-0.3892l-1.20887,-0.07443c-0.15437,-0.00921 -0.27255,-0.13808 -0.26904,-0.28549c0.00355,-0.14743 0.12877,-0.25824 0.28317,-0.24889l0.89783,0.05657l-0.40143,-0.74665c-0.07174,-0.13344 -0.01903,-0.29289 0.11778,-0.35625c0.1368,-0.06335 0.30577,-0.00656 0.37752,0.12688l0.41237,0.76701l0.54525,-0.7146c0.08899,-0.11724 0.26755,-0.14132 0.39379,-0.0515c0.12624,0.08982 0.15366,0.25895 0.06466,0.37615l-0.71177,0.93284l0.22506,0.41861l0.33264,-0.37734c0.09726,-0.11105 0.27739,-0.12396 0.39739,-0.02663c0.12006,0.09735 0.1359,0.26757 0.03875,0.37862l-0.48589,0.55155l0.16622,0.7498l1.13688,0.08807l0.5649,-0.82588l-0.62158,-0.69155c-0.08712,-0.12515 -0.05427,-0.29017 0.07328,-0.3685c0.12712,-0.07866 0.30152,-0.0404 0.38858,0.08478l0.29447,0.42328l0.25915,-0.38141l-0.62273,-1.03232c-0.07847,-0.13008 -0.0343,-0.29222 0.09874,-0.36212c0.13328,-0.07082 0.30445,-0.02115 0.38291,0.1089l0.4771,0.79089l0.4748,-0.69883c0.08256,-0.12143 0.25532,-0.15211 0.38582,-0.06825c0.1305,0.08387 0.16935,0.25039 0.08677,0.37195l-0.46213,0.68025l0.90206,0.08462c0.15419,0.01448 0.27189,0.14534 0.26287,0.29233c-0.00597,0.0969 -0.06548,0.1766 -0.14952,0.21551c-0.04346,0.02012 -0.0934,0.02937 -0.14597,0.02443l-1.21133,-0.11369l-0.24089,0.35461l0.47637,0.05194c0.15399,0.01678 0.26954,0.14932 0.25811,0.29606c-0.00741,0.09522 0.12444,0.24554 0.04176,0.28384c-0.04471,0.0207 -0.09634,0.0299 -0.15039,0.02395l-0.77388,-0.08436l-0.56814,0.83618l0.51811,0.95953l1.0608,0.08147l0.33085,-0.64508c0.06686,-0.13053 0.23402,-0.18007 0.37316,-0.1109c0.1392,0.06921 0.19776,0.23108 0.1309,0.36153l-0.22627,0.44117l0.48342,0.03712l0.60342,-0.99706c0.07595,-0.12552 0.24666,-0.16426 0.38111,-0.08654c0.13447,0.07768 0.18193,0.24258 0.10597,0.36816l-0.61205,0.91249l0.88722,0.06813c0.15432,0.01188 0.27433,0.14083 0.26804,0.28799z" fill="#ffffff" stroke="#ffffff" stroke-width="0.5" stroke-linecap="butt"/></g></g></svg>