<svg version="1.1" xmlns="http://www.w3.org/2000/svg" xmlns:xlink="http://www.w3.org/1999/xlink" width="68.27311" height="68.27311" viewBox="0,0,68.27311,68.27311"><g transform="translate(-145.86345,-240.86344)"><g data-paper-data="{&quot;isPaintingLayer&quot;:true}" fill-rule="nonzero" stroke="none" stroke-width="0" stroke-linecap="round" stroke-linejoin="miter" stroke-miterlimit="10" stroke-dasharray="" stroke-dashoffset="0" style="mix-blend-mode: normal"><path d="M145.86345,309.13656v-17.18837h17.05817v17.05817h17.05818v-16.96839h17.05817v17.05817h17.05818v-17.05818h-17.05817v-16.96839h17.05817v-17.05818h-17.05817v-17.05817h-17.05818v16.96839h-17.05817v-17.05817h51.21494v68.27311zM162.92162,257.92162v16.96839h-17.05817v-16.96839zM179.97979,291.94818h-17.05817v-16.96839h17.05817v-16.96839h17.05817v16.96839h-17.05817z" fill-opacity="0.50588" fill="#e838ff"/><path d="M162.92162,309.00636v-17.05817h-17.05817v-17.05818h17.05817v-16.96839h-17.05817v-17.05818h17.05817v17.05817h17.05817v-16.96839h17.05818v17.05817h17.05817v17.05818h-17.05817v16.96839h17.05817v17.05818h-17.05818v-17.05817h-17.05817v16.96839zM179.97979,274.97979h17.05817v-16.96839h-17.05817v16.96839h-17.05817v16.96839h17.05817z" fill="#000000"/></g></g></svg>