<svg version="1.1" xmlns="http://www.w3.org/2000/svg" xmlns:xlink="http://www.w3.org/1999/xlink" width="42.9057" height="43.49633" viewBox="0,0,42.9057,43.49633"><defs><linearGradient x1="179.93056" y1="260.75184" x2="179.93056" y2="289.24817" gradientUnits="userSpaceOnUse" id="color-1"><stop offset="0" stop-color="#fff238"/><stop offset="1" stop-color="#ffc238"/></linearGradient></defs><g transform="translate(-158.61661,-253.25184)"><g data-paper-data="{&quot;isPaintingLayer&quot;:true}" fill-rule="nonzero" stroke-linejoin="miter" stroke-miterlimit="10" stroke-dasharray="" stroke-dashoffset="0" style="mix-blend-mode: normal"><path d="M177.54473,289.24817c-4.43764,0 -8.46555,-1.75423 -11.42811,-4.60705c-0.03807,-0.03665 22.66032,-23.92679 22.70034,-23.88924c0,0 5.20536,7.27867 5.20536,12.01871c0,4.74004 -7.37728,16.47758 -16.47759,16.47758z" fill="none" stroke="#ffffff" stroke-width="15" stroke-linecap="butt"/><path d="M188.67805,260.75187c3.2039,3.0061 5.20536,7.27867 5.20536,12.01872c0,9.10031 -7.37726,16.47757 -16.47757,16.47757c-4.43764,0 -8.46555,-1.75423 -11.42811,-4.60705c-0.03807,-0.03665 22.66032,-23.92679 22.70034,-23.88924z" fill="#ffa738" stroke="#000000" stroke-width="0" stroke-linecap="butt"/><path d="M177.54473,289.24817c-4.43764,0 -8.46555,-1.75423 -11.42811,-4.60705c-0.03807,-0.03665 22.66032,-23.92679 22.70034,-23.88924c0,0 5.20536,7.27867 5.20536,12.01871c0,4.74004 -7.37728,16.47758 -16.47759,16.47758z" fill="#ffa738" stroke="#ffa738" stroke-width="7" stroke-linecap="butt"/><path d="M188.67805,260.75187c3.2039,3.0061 5.20536,7.27867 5.20536,12.01872c0,9.10031 -7.37726,16.47757 -16.47757,16.47757c-4.43764,0 -8.46555,-1.75423 -11.42811,-4.60705c-0.03807,-0.03665 22.66032,-23.92679 22.70034,-23.88924z" fill="url(#color-1)" stroke="none" stroke-width="0" stroke-linecap="butt"/><path d="M181.22384,287.52671l-9.48283,-9.48284" fill="none" stroke="none" stroke-width="0" stroke-linecap="round"/><path d="M172.16437,277.00078l11.42682,11.42682" fill="none" stroke="#ffa738" stroke-width="2.5" stroke-linecap="round"/><path d="M192.31876,279.46631l-11.3794,-11.3794" fill="none" stroke="#ffa738" stroke-width="2.5" stroke-linecap="round"/></g></g></svg>