<svg version="1.1" xmlns="http://www.w3.org/2000/svg" xmlns:xlink="http://www.w3.org/1999/xlink" width="63.16415" height="68.34994" viewBox="0,0,63.16415,68.34994"><defs><radialGradient cx="180" cy="275.00001" r="29.82915" gradientUnits="userSpaceOnUse" id="color-1"><stop offset="0" stop-color="#ffffff" stop-opacity="0.78039"/><stop offset="1" stop-color="#f0f0f0" stop-opacity="0.23922"/></radialGradient><radialGradient cx="197.9293" cy="252.80412" r="7.35964" gradientUnits="userSpaceOnUse" id="color-2"><stop offset="0" stop-color="#ffffff"/><stop offset="1" stop-color="#ffffff" stop-opacity="0"/></radialGradient><radialGradient cx="158.87897" cy="297.21906" r="4.5343" gradientUnits="userSpaceOnUse" id="color-3"><stop offset="0" stop-color="#ffffff"/><stop offset="1" stop-color="#ffffff" stop-opacity="0"/></radialGradient><radialGradient cx="199.10104" cy="298.64906" r="7.52307" gradientUnits="userSpaceOnUse" id="color-4"><stop offset="0" stop-color="#ffffff"/><stop offset="1" stop-color="#ffffff" stop-opacity="0"/></radialGradient><radialGradient cx="205.74776" cy="287.78912" r="5.02324" gradientUnits="userSpaceOnUse" id="color-5"><stop offset="0" stop-color="#ffffff"/><stop offset="1" stop-color="#ffffff" stop-opacity="0"/></radialGradient></defs><g transform="translate(-147.60684,-245.17085)"><g data-paper-data="{&quot;isPaintingLayer&quot;:true}" fill-rule="nonzero" stroke-linejoin="miter" stroke-miterlimit="10" stroke-dasharray="" stroke-dashoffset="0" style="mix-blend-mode: normal"><path d="M150.17085,275.00001c0,-3.27462 0.52766,-6.42599 1.5026,-9.37374c0.86362,-2.61118 -4.06661,-13.12695 -4.06661,-13.12695c0,0 9.46959,3.35227 10.51036,2.2293c5.44816,-5.87846 13.23581,-9.55776 21.8828,-9.55776c7.64117,0 14.61128,2.87313 19.88897,7.598c1.48682,1.33108 5.64983,2.58546 5.64983,2.58546c0,0 0.05733,4.24848 0.75712,5.55135c2.25439,4.19722 3.53324,8.99644 3.53324,14.09434c0,8.38977 -3.46365,15.97055 -9.03902,21.39042c-0.38722,0.37642 2.38969,5.10035 2.38969,5.10035c0,0 -4.34748,-3.35142 -4.74277,-3.04021c-5.07452,3.99516 -11.47744,6.3786 -18.43705,6.3786c-1.57592,0 -3.12328,-0.12221 -4.63315,-0.35766c-0.84655,-0.13202 -4.82012,9.04929 -4.82012,9.04929c0,0 0.0105,-10.19216 -1.09796,-10.61144c-11.26677,-4.26168 -19.27792,-15.14996 -19.27792,-27.90935z" fill="url(#color-1)" stroke="none" stroke-width="0" stroke-linecap="butt"/><path d="M155.97444,273.01158c0,0 -0.39124,-6.41831 4.87474,-12.73796c4.51238,-5.41527 8.93575,-7.12091 8.93575,-7.12091" fill="none" stroke-opacity="0.14902" stroke="#ffffff" stroke-width="4.5" stroke-linecap="round"/><path d="M181.27687,250.22932l-4.93952,0.70565" fill="none" stroke-opacity="0.14902" stroke="#ffffff" stroke-width="4.5" stroke-linecap="round"/><path d="M205.28861,253.57371c-0.00582,0.13687 -0.08893,0.25035 -0.20757,0.30529c-0.05822,0.02696 -0.12499,0.03983 -0.19547,0.03443l-1.1971,-0.09198l0.53023,0.70885c0.09496,0.18438 0.01828,0.39722 -0.16847,0.4837c-0.0021,0.00097 -0.00416,0.00193 -0.00626,0.00291c-0.18959,0.0878 -0.42212,0.00588 -0.51818,-0.18055l-0.51482,-1.2891l-0.62397,-0.0479l0.28756,0.58088c0.09109,0.18389 -0.01437,0.01916 -0.1986,0.10448c-0.00394,0.00183 -0.00831,0.00379 -0.01232,0.00548c-0.19286,0.08151 -0.4255,-0.00414 -0.51851,-0.19192l-0.43969,-0.56466l-1.52544,-0.49084l-0.86217,1.24141l0.66902,1.24436l1.06135,-0.03888c0.21346,-0.00734 0.40534,0.14994 0.42146,0.35454c0.01613,0.2046 -0.14761,0.37813 -0.36114,0.38545l-0.72952,0.0283l0.31196,0.58024l1.49652,0.25296c0.21411,0.00618 0.39499,0.17452 0.39693,0.37911c0.00209,0.20464 -0.17372,0.3673 -0.38778,0.36098l-1.10106,-0.24047l0.36349,1.26949c0.09945,0.18497 0.02638,0.40602 -0.16325,0.49384c-0.18964,0.08782 -0.21572,-0.19713 -0.31517,-0.3821l-0.55646,-1.03502l-0.68185,0.97049c-0.03739,0.05284 -0.08052,0.0897 -0.13677,0.11576c-0.12079,0.05594 -0.27334,0.04878 -0.39533,-0.03257c-0.17881,-0.11928 -0.23217,-0.34901 -0.11452,-0.51542l0.91688,-1.30383l-0.29007,-0.53951l-0.36602,0.50564c-0.03704,0.05062 -0.07881,0.08586 -0.13333,0.1111c-0.12275,0.05685 -0.27794,0.04829 -0.40049,-0.03609c-0.17697,-0.12181 -0.22651,-0.35219 -0.106,-0.51668l0.59779,-0.82293l-0.6946,-1.29196l-1.50396,-0.1218l-0.79345,1.17558l0.53135,0.91387c0.10573,0.18189 0.04056,0.40548 -0.14558,0.49949c-0.00382,0.00193 -0.00778,0.00383 -0.01167,0.00562c-0.18423,0.08532 -0.41326,0.01332 -0.51686,-0.16482l-0.3271,-0.56257l-0.33398,0.49158l1.09187,1.13768c0.10279,0.18332 0.03345,0.40502 -0.15614,0.49282c-0.00206,0.00095 -0.00417,0.00193 -0.00623,0.00289c-0.18675,0.08649 -0.41604,0.01545 -0.51773,-0.16592l-0.59911,-1.06862l-0.64071,0.94312c-0.03764,0.05547 -0.08896,0.09729 -0.14718,0.12426c-0.11864,0.05495 -0.26632,0.04833 -0.38765,-0.02965c-0.1809,-0.11626 -0.23475,-0.34709 -0.12028,-0.51559l0.65922,-0.97038l-0.85765,0.04684c-0.21324,-0.0266 -0.37012,-0.21214 -0.35075,-0.41517c0.01937,-0.20303 0.20811,-0.34565 0.4212,-0.31913l0.96551,0.30192l0.35907,-0.52859l-0.27471,0.07298c-0.21146,-0.03998 -0.35586,-0.23508 -0.32243,-0.43586c0.03352,-0.20083 0.23196,-0.33114 0.44333,-0.29124l0.60542,-0.01049l0.78127,-1.14998l-0.72424,-1.34208l-1.01459,0.09625l-0.54428,0.86579c-0.03796,0.06051 -0.09197,0.10594 -0.15395,0.13464c-0.11461,0.05308 -0.2567,0.049 -0.37652,-0.02276c-0.18469,-0.11053 -0.24654,-0.33981 -0.13817,-0.51211l0.33505,-0.53296l-0.62401,-0.04788l-0.87399,1.33989c-0.03791,0.05804 -0.09059,0.1018 -0.15083,0.12969c-0.11644,0.05393 -0.26121,0.04869 -0.38178,-0.02596c-0.18293,-0.11324 -0.24105,-0.34328 -0.12981,-0.51386l0.65093,-0.99781l-1.1972,-0.09194c-0.21389,-0.01643 -0.38026,-0.19517 -0.37157,-0.39922c0.00863,-0.20408 0.189,-0.3561 0.40304,-0.33973l1.22978,0.09448l-0.54615,-1.14959c-0.08988,-0.18907 -0.00423,-0.40673 0.18914,-0.4844c0.19435,-0.07851 0.42465,0.01117 0.51448,0.20027l0.71292,1.50063l0.67101,0.0516l-0.25984,-0.65545c-0.07679,-0.19386 0.02239,-0.40483 0.22232,-0.46988c0.19981,-0.06582 0.42309,0.03848 0.49988,0.23234l0.37783,0.95944l1.36281,-0.19571l0.45657,-0.70906l-0.25646,-1.08782l-1.06981,-0.05067c-0.2141,-0.00959 -0.38074,-0.18574 -0.3792,-0.39022c0.00145,-0.20444 0.17238,-0.36077 0.38648,-0.35118l0.65446,0.03306l-0.29006,-0.53951l-1.67575,-0.10318c-0.21399,-0.01276 -0.37781,-0.1914 -0.37294,-0.39575c0.00492,-0.20437 0.1785,-0.35797 0.39254,-0.34501l1.24458,0.07842l-0.55647,-1.03502c-0.09945,-0.18497 -0.02637,-0.40601 0.16326,-0.49383c0.18964,-0.08782 0.42387,-0.0091 0.52332,0.17588l0.57163,1.06324l0.75583,-0.99059c0.12335,-0.16252 0.37088,-0.1959 0.54587,-0.07139c0.17499,0.12451 0.213,0.35896 0.08963,0.52142l-0.98666,1.29311l0.31198,0.58028l0.46111,-0.52307c0.13482,-0.15394 0.38452,-0.17183 0.55087,-0.03692c0.16642,0.13494 0.18838,0.37091 0.05372,0.52484l-0.67355,0.76456l0.23042,1.03938l1.57595,0.12208l0.78307,-1.14484l-0.86163,-0.95863c-0.12077,-0.17348 -0.07523,-0.40223 0.10158,-0.51082c0.17622,-0.10904 0.41797,-0.05601 0.53865,0.11752l0.40819,0.58676l0.35923,-0.52872l-0.86323,-1.43101c-0.10878,-0.18032 -0.04755,-0.40508 0.13687,-0.50197c0.18476,-0.09817 0.42203,-0.02932 0.53079,0.15095l0.66136,1.09634l0.65817,-0.96872c0.11445,-0.16833 0.35392,-0.21086 0.53482,-0.0946c0.1809,0.11626 0.23475,0.3471 0.12028,0.5156l-0.64062,0.94297l1.25044,0.1173c0.21374,0.02007 0.3769,0.20148 0.36439,0.40523c-0.00827,0.13433 -0.09077,0.2448 -0.20727,0.29875c-0.06024,0.0279 -0.12948,0.04072 -0.20234,0.03386l-1.67915,-0.1576l-0.33393,0.49157l0.66034,0.072c0.21346,0.02326 0.37364,0.20699 0.3578,0.4104c-0.01027,0.132 0.1725,0.34038 0.05789,0.39346c-0.06198,0.0287 -0.13355,0.04144 -0.20847,0.0332l-1.07276,-0.11694l-0.78755,1.15912l0.71821,1.3301l1.47048,0.11293l0.45862,-0.89421c0.09269,-0.18094 0.32441,-0.24961 0.51727,-0.15373c0.19296,0.09594 0.27414,0.32032 0.18145,0.50116l-0.31366,0.61155l0.67012,0.05145l0.83647,-1.38213c0.10528,-0.174 0.34192,-0.2277 0.5283,-0.11996c0.18641,0.10768 0.25219,0.33627 0.14689,0.51034l-0.84843,1.26491l1.22988,0.09444c0.21392,0.01647 0.38028,0.19522 0.37156,0.39922z" fill="url(#color-2)" stroke="none" stroke-width="0" stroke-linecap="butt"/><path d="M162.90808,299.51285c-0.03757,0.07778 -0.11405,0.12269 -0.19646,0.12485c-0.04044,0.00106 -0.08231,-0.00818 -0.12176,-0.02892l-0.66999,-0.35241l0.12979,0.54285c0.00889,0.13046 -0.08869,0.23451 -0.21841,0.2379c-0.00146,0.00004 -0.00289,0.00008 -0.00435,0.00012c-0.13169,0.00345 -0.24583,-0.10208 -0.25484,-0.23401l0.02414,-0.87489l-0.34923,-0.18366l0.02129,0.40812c0.00678,0.12921 -0.0131,0.0075 -0.14107,0.01085c-0.00273,0.00007 -0.00576,0.00012 -0.0085,0.00009c-0.13201,-0.00101 -0.24527,-0.10873 -0.25219,-0.24068l-0.11341,-0.43675l-0.76038,-0.66535l-0.80933,0.50316l0.07631,0.88753l0.62411,0.24273c0.1254,0.0491 0.19717,0.1881 0.15538,0.31056c-0.0418,0.12247 -0.17994,0.182 -0.30538,0.13288l-0.42938,-0.16593l0.03558,0.41385l0.80309,0.52042c0.1224,0.05709 0.18504,0.19974 0.13503,0.31865c-0.04993,0.11898 -0.19235,0.16921 -0.31469,0.11206l-0.57728,-0.41437l-0.10683,0.82573c0.01134,0.13193 -0.0862,0.24163 -0.21792,0.24508c-0.13172,0.00345 -0.07561,-0.16802 -0.08696,-0.29995l-0.06346,-0.73821l-0.63724,0.3914c-0.03485,0.02124 -0.06903,0.03181 -0.1081,0.03283c-0.0839,0.0022 -0.17042,-0.04007 -0.22071,-0.11765c-0.0737,-0.11373 -0.04718,-0.26006 0.06251,-0.32699l0.8566,-0.52562l-0.03309,-0.38481l-0.33824,0.20123c-0.03409,0.02005 -0.06708,0.03001 -0.10495,0.031c-0.08527,0.00223 -0.17296,-0.0415 -0.22282,-0.12098c-0.072,-0.11474 -0.04311,-0.26048 0.06776,-0.32559l0.5517,-0.32699l-0.07922,-0.92148l-0.84017,-0.44636l-0.7531,0.48223l0.07921,0.66181c0.01575,0.13172 -0.07785,0.24486 -0.2091,0.25276c-0.00269,0.00017 -0.00546,0.00027 -0.00816,0.00034c-0.12797,0.00335 -0.24256,-0.09556 -0.25801,-0.22458l-0.04876,-0.40741l-0.31618,0.20111l0.34775,0.93144c0.01369,0.13181 -0.08185,0.24282 -0.21354,0.24626c-0.00143,0.00004 -0.0029,0.00008 -0.00433,0.00011c-0.12972,0.00339 -0.2447,-0.09503 -0.25824,-0.22543l-0.07976,-0.76833l-0.60659,0.38583c-0.03565,0.0227 -0.07581,0.03409 -0.11625,0.03515c-0.08241,0.00216 -0.16625,-0.03857 -0.21699,-0.11404c-0.07567,-0.11251 -0.04915,-0.25959 0.05922,-0.32853l0.62411,-0.39699l-0.50818,-0.18722c-0.1168,-0.06869 -0.16124,-0.2153 -0.09929,-0.32799c0.06195,-0.11269 0.20685,-0.14808 0.32358,-0.07948l0.48346,0.41606l0.33996,-0.21626l-0.17726,-0.02641c-0.11242,-0.07599 -0.14725,-0.22501 -0.07772,-0.33289c0.06959,-0.10788 0.21703,-0.13372 0.32942,-0.0578l0.35308,0.14522l0.73965,-0.47045l-0.08386,-0.9579l-0.61138,-0.19784l-0.53144,0.36517c-0.03709,0.02555 -0.07972,0.03835 -0.12276,0.03947c-0.07961,0.00209 -0.16084,-0.03579 -0.21227,-0.10727c-0.07929,-0.11014 -0.05779,-0.25832 0.048,-0.33098l0.32714,-0.22479l-0.34926,-0.18366l-0.84078,0.55722c-0.03645,0.02412 -0.07788,0.03629 -0.11972,0.03739c-0.08088,0.00212 -0.16338,-0.0371 -0.21452,-0.11044c-0.0776,-0.11127 -0.05375,-0.25896 0.05327,-0.3299l0.62617,-0.41494l-0.67006,-0.35241c-0.11971,-0.06296 -0.17134,-0.20801 -0.11532,-0.32396c0.056,-0.11598 0.1984,-0.15891 0.31821,-0.09594l0.68829,0.36202l-0.02886,-0.80196c-0.00478,-0.13191 0.09919,-0.2365 0.23054,-0.23314c0.13213,0.00312 0.24303,0.11259 0.24778,0.2445l0.03768,1.04685l0.37554,0.19756l0.01338,-0.44436c0.004,-0.13141 0.11413,-0.22876 0.24613,-0.21645c0.13211,0.01183 0.23531,0.12801 0.23131,0.25942l-0.02105,0.64982l0.83781,0.22728l0.4415,-0.29636l0.12339,-0.69381l-0.60663,-0.29668c-0.12154,-0.05906 -0.17399,-0.20267 -0.12199,-0.32065c0.05193,-0.11798 0.18995,-0.16577 0.31149,-0.10671l0.37059,0.18269l-0.03308,-0.3848l-0.94427,-0.47851c-0.12069,-0.06086 -0.17087,-0.20522 -0.11699,-0.32229c0.05392,-0.11708 0.19279,-0.16262 0.31345,-0.10162l0.70086,0.35642l-0.06347,-0.73821c-0.01134,-0.13193 0.0862,-0.24162 0.21792,-0.24507c0.13172,-0.00345 0.24764,0.10066 0.25899,0.23259l0.0652,0.75834l0.68509,-0.38455c0.11202,-0.06325 0.26365,-0.02072 0.33384,0.09509c0.07019,0.11581 0.03359,0.26102 -0.07843,0.32424l-0.89432,0.50198l0.03558,0.41388l0.39765,-0.18756c0.11651,-0.05542 0.26553,-0.00338 0.32811,0.1163c0.06262,0.11971 0.01636,0.26179 -0.10006,0.31724l-0.58097,0.27426l-0.12636,0.65926l0.88178,0.46451l0.7394,-0.46703l-0.25921,-0.77026c-0.02656,-0.13061 0.05697,-0.25165 0.18646,-0.27032c0.12926,-0.01908 0.25595,0.07203 0.28244,0.20264l0.08966,0.44167l0.34008,-0.21629l-0.14209,-1.04411c-0.0179,-0.13157 0.07371,-0.24637 0.20468,-0.25638c0.13149,-0.01065 0.25163,0.0885 0.26954,0.22003l0.10886,0.79993l0.62309,-0.39629c0.10832,-0.06884 0.25757,-0.03362 0.33324,0.07889c0.07567,0.11251 0.04915,0.2596 -0.05922,0.32853l-0.60649,0.38577l0.69454,0.38039c0.11872,0.06504 0.16783,0.21082 0.10967,0.32564c-0.03836,0.07569 -0.11373,0.11903 -0.19464,0.12114c-0.04184,0.00109 -0.08513,-0.00879 -0.12559,-0.03096l-0.93264,-0.51086l-0.31615,0.20111l0.36427,0.2067c0.11775,0.06681 0.16456,0.2132 0.10456,0.32699c-0.03893,0.07385 0.0148,0.24015 -0.06481,0.24223c-0.04305,0.00113 -0.08767,-0.00939 -0.12898,-0.03288l-0.59177,-0.33578l-0.74557,0.47418l0.08335,0.94945l0.82301,0.43286l0.48896,-0.40303c0.09887,-0.08158 0.25017,-0.06343 0.33786,0.04028c0.08772,0.10376 0.07864,0.25394 -0.0202,0.33545l-0.3344,0.27563l0.37506,0.19725l0.82962,-0.59105c0.10443,-0.07442 0.25483,-0.04636 0.3358,0.06258c0.081,0.10892 0.06195,0.25768 -0.04251,0.33213l-0.80725,0.5202l0.68835,0.36202c0.11972,0.06299 0.17135,0.20804 0.11532,0.32396z" fill="url(#color-3)" stroke="none" stroke-width="0" stroke-linecap="butt"/><path d="M205.78593,302.45479c-0.06234,0.12904 -0.18922,0.20357 -0.32595,0.20715c-0.0671,0.00176 -0.13656,-0.01356 -0.20201,-0.04797l-1.11162,-0.5847l0.21535,0.90067c0.01475,0.21645 -0.14714,0.38909 -0.36237,0.39472c-0.00242,0.00006 -0.0048,0.00013 -0.00723,0.00019c-0.21849,0.00572 -0.40786,-0.16937 -0.42282,-0.38826l0.04004,-1.45158l-0.57942,-0.30472l0.03533,0.67713c0.01124,0.21438 -0.02174,0.01245 -0.23406,0.018c-0.00454,0.00012 -0.00956,0.0002 -0.0141,0.00016c-0.21902,-0.00168 -0.40695,-0.18041 -0.41842,-0.39932l-0.18817,-0.72464l-1.26159,-1.10392l-1.3428,0.83482l0.1266,1.47254l1.03549,0.40272c0.20806,0.08146 0.32714,0.31209 0.2578,0.51527c-0.06934,0.20319 -0.29855,0.30197 -0.50667,0.22047l-0.7124,-0.27531l0.05903,0.68664l1.33244,0.86345c0.20308,0.09472 0.30699,0.3314 0.22403,0.52869c-0.08284,0.19741 -0.31914,0.28074 -0.52211,0.18592l-0.95779,-0.68749l-0.17725,1.37c0.01882,0.21889 -0.14301,0.4009 -0.36156,0.40662c-0.21855,0.00572 -0.12545,-0.27878 -0.14427,-0.49767l-0.1053,-1.2248l-1.05727,0.64938c-0.05782,0.03524 -0.11452,0.05278 -0.17935,0.05447c-0.13921,0.00364 -0.28275,-0.06648 -0.3662,-0.1952c-0.12228,-0.1887 -0.07827,-0.43148 0.10372,-0.54252l1.42122,-0.87209l-0.0549,-0.63845l-0.5612,0.33388c-0.05657,0.03326 -0.1113,0.04979 -0.17412,0.05143c-0.14148,0.0037 -0.28697,-0.06886 -0.36968,-0.20072c-0.11946,-0.19037 -0.07152,-0.43217 0.11243,-0.54019l0.91535,-0.54252l-0.13144,-1.52886l-1.39397,-0.74057l-1.24949,0.80009l0.13141,1.09804c0.02613,0.21854 -0.12916,0.40625 -0.34693,0.41936c-0.00447,0.00027 -0.00907,0.00045 -0.01355,0.00056c-0.21232,0.00555 -0.40243,-0.15855 -0.42808,-0.3726l-0.08089,-0.67594l-0.5246,0.33366l0.57697,1.5454c0.02271,0.21868 -0.13581,0.40287 -0.3543,0.40859c-0.00237,0.00006 -0.00481,0.00012 -0.00718,0.00018c-0.21522,0.00563 -0.40599,-0.15767 -0.42846,-0.37403l-0.13233,-1.27476l-1.00641,0.64016c-0.05916,0.03767 -0.12578,0.05656 -0.19288,0.05832c-0.13673,0.00358 -0.27583,-0.064 -0.36003,-0.18921c-0.12554,-0.18666 -0.08155,-0.43071 0.09826,-0.54508l1.03549,-0.65866l-0.84314,-0.31062c-0.19378,-0.11397 -0.26751,-0.35721 -0.16474,-0.54418c0.10278,-0.18697 0.34319,-0.24568 0.53686,-0.13187l0.80214,0.6903l0.56404,-0.3588l-0.29411,-0.04381c-0.18651,-0.12608 -0.24431,-0.37333 -0.12895,-0.55231c0.11546,-0.17898 0.36008,-0.22186 0.54655,-0.0959l0.58582,0.24095l1.22719,-0.78055l-0.13913,-1.58929l-1.01437,-0.32824l-0.88174,0.60587c-0.06155,0.04238 -0.13226,0.06363 -0.20368,0.06549c-0.13208,0.00347 -0.26686,-0.05938 -0.35219,-0.17798c-0.13155,-0.18274 -0.09589,-0.42858 0.07963,-0.54914l0.54277,-0.37295l-0.57947,-0.30472l-1.39498,0.9245c-0.06048,0.04003 -0.12921,0.06021 -0.19864,0.06203c-0.13419,0.00351 -0.27107,-0.06155 -0.35591,-0.18324c-0.12874,-0.18461 -0.08918,-0.42964 0.08838,-0.54735l1.03892,-0.68845l-1.11173,-0.5847c-0.19862,-0.10447 -0.28429,-0.34512 -0.19134,-0.53749c0.0929,-0.19243 0.32917,-0.26365 0.52796,-0.15918l1.14196,0.60064l-0.04789,-1.33057c-0.00793,-0.21886 0.16458,-0.3924 0.3825,-0.38682c0.21921,0.00518 0.40323,0.1868 0.4111,0.40567l0.06251,1.73687l0.62308,0.32779l0.02221,-0.73726c0.00663,-0.21803 0.18936,-0.37955 0.40836,-0.35912c0.2192,0.01963 0.39041,0.21239 0.38378,0.43042l-0.03493,1.07815l1.39005,0.37709l0.73251,-0.4917l0.20473,-1.15113l-1.00649,-0.49224c-0.20165,-0.09798 -0.28867,-0.33626 -0.20241,-0.53201c0.08617,-0.19575 0.31515,-0.27503 0.51681,-0.17705l0.61486,0.30311l-0.05489,-0.63844l-1.56668,-0.79392c-0.20023,-0.10098 -0.28351,-0.34049 -0.1941,-0.53473c0.08946,-0.19424 0.31986,-0.2698 0.52006,-0.1686l1.16284,0.59135l-0.10531,-1.22481c-0.01882,-0.21889 0.14301,-0.40089 0.36156,-0.40661c0.21855,-0.00572 0.41088,0.16702 0.4297,0.38591l0.10817,1.2582l1.13666,-0.63802c0.18586,-0.10494 0.43743,-0.03437 0.55388,0.15778c0.11645,0.19215 0.05574,0.43307 -0.13012,0.53796l-1.4838,0.83286l0.05904,0.68668l0.65975,-0.3112c0.19331,-0.09195 0.44055,-0.0056 0.54439,0.19296c0.10389,0.19862 0.02714,0.43435 -0.16602,0.52636l-0.96391,0.45504l-0.20966,1.09382l1.463,0.77068l1.22678,-0.77487l-0.43008,-1.27797c-0.04407,-0.21669 0.09453,-0.41752 0.30937,-0.4485c0.21446,-0.03166 0.42465,0.11951 0.46861,0.33622l0.14877,0.73279l0.56424,-0.35886l-0.23575,-1.73233c-0.02971,-0.21829 0.12229,-0.40877 0.33959,-0.42536c0.21815,-0.01768 0.4175,0.14683 0.44721,0.36506l0.18061,1.3272l1.0338,-0.6575c0.17972,-0.11422 0.42735,-0.05577 0.55289,0.13089c0.12554,0.18666 0.08155,0.43071 -0.09826,0.54508l-1.00626,0.64005l1.15234,0.63112c0.19697,0.1079 0.27845,0.34979 0.18196,0.54029c-0.06364,0.12558 -0.18869,0.19748 -0.32294,0.20099c-0.06943,0.00182 -0.14124,-0.01458 -0.20838,-0.05137l-1.54739,-0.84759l-0.52453,0.33366l0.60437,0.34295c0.19537,0.11086 0.27304,0.35373 0.17348,0.54252c-0.06459,0.12252 0.02456,0.39844 -0.10753,0.4019c-0.07143,0.00187 -0.14546,-0.01558 -0.214,-0.05456l-0.98184,-0.55712l-1.23701,0.78673l0.1383,1.57528l1.36549,0.71817l0.81126,-0.66868c0.16405,-0.13535 0.41508,-0.10523 0.56056,0.06682c0.14554,0.17215 0.13048,0.42132 -0.03352,0.55657l-0.55482,0.4573l0.62228,0.32727l1.37646,-0.98064c0.17326,-0.12347 0.4228,-0.07693 0.55713,0.10384c0.13439,0.18071 0.10278,0.42754 -0.07052,0.55106l-1.33935,0.86309l1.14208,0.60064c0.19863,0.10452 0.28429,0.34517 0.19133,0.53749z" fill="url(#color-4)" stroke="none" stroke-width="0" stroke-linecap="butt"/><path d="M210.76664,289.06201c-0.01775,0.09421 -0.08669,0.16446 -0.17437,0.19062c-0.04302,0.01284 -0.09056,0.01506 -0.13882,0.00425l-0.81985,-0.18373l0.29615,0.5441c0.04727,0.13721 -0.02717,0.27693 -0.16518,0.3181c-0.00155,0.00046 -0.00308,0.00093 -0.00463,0.00139c-0.14011,0.0418 -0.29294,-0.03825 -0.34077,-0.177l-0.22729,-0.94441l-0.42733,-0.09574l0.14091,0.43113c0.04465,0.13649 -0.01187,0.01183 -0.14802,0.05244c-0.00291,0.00087 -0.00614,0.0018 -0.00908,0.00256c-0.14174,0.03712 -0.29427,-0.04554 -0.33986,-0.18491l-0.2479,-0.43516l-1.00726,-0.49289l-0.72158,0.77331l0.33857,0.92889l0.73895,0.07949c0.14857,0.01632 0.2657,0.14449 0.25635,0.2878c-0.00935,0.14331 -0.14014,0.24708 -0.28876,0.23074l-0.50808,-0.05355l0.15787,0.43313l1.01108,0.32524c0.14767,0.02575 0.25605,0.16048 0.23688,0.30236c-0.01907,0.14193 -0.15714,0.23696 -0.30476,0.21112l-0.73844,-0.27694l0.12445,0.91566c0.05033,0.13808 -0.02244,0.28384 -0.16258,0.32565c-0.14014,0.04181 -0.12963,-0.15816 -0.17996,-0.29623l-0.2816,-0.77261l-0.56954,0.60376c-0.03119,0.03284 -0.06476,0.05406 -0.10633,0.06646c-0.08927,0.02663 -0.19419,0.00637 -0.27053,-0.0622c-0.11188,-0.10054 -0.1258,-0.265 -0.02763,-0.36844l0.76573,-0.81105l-0.1468,-0.40274l-0.30419,0.31349c-0.03073,0.03134 -0.06319,0.05156 -0.10348,0.06358c-0.09072,0.02706 -0.19733,0.00558 -0.27375,-0.06515c-0.11035,-0.10211 -0.12155,-0.26663 -0.0216,-0.36847l0.49652,-0.51l-0.35151,-0.96441l-1.02938,-0.23515l-0.66739,0.73461l0.27636,0.68619c0.05499,0.13658 -0.01256,0.28488 -0.15091,0.33133c-0.00284,0.00096 -0.00578,0.00187 -0.00865,0.00273c-0.13615,0.04061 -0.28755,-0.03221 -0.34144,-0.16597l-0.17012,-0.42242l-0.28059,0.30697l0.64212,0.8974c0.05281,0.13727 -0.01744,0.28386 -0.15755,0.32566c-0.00152,0.00045 -0.00308,0.00092 -0.00461,0.00137c-0.13801,0.04117 -0.28969,-0.03102 -0.34193,-0.16683l-0.30777,-0.80016l-0.5383,0.58893c-0.03163,0.03464 -0.07137,0.05846 -0.11439,0.0713c-0.08767,0.02616 -0.18929,0.00677 -0.2655,-0.0594c-0.11363,-0.09865 -0.12778,-0.26393 -0.0316,-0.36915l0.55385,-0.60595l-0.59867,-0.05355c-0.14502,-0.0398 -0.23506,-0.18404 -0.20129,-0.32271c0.03376,-0.13867 0.17879,-0.21851 0.32371,-0.17879l0.63841,0.30591l0.30169,-0.33008l-0.19758,0.023c-0.14244,-0.04889 -0.22288,-0.19849 -0.17959,-0.33419c0.04335,-0.13572 0.19385,-0.20607 0.33623,-0.15725l0.42034,0.05344l0.65639,-0.7181l-0.36701,-1.0021l-0.71232,-0.03507l-0.46376,0.54504c-0.03235,0.03811 -0.07432,0.06416 -0.12012,0.07782c-0.0847,0.02528 -0.18269,0.00819 -0.25848,-0.05352c-0.11683,-0.09507 -0.13667,-0.26005 -0.04434,-0.36852l0.28548,-0.33551l-0.42736,-0.09573l-0.73965,0.84032c-0.03207,0.03639 -0.07295,0.06142 -0.11746,0.0747c-0.08605,0.02567 -0.18579,0.00753 -0.2618,-0.05626c-0.11534,-0.09677 -0.13252,-0.26191 -0.03838,-0.36889l0.55087,-0.62579l-0.81992,-0.18372c-0.14648,-0.03283 -0.24378,-0.1733 -0.2173,-0.31374c0.02644,-0.14047 0.1666,-0.22767 0.31319,-0.19487l0.84223,0.18873l-0.26298,-0.85093c-0.04329,-0.13996 0.03785,-0.28211 0.17956,-0.31652c0.14247,-0.03489 0.29298,0.05032 0.33624,0.19029l0.34327,1.11077l0.45955,0.10302l-0.11423,-0.47999c-0.03374,-0.14196 0.05609,-0.27814 0.20108,-0.30314c0.14498,-0.02555 0.28916,0.06907 0.32291,0.21103l0.16547,0.70236l0.96346,0.0011l0.38731,-0.44529l-0.06854,-0.77911l-0.73584,-0.14236c-0.14732,-0.02811 -0.24506,-0.16681 -0.2235,-0.30828c0.02151,-0.14145 0.15556,-0.23258 0.30288,-0.20447l0.44994,0.08852l-0.14679,-0.40273l-1.15022,-0.23948c-0.14692,-0.0303 -0.24247,-0.17044 -0.21861,-0.31147c0.0239,-0.14104 0.15951,-0.23002 0.30645,-0.19958l0.85409,0.1791l-0.28161,-0.77261c-0.05033,-0.13808 0.02244,-0.28384 0.16258,-0.32564c0.14014,-0.04181 0.29447,0.0362 0.34481,0.17428l0.28928,0.79368l0.62279,-0.61027c0.10172,-0.10018 0.2765,-0.09848 0.38521,0.0053c0.10871,0.10378 0.11152,0.26996 0.00979,0.37011l-0.81299,0.79663l0.15788,0.43316l0.37179,-0.31603c0.1088,-0.09309 0.28353,-0.08045 0.38522,0.02967c0.10173,0.11015 0.09328,0.27577 -0.01542,0.36888l-0.54313,0.46196l0.05536,0.74295l1.07921,0.24256l0.65712,-0.71436l-0.50062,-0.75031c-0.06625,-0.13226 -0.01177,-0.28612 0.12158,-0.3436c0.13298,-0.05785 0.29508,0.00312 0.36126,0.1354l0.22387,0.44729l0.30181,-0.33015l-0.45436,-1.07762c-0.05725,-0.13579 0.00768,-0.28531 0.14512,-0.33392c0.1378,-0.04946 0.29523,0.02201 0.35247,0.15777l0.3481,0.82561l0.55296,-0.60491c0.09614,-0.1051 0.26626,-0.11055 0.37988,-0.01189c0.11363,0.09865 0.12778,0.26393 0.0316,0.36915l-0.53822,0.58883l0.85425,0.20661c0.14602,0.03533 0.24082,0.17733 0.21174,0.31719c-0.0192,0.0922 -0.08741,0.16044 -0.1735,0.18612c-0.04452,0.01328 -0.09376,0.01522 -0.14353,0.00317l-1.14712,-0.27751l-0.28055,0.30695l0.45011,0.11607c0.14551,0.03752 0.23802,0.18082 0.20665,0.32011c-0.02034,0.09039 0.08534,0.25303 0.00065,0.2783c-0.0458,0.01366 -0.09665,0.0153 -0.14771,0.00208l-0.73123,-0.18855l-0.66165,0.7238l0.36404,0.9932l1.00708,0.22565l0.40729,-0.57331c0.08234,-0.11602 0.24971,-0.14035 0.37366,-0.05461c0.12401,0.0858 0.15774,0.24933 0.07541,0.36528l-0.27855,0.39209l0.45894,0.10283l0.7179,-0.87335c0.09036,-0.10995 0.25963,-0.12342 0.37791,-0.03011c0.1183,0.09326 0.14094,0.25818 0.05056,0.36818l-0.71443,0.79096l0.84231,0.18872c0.14651,0.03286 0.24379,0.17333 0.2173,0.31374z" fill="url(#color-5)" stroke="none" stroke-width="0" stroke-linecap="butt"/></g></g></svg>