<svg version="1.1" xmlns="http://www.w3.org/2000/svg" xmlns:xlink="http://www.w3.org/1999/xlink" width="46.60004" height="47.96142" viewBox="0,0,46.60004,47.96142"><g transform="translate(-157.84607,-252.8461)"><g data-paper-data="{&quot;isPaintingLayer&quot;:true}" fill-rule="nonzero" stroke-linecap="butt" stroke-linejoin="miter" stroke-miterlimit="10" stroke-dasharray="" stroke-dashoffset="0" style="mix-blend-mode: normal"><path d="M160.59607,298.05753v-42.46142h36.83731c2.35424,0 4.26273,1.90849 4.26273,4.26273v33.93596c0,2.35424 -1.90849,4.26273 -4.26273,4.26273z" data-paper-data="{&quot;index&quot;:null}" fill="none" stroke-opacity="0.19608" stroke="#000000" stroke-width="5.5"/><path d="M160.59607,298.05751v-42.46142h36.83731c2.35424,0 4.26273,1.90849 4.26273,4.26273v33.93596c0,2.35424 -1.90849,4.26273 -4.26273,4.26273z" data-paper-data="{&quot;index&quot;:null}" fill="#676767" stroke="none" stroke-width="0"/><g data-paper-data="{&quot;index&quot;:null}" fill="none" stroke="#ffffff" stroke-width="1.5"><path d="M169.42584,273.40112c0,-0.76121 0.59423,-1.38041 1.32475,-1.38041h2.40743c0.38695,0 0.70575,-0.22197 0.85395,-0.59438c0.1482,-0.37241 0.0729,-0.76469 -0.20015,-1.04971l-1.70216,-1.77319c-0.25018,-0.26069 -0.3879,-0.60778 -0.3879,-0.97622c0,-0.36894 0.13772,-0.71553 0.3879,-0.97672l2.16965,-2.26081c0.50035,-0.52138 1.37288,-0.52238 1.87419,0l1.70169,1.77319c0.27352,0.28452 0.65093,0.36397 1.00738,0.20905c0.3574,-0.15443 0.5704,-0.48662 0.5704,-0.88982v-2.50858c0,-0.76122 0.59424,-1.38042 1.32476,-1.38042h3.06886c0.73053,0 1.32476,0.61921 1.32476,1.38042v2.50858c0,0.4032 0.213,0.73539 0.5704,0.88982c0.35644,0.15542 0.73385,0.07547 1.00738,-0.20905l1.70169,-1.77319c0.50131,-0.52238 1.37383,-0.52138 1.87419,0l2.16965,2.26081c0.25018,0.26069 0.3879,0.60778 0.3879,0.97672c0,0.36844 -0.13772,0.71503 -0.3879,0.97622l-1.70216,1.77319c-0.27305,0.28501 -0.34788,0.6773 -0.20015,1.04971c0.14773,0.37242 0.46701,0.59438 0.85395,0.59438h2.40743c0.73052,0 1.32475,0.6192 1.32475,1.38041v3.19731c0,0.76171 -0.59423,1.38091 -1.32475,1.38091h-2.40743c-0.38695,0 -0.70575,0.22197 -0.85395,0.59438c-0.1482,0.37241 -0.0729,0.76469 0.20015,1.04971l1.70216,1.77319c0.25018,0.26069 0.3879,0.60778 0.3879,0.97622c0,0.36894 -0.13772,0.71553 -0.3879,0.97672l-2.16965,2.26081c-0.50083,0.52188 -1.37288,0.52287 -1.87419,0l-1.70169,-1.77369c-0.27352,-0.28452 -0.6495,-0.36298 -1.00738,-0.20855c-0.3574,0.15443 -0.5704,0.48662 -0.5704,0.88982v2.50858c0,0.76122 -0.59424,1.38042 -1.32476,1.38042h-3.06838c-0.73052,0 -1.32475,-0.61921 -1.32475,-1.38042v-2.50858c0,-0.4032 -0.21301,-0.73539 -0.57041,-0.88982c-0.35787,-0.15493 -0.73385,-0.07597 -1.00738,0.20855l-1.70169,1.77369c-0.50131,0.52238 -1.37383,0.52138 -1.87419,0l-2.16965,-2.26081c-0.25018,-0.26069 -0.3879,-0.60778 -0.3879,-0.97672c0,-0.36844 0.13772,-0.71503 0.3879,-0.97622l1.70217,-1.77319c0.27305,-0.28501 0.34787,-0.6773 0.20014,-1.04971c-0.14773,-0.37242 -0.46748,-0.59438 -0.85442,-0.59438h-2.40743c-0.73052,0 -1.32475,-0.6192 -1.32475,-1.38041v-3.1978zM170.37891,276.59895c0,0.21352 0.16678,0.38731 0.37169,0.38731h2.40743c0.77389,0 1.43865,0.46279 1.73458,1.20762c0.2964,0.74483 0.14058,1.56216 -0.40696,2.1322l-1.70217,1.77319c-0.14534,0.15145 -0.14534,0.39724 0,0.54819l2.16965,2.26081c0.14486,0.15095 0.38075,0.15195 0.52609,0l1.70169,-1.77369c0.54754,-0.57054 1.33142,-0.73192 2.04622,-0.42406c0.7148,0.30836 1.15893,1.00105 1.15893,1.80745v2.50858c0,0.21352 0.16678,0.38731 0.37169,0.38731h3.06886c0.20491,0 0.37169,-0.17379 0.37169,-0.38731v-2.50858c0,-0.8064 0.44413,-1.49909 1.15893,-1.80745c0.23969,-0.10378 0.48653,-0.15443 0.73052,-0.15443c0.4832,0 0.95163,0.19862 1.3157,0.57799l1.70169,1.77369c0.14582,0.15195 0.3817,0.15095 0.52609,0l2.16965,-2.26081c0.14534,-0.15145 0.14534,-0.39724 0,-0.54819l-1.70217,-1.77319c-0.54706,-0.57004 -0.70336,-1.38737 -0.40696,-2.1322c0.29593,-0.74434 0.96069,-1.20712 1.73458,-1.20712h2.40743c0.20491,0 0.37169,-0.17379 0.37169,-0.38731v-3.1978c0,-0.21352 -0.16678,-0.38731 -0.37169,-0.38731h-2.40743c-0.77389,0 -1.43865,-0.46279 -1.73458,-1.20762c-0.2964,-0.74483 -0.14058,-1.56216 0.40696,-2.1322l1.70217,-1.77319c0.14534,-0.15145 0.14534,-0.39724 0,-0.54819l-2.16965,-2.26081c-0.14486,-0.15145 -0.38075,-0.15145 -0.52609,0l-1.70169,1.77319c-0.54658,0.56955 -1.33047,0.73291 -2.04622,0.42406c-0.7148,-0.30787 -1.15893,-1.00056 -1.15893,-1.80696v-2.50858c0,-0.21352 -0.16678,-0.38731 -0.37169,-0.38731h-3.06838c-0.20539,0 -0.37217,0.17379 -0.37217,0.38731v2.50858c0,0.8064 -0.44413,1.49909 -1.15893,1.80745c-0.71575,0.30885 -1.49916,0.14598 -2.04622,-0.42406l-1.70169,-1.77319c-0.14582,-0.15145 -0.3817,-0.15145 -0.52609,0l-2.16965,2.26081c-0.14534,0.15145 -0.14534,0.39724 0,0.54819l1.70217,1.77319c0.54706,0.57004 0.70336,1.38737 0.40696,2.1322c-0.29593,0.74483 -0.96069,1.20761 -1.73458,1.20761h-2.40743c-0.20491,-0.00049 -0.37169,0.1733 -0.37169,0.38682z"/><path d="M170.32936,273.39446c0,-0.21352 0.16706,-0.38914 0.37197,-0.38864l2.40785,-0.00214c0.77389,0 1.4416,-0.47198 1.73753,-1.21681c0.2964,-0.74482 0.1447,-1.57052 -0.40236,-2.14056l-1.70093,-1.77492c-0.14534,-0.15095 -0.14424,-0.39817 0.0011,-0.54962l2.17885,-2.26965c0.14439,-0.15145 0.3817,-0.15247 0.52752,-0.00102l1.70342,1.77205c0.54706,0.57005 1.3386,0.72878 2.05435,0.41993c0.71479,-0.30836 1.16757,-1.00361 1.16757,-1.81001l0.00199,-2.50894c0,-0.21352 0.16848,-0.38755 0.37387,-0.38755h3.08064c0.20491,0 0.37338,0.17402 0.37338,0.38754l0.00199,2.50894c0,0.8064 0.45277,1.50166 1.16757,1.80952c0.71575,0.30885 1.50777,0.14962 2.05435,-0.41993l1.70342,-1.77205c0.14534,-0.15145 0.38265,-0.15043 0.52752,0.00102l2.17884,2.26965c0.14534,0.15096 0.14644,0.39817 0.0011,0.54962l-1.70093,1.77492c-0.54754,0.57004 -0.69876,1.39573 -0.40236,2.14056c0.29593,0.74483 0.96364,1.21681 1.73753,1.21681l2.40785,0.00214c0.20491,0 0.37197,0.17562 0.37197,0.38914v3.2111c0,0.21352 -0.16706,0.38914 -0.37197,0.38914l-2.40785,0.00214c-0.77389,0 -1.4416,0.47198 -1.73753,1.21631c-0.2964,0.74482 -0.1447,1.57052 0.40236,2.14056l1.70093,1.77492c0.14534,0.15095 0.14424,0.39817 -0.0011,0.54962l-2.17885,2.26965c-0.14439,0.15095 -0.3817,0.15297 -0.52752,0.00102l-1.70342,-1.77256c-0.36407,-0.37937 -0.83666,-0.57564 -1.31986,-0.57564c-0.24398,0 -0.49479,0.05243 -0.73449,0.15621c-0.71479,0.30836 -1.16757,1.00361 -1.16757,1.81001l-0.00199,2.50894c0,0.21352 -0.16847,0.38754 -0.37338,0.38754h-3.08113c-0.20491,0 -0.37338,-0.17402 -0.37338,-0.38754l-0.00199,-2.50894c0,-0.8064 -0.45277,-1.50165 -1.16757,-1.81001c-0.7148,-0.30786 -1.50681,-0.15061 -2.05435,0.41993l-1.70342,1.77255c-0.14534,0.15194 -0.38265,0.14993 -0.52752,-0.00102l-2.17884,-2.26965c-0.14534,-0.15096 -0.14644,-0.39817 -0.0011,-0.54962l1.70093,-1.77492c0.54754,-0.57004 0.69876,-1.39573 0.40236,-2.14056c-0.29593,-0.74483 -0.96364,-1.21681 -1.73753,-1.21681l-2.40785,-0.00214c-0.20491,0 -0.37197,-0.17562 -0.37197,-0.38914z" data-paper-data="{&quot;noHover&quot;:false,&quot;origItem&quot;:[&quot;Path&quot;,{&quot;applyMatrix&quot;:true,&quot;segments&quot;:[[[383.82653,546.8022],[0,0],[0,-0.42704]],[[383.08314,546.02857],[0.40982,-0.00099],[0,0]],[[378.26828,546.02857],[0,0],[-1.54777,0]],[[374.79913,543.61334],[0.59185,1.48966],[-0.5928,-1.48966]],[[375.61305,539.34894],[-1.09411,1.14009],[0,0]],[[379.01738,535.80256],[0,0],[0.29068,-0.3019]],[[379.01738,534.70617],[0.29068,0.3029],[0,0]],[[374.67809,530.18456],[0,0],[-0.28878,-0.3029]],[[373.62591,530.18456],[0.29164,-0.3029],[0,0]],[[370.22253,533.73094],[0,0],[-1.09411,1.14009]],[[366.13009,534.57905],[1.4315,0.61771],[-1.42959,-0.61672]],[[363.81224,530.96415],[0,1.6128],[0,0]],[[363.81224,525.94698],[0,0],[0,-0.42704]],[[363.0679,525.17236],[0.41077,0],[0,0]],[[356.93114,525.17236],[0,0],[-0.40982,0]],[[356.18776,525.94698],[0,-0.42704],[0,0]],[[356.18776,530.96415],[0,0],[0,1.6128]],[[353.86991,534.57806],[1.42959,-0.61573],[-1.4315,0.61771]],[[349.77747,533.72995],[1.09316,1.13909],[0,0]],[[346.37409,530.18357],[0,0],[-0.29068,-0.3029]],[[345.32191,530.18357],[0.28973,-0.3029],[0,0]],[[340.98262,534.70518],[0,0],[-0.29068,0.3019]],[[340.98262,535.80157],[-0.29068,-0.3029],[0,0]],[[344.38695,539.34795],[0,0],[1.09507,1.14009]],[[345.20087,543.61234],[0.5928,-1.48966],[-0.59185,1.48966]],[[341.73172,546.02758],[1.54777,0],[0,0]],[[336.91686,546.02758],[0,0],[-0.40982,0]],[[336.17347,546.8022],[0,-0.42704],[0,0]],[[336.17347,553.1978],[0,0],[0,0.42704]],[[336.91686,553.97242],[-0.40982,0],[0,0]],[[341.73172,553.97242],[0,0],[1.54777,0]],[[345.20087,556.38666],[-0.59185,-1.48867],[0.5928,1.48966]],[[344.38695,560.65106],[1.09411,-1.14009],[0,0]],[[340.98262,564.19744],[0,0],[-0.29068,0.3019]],[[340.98262,565.29383],[-0.29068,-0.3029],[0,0]],[[345.32191,569.81544],[0,0],[0.28878,0.3019]],[[346.37409,569.81544],[-0.29164,0.30389],[0,0]],[[349.77747,566.26806],[0,0],[0.72814,-0.75873]],[[352.40887,565.11209],[-0.9664,0],[0.48797,0]],[[353.86991,565.42095],[-0.47939,-0.20756],[1.42959,0.61672]],[[356.18776,569.03585],[0,-1.6128],[0,0]],[[356.18776,574.05302],[0,0],[0,0.42704]],[[356.93114,574.82764],[-0.40982,0],[0,0]],[[363.06886,574.82764],[0,0],[0.40982,0]],[[363.81224,574.05302],[0,0.42704],[0,0]],[[363.81224,569.03585],[0,0],[0,-1.6128]],[[366.13009,565.42095],[-1.42959,0.61672],[1.42959,-0.61573]],[[370.22253,566.26906],[-1.09507,-1.14108],[0,0]],[[373.62591,569.81643],[0,0],[0.29068,0.30389]],[[374.67809,569.81643],[-0.28973,0.3019],[0,0]],[[379.01738,565.29482],[0,0],[0.29068,-0.3019]],[[379.01738,564.19843],[0.29068,0.3029],[0,0]],[[375.61305,560.65205],[0,0],[-1.09507,-1.14009]],[[374.79913,556.38766],[-0.5928,1.48966],[0.59185,-1.48966]],[[378.26828,553.97242],[-1.54777,0],[0,0]],[[383.08314,553.97242],[0,0],[0.40982,0]],[[383.82653,553.1978],[0,0.42704],[0,0]]],&quot;closed&quot;:true,&quot;fillColor&quot;:[0,0,0,1]}]}"/><path d="M182.29217,270.53103c2.36501,0 4.28877,2.00459 4.28877,4.46898c0,2.46439 -1.92375,4.46898 -4.28877,4.46898c-2.36502,0 -4.28877,-2.00459 -4.28877,-4.46898c0,-2.46439 1.92375,-4.46898 4.28877,-4.46898zM182.29217,278.47587c1.83893,0 3.33571,-1.55967 3.33571,-3.47587c0,-1.9162 -1.49678,-3.47587 -3.33571,-3.47587c-1.83893,0 -3.33571,1.55967 -3.33571,3.47587c0,1.9162 1.49678,3.47587 3.33571,3.47587z"/><path d="M178.90646,275.00003c0,-1.9162 1.54679,-3.52587 3.38572,-3.52587c1.83893,0 3.38572,1.60967 3.38572,3.52587c0,1.9162 -1.54679,3.52587 -3.38572,3.52587c-1.83894,0 -3.38572,-1.60967 -3.38572,-3.52587z" data-paper-data="{&quot;noHover&quot;:false,&quot;origItem&quot;:[&quot;Path&quot;,{&quot;applyMatrix&quot;:true,&quot;segments&quot;:[[[366.67143,550],[0,3.83239],[0,-3.83239]],[[360,543.04826],[3.67786,0],[-3.67786,0]],[[353.32857,550],[0,-3.83239],[0,3.83239]],[[360,556.95174],[-3.67786,0],[3.67786,0]]],&quot;closed&quot;:true,&quot;fillColor&quot;:[0,0,0,1]}]}"/></g></g></g></svg>