<svg version="1.1" xmlns="http://www.w3.org/2000/svg" xmlns:xlink="http://www.w3.org/1999/xlink" width="45.54151" height="46.35573" viewBox="0,0,45.54151,46.35573"><defs><linearGradient x1="180.00003" y1="254.57215" x2="180.00003" y2="295.42788" gradientUnits="userSpaceOnUse" id="color-1"><stop offset="0" stop-color="#725249"/><stop offset="1" stop-color="#733e30"/></linearGradient></defs><g transform="translate(-157.22924,-251.82214)"><g data-paper-data="{&quot;isPaintingLayer&quot;:true}" fill-rule="nonzero" stroke-linecap="butt" stroke-miterlimit="10" stroke-dasharray="" stroke-dashoffset="0" style="mix-blend-mode: normal"><path d="M162.03818,275.70301c0,-7.8562 9.14688,-17.71321 9.14688,-17.71321l-2.36002,-3.41767l12.20443,2.13957l7.22766,1.42372l7.1285,-1.96449l-3.22441,4.14358l5.7673,1.94428l-3.67859,-0.1899c0,0 5.77083,8.28461 5.77083,13.63412c0,7.01339 -3.80169,13.13885 -9.45675,16.42803c-0.33744,0.19627 2.57834,1.79905 2.57834,1.79905c0,0 -4.83199,-0.6683 -5.46825,-0.43065c-0.17139,0.06403 -0.02728,1.92842 -0.02728,1.92842c0,0 -1.09855,-1.54503 -1.40754,-1.45708c-1.65548,0.47122 -3.4032,0.7235 -5.20982,0.7235c-6.68948,0 -12.45834,-3.40224 -15.84154,-8.62887c-0.34646,-0.53525 -5.20867,-3.61518 -5.20867,-3.61518c0,0 3.78235,1.17917 3.62196,0.80979c-1.00556,-2.31586 -1.56304,-4.87134 -1.56304,-7.55703z" fill="none" stroke="#ffffff" stroke-width="5.5" stroke-linejoin="round"/><path d="M162.03818,275.70301c0,-7.8562 9.14688,-17.71321 9.14688,-17.71321l-2.36002,-3.41767l12.20443,2.13957l7.22766,1.42372l7.1285,-1.96449l-3.22441,4.14358l5.7673,1.94428l-3.67859,-0.1899c0,0 5.77083,8.28461 5.77083,13.63412c0,7.01339 -3.80169,13.13885 -9.45675,16.42803c-0.33744,0.19627 2.57834,1.79905 2.57834,1.79905c0,0 -4.83199,-0.6683 -5.46825,-0.43065c-0.17139,0.06403 -0.02728,1.92842 -0.02728,1.92842c0,0 -1.09855,-1.54503 -1.40754,-1.45708c-1.65548,0.47122 -3.4032,0.7235 -5.20982,0.7235c-6.68948,0 -12.45834,-3.40224 -15.84154,-8.62887c-0.34646,-0.53525 -5.20867,-3.61518 -5.20867,-3.61518c0,0 3.78235,1.17917 3.62196,0.80979c-1.00556,-2.31586 -1.56304,-4.87134 -1.56304,-7.55703z" fill="url(#color-1)" stroke="#000000" stroke-width="0" stroke-linejoin="miter"/><path d="M167.34976,270.04816c0,-1.05143 0.85235,-1.90377 1.90377,-1.90377c1.05143,0 1.90379,0.85235 1.90379,1.90377c0,1.05143 -0.85236,1.90379 -1.90379,1.90379c-1.05143,0 -1.90377,-0.85236 -1.90377,-1.90379z" fill="#4e3832" stroke="none" stroke-width="0" stroke-linejoin="miter"/><path d="M174.31676,269.03553c0,-1.11855 0.90675,-2.02529 2.02529,-2.02529c1.11855,0 2.02529,0.90676 2.02529,2.02529c0,1.11855 -0.90675,2.02529 -2.02529,2.02529c-1.11855,0 -2.02529,-0.90675 -2.02529,-2.02529z" fill="#4e3832" stroke="none" stroke-width="0" stroke-linejoin="miter"/><path d="M171.96743,276.00252c0,-1.20801 0.97929,-2.18732 2.18731,-2.18732c1.20801,0 2.18732,0.97931 2.18732,2.18732c0,1.20801 -0.97931,2.18731 -2.18732,2.18731c-1.20801,0 -2.18731,-0.97929 -2.18731,-2.18731z" fill="#4e3832" stroke="none" stroke-width="0" stroke-linejoin="miter"/></g></g></svg>