<svg version="1.1" xmlns="http://www.w3.org/2000/svg" xmlns:xlink="http://www.w3.org/1999/xlink" width="59.6583" height="59.65831" viewBox="0,0,59.6583,59.65831"><defs><radialGradient cx="180" cy="275.00001" r="29.82915" gradientUnits="userSpaceOnUse" id="color-1"><stop offset="0" stop-color="#ff4f4f" stop-opacity="0.67451"/><stop offset="1" stop-color="#ad8736" stop-opacity="0.23922"/></radialGradient></defs><g transform="translate(-150.17085,-245.17085)"><g data-paper-data="{&quot;isPaintingLayer&quot;:true}" fill-rule="nonzero" stroke="none" stroke-width="0" stroke-linecap="butt" stroke-linejoin="miter" stroke-miterlimit="10" stroke-dasharray="" stroke-dashoffset="0" style="mix-blend-mode: normal"><path d="M150.17085,275c0,-16.47419 13.35497,-29.82915 29.82915,-29.82915c16.47418,0 29.82915,13.35497 29.82915,29.82915c0,16.47419 -13.35497,29.82916 -29.82915,29.82916c-16.47418,0 -29.82915,-13.35497 -29.82915,-29.82916z" fill="url(#color-1)"/><path d="M171.56315,285.6595l2.37206,-8.03697l-10.38917,-0.8047l9.47515,-3.34844l-5.55568,-5.82669l11.29073,-0.81663l4.72022,-5.69238l2.2236,6.25644l6.01502,-3.46873l-3.61909,5.89814l8.35796,2.17311l-7.66079,2.53199l2.34505,14.34171l-13.62248,-7.47205z" fill-opacity="0.32941" fill="#ff0000"/><path d="M175.50934,280.55503l1.26313,-4.2797l-5.53225,-0.4285l5.04553,-1.78305l-2.95841,-3.10272l6.01232,-0.43486l2.51352,-3.0312l1.18407,3.33156l3.203,-1.8471l-1.92717,3.14076l4.45062,1.15719l-4.07938,1.34829l1.24874,7.63698l-7.25399,-3.97887z" fill-opacity="0.32941" fill="#ffdb00"/></g></g></svg>