<svg version="1.1" xmlns="http://www.w3.org/2000/svg" xmlns:xlink="http://www.w3.org/1999/xlink" width="130.69665" height="109.57107" viewBox="0,0,130.69665,109.57107"><defs><linearGradient x1="138.99582" y1="251.47841" x2="136.59728" y2="268.52725" gradientUnits="userSpaceOnUse" id="color-1"><stop offset="0" stop-color="#48a943"/><stop offset="1" stop-color="#a99043"/></linearGradient><linearGradient x1="177.16493" y1="264.30892" x2="177.16493" y2="275.53951" gradientUnits="userSpaceOnUse" id="color-2"><stop offset="0" stop-color="#865342"/><stop offset="1" stop-color="#77311a"/></linearGradient><linearGradient x1="179.703" y1="170.46263" x2="179.703" y2="196.01691" gradientUnits="userSpaceOnUse" id="color-3"><stop offset="0" stop-color="#865342"/><stop offset="1" stop-color="#77311a"/></linearGradient><linearGradient x1="180.00005" y1="189.19597" x2="180.00005" y2="274.32173" gradientUnits="userSpaceOnUse" id="color-4"><stop offset="0" stop-color="#e8662a"/><stop offset="1" stop-color="#ab3e0b"/></linearGradient><linearGradient x1="176.03683" y1="195.38331" x2="176.03683" y2="273.56489" gradientUnits="userSpaceOnUse" id="color-5"><stop offset="0" stop-color="#a65029"/><stop offset="1" stop-color="#853f1f"/></linearGradient><linearGradient x1="191.17141" y1="195.13888" x2="191.17141" y2="272.32538" gradientUnits="userSpaceOnUse" id="color-6"><stop offset="0" stop-color="#a65029"/><stop offset="1" stop-color="#853f1f"/></linearGradient><linearGradient x1="154.61637" y1="193.31487" x2="154.61637" y2="270.37012" gradientUnits="userSpaceOnUse" id="color-7"><stop offset="0" stop-color="#a65029"/><stop offset="1" stop-color="#853f1f"/></linearGradient><linearGradient x1="207.28211" y1="190.7234" x2="207.28211" y2="271.13232" gradientUnits="userSpaceOnUse" id="color-8"><stop offset="0" stop-color="#a65029"/><stop offset="1" stop-color="#853f1f"/></linearGradient><linearGradient x1="129.31165" y1="248.32564" x2="129.31165" y2="269.81715" gradientUnits="userSpaceOnUse" id="color-9"><stop offset="0" stop-color="#48a943"/><stop offset="1" stop-color="#a99043"/></linearGradient><linearGradient x1="216.92175" y1="243.47228" x2="230.52679" y2="262.26274" gradientUnits="userSpaceOnUse" id="color-10"><stop offset="0" stop-color="#48a943"/><stop offset="1" stop-color="#a99043"/></linearGradient><linearGradient x1="149.13194" y1="257.96527" x2="146.7334" y2="272.21539" gradientUnits="userSpaceOnUse" id="color-11"><stop offset="0" stop-color="#48a943"/><stop offset="1" stop-color="#a99043"/></linearGradient><linearGradient x1="211.91078" y1="260.97408" x2="214.30932" y2="275.2242" gradientUnits="userSpaceOnUse" id="color-12"><stop offset="0" stop-color="#48a943"/><stop offset="1" stop-color="#a99043"/></linearGradient><linearGradient x1="207.43932" y1="256.27272" x2="214.90025" y2="268.64824" gradientUnits="userSpaceOnUse" id="color-13"><stop offset="0" stop-color="#48a943"/><stop offset="1" stop-color="#a99043"/></linearGradient></defs><g transform="translate(-110.13047,-168.1726)"><g data-paper-data="{&quot;isPaintingLayer&quot;:true}" fill-rule="nonzero" stroke="none" stroke-linecap="butt" stroke-linejoin="miter" stroke-miterlimit="10" stroke-dasharray="" stroke-dashoffset="0" style="mix-blend-mode: normal"><path d="M155.56151,271.06976c0,0 -16.23394,1.80759 -19.90564,-1.32693c-4.42789,-3.78006 -10.08585,-15.79616 -10.08585,-15.79616c0,0 9.65124,8.37686 13.47188,10.85752c2.68752,1.74496 7.27333,2.61192 7.27333,2.61192z" fill="url(#color-1)" stroke-width="5"/><path d="M154.85076,271.29589c0.05602,-1.70632 0.22937,-6.98698 0.22937,-6.98698l44.39916,1.45752c0,0 -0.15726,4.79054 -0.21376,6.5117c-0.03712,1.13069 -9.8684,2.48928 -9.8684,2.48928l-9.60932,0.77209l-21.21648,-1.78404c0,0 -3.75295,-1.47318 -3.72057,-2.45958z" fill="url(#color-2)" stroke-width="0"/><path d="M162.07606,189.71249c0,0 18.68862,-2.83234 20.50234,-7.25996c1.99737,-4.87592 -12.03226,-11.9899 -12.03226,-11.9899c0,0 1.5344,-2.68465 11.08274,-2.24041c10.54169,0.49046 10.28551,2.24041 10.28551,2.24041c0,0 3.08797,6.14556 3.77656,9.83334c0.25227,1.35106 -1.58647,4.82907 -1.17589,7.24983c0.26732,1.57613 2.92102,2.2632 2.81157,3.13542c-0.08481,0.67592 -2.18555,0.13614 -2.18555,0.13614c0,0 -7.87817,5.21261 -13.02347,5.19952c-5.83252,-0.01484 -20.04155,-6.30439 -20.04155,-6.30439z" fill="url(#color-3)" stroke-width="0"/><path d="M125.45695,237.89785c0,-22.45582 15.3446,-41.54127 36.71115,-48.4892c16.80095,-1.54127 14.55253,5.80741 18.70643,5.58426c3.55177,-0.19081 7.32377,-8.51472 23.23247,-3.11903c18.03226,8.369 30.43616,25.83426 30.43616,46.02397c0,21.4205 -13.96229,31.27175 -33.79515,34.80249c-3.02948,0.53933 -6.19593,-0.81883 -9.47053,-0.55575c-3.6388,0.29234 -6.79216,2.11936 -11.27742,2.17568c-4.48526,0.05631 -9.43587,-1.5284 -13.31784,-1.86687c-3.3238,-0.28981 -5.28257,0.65971 -8.34563,0.07866c-19.34568,-3.66978 -32.87964,-13.54483 -32.87964,-34.6342z" fill="url(#color-4)" stroke-width="0"/><path d="M172.58546,233.07671l6.90273,-37.6934c0,0 -2.366,24.85082 -2.55911,37.00156c-0.20785,13.07855 2.06646,41.18003 2.06646,41.18003z" fill="url(#color-5)" stroke-width="0"/><path d="M188.79887,272.32538c0,0 9.25699,-32.71118 7.16674,-44.42939c-1.94197,-10.88691 -15.62608,-32.75711 -15.62608,-32.75711l21.66373,42.43812z" data-paper-data="{&quot;index&quot;:null}" fill="url(#color-6)" stroke-width="0"/><path d="M140.61621,225.55615l29.89646,-32.24129c0,0 -20.53994,23.62563 -25.12343,35.2939c-4.93348,12.55924 6.85655,41.76135 6.85655,41.76135l-13.52571,-35.75482z" fill="url(#color-7)" stroke-width="0"/><path d="M221.51062,231.88127l-0.66968,-4.18782l-27.78736,-36.97005c0,0 20.53993,24.42493 25.12343,36.48797c4.93348,12.98415 -20.24182,43.92095 -20.24182,43.92095z" data-paper-data="{&quot;index&quot;:null}" fill="url(#color-8)" stroke-width="0"/><path d="M150.74943,274.43782c0,0 -16.53593,0.03794 -22.56765,-2.89814c-7.27394,-3.54075 -18.0513,-16.87405 -18.0513,-16.87405c0,0 15.88305,7.88635 21.9983,9.98413c4.3016,1.47563 11.20609,1.40637 11.20609,1.40637z" fill="url(#color-9)" stroke-width="5"/><path d="M213.6031,265.84314c0,0 7.20416,-3.32134 10.73101,-6.71849c5.01385,-4.82945 16.49302,-19.50435 16.49302,-19.50435c0,0 -2.73614,16.93644 -8.03816,23.59506c-4.39655,5.52148 -21.5692,13.58781 -21.5692,13.58781z" data-paper-data="{&quot;index&quot;:null}" fill="url(#color-10)" stroke-width="5"/><path d="M165.69762,274.34052c0,0 -16.23394,1.51086 -19.90564,-1.1091c-4.42789,-3.15953 -10.08585,-13.20308 -10.08585,-13.20308c0,0 9.65124,7.00172 13.47188,9.07516c2.68752,1.45851 7.27333,2.18315 7.27333,2.18315z" fill="url(#color-11)" stroke-width="5"/><path d="M204.59137,274.29547c0,0 4.58581,-0.72465 7.27333,-2.18315c3.82064,-2.07344 13.47188,-9.07516 13.47188,-9.07516c0,0 -5.65796,10.04354 -10.08585,13.20308c-2.01202,1.43568 -12.78381,1.50716 -12.92095,1.5033c-3.78803,-0.10669 -6.59195,-3.48936 -5.09745,-3.98296c1.58255,-0.52269 7.35904,0.5349 7.35904,0.5349z" data-paper-data="{&quot;index&quot;:null}" fill="url(#color-12)" stroke-width="5"/><path d="M205.51956,271.35078c0,0 3.99988,-2.35706 5.9646,-4.70011c2.79309,-3.33092 9.20128,-13.38605 9.20128,-13.38605c0,0 -1.57721,11.41919 -4.53659,15.98327c-1.36175,2.10015 -10.12053,6.63434 -15.44751,7.00221c-4.27266,0.29506 -5.45602,-3.39331 -5.45602,-3.39331z" data-paper-data="{&quot;index&quot;:null}" fill="url(#color-13)" stroke-width="5"/></g></g></svg>