<svg version="1.1" xmlns="http://www.w3.org/2000/svg" xmlns:xlink="http://www.w3.org/1999/xlink" width="91.8107" height="108.95578" viewBox="0,0,91.8107,108.95578"><defs><linearGradient x1="187.43911" y1="279.58652" x2="187.43911" y2="294.10137" gradientUnits="userSpaceOnUse" id="color-1"><stop offset="0" stop-color="#8a4b4b"/><stop offset="1" stop-color="#8a6355"/></linearGradient><linearGradient x1="176.97942" y1="281.72225" x2="176.97942" y2="309.4838" gradientUnits="userSpaceOnUse" id="color-2"><stop offset="0" stop-color="#8a3737"/><stop offset="1" stop-color="#894d37"/></linearGradient><linearGradient x1="166.46336" y1="242.83018" x2="166.46336" y2="285.7427" gradientUnits="userSpaceOnUse" id="color-3"><stop offset="0" stop-color="#621a00"/><stop offset="1" stop-color="#a84300"/></linearGradient><radialGradient cx="163.86126" cy="294.87037" r="23.50231" gradientUnits="userSpaceOnUse" id="color-4"><stop offset="0" stop-color="#ffcc15"/><stop offset="1" stop-color="#ffcc15" stop-opacity="0"/></radialGradient><linearGradient x1="203.75382" y1="264.24172" x2="203.75382" y2="278.67183" gradientUnits="userSpaceOnUse" id="color-5"><stop offset="0" stop-color="#6d2c2c"/><stop offset="1" stop-color="#894d37"/></linearGradient><linearGradient x1="184.08544" y1="242.44947" x2="184.08544" y2="296.1714" gradientUnits="userSpaceOnUse" id="color-6"><stop offset="0" stop-color="#5e240f"/><stop offset="1" stop-color="#5f3d31"/></linearGradient><linearGradient x1="169.57472" y1="274.53863" x2="169.57472" y2="302.11527" gradientUnits="userSpaceOnUse" id="color-7"><stop offset="0" stop-color="#ff1e14"/><stop offset="1" stop-color="#ffd315"/></linearGradient><linearGradient x1="155.17353" y1="278.07468" x2="155.17353" y2="309.54802" gradientUnits="userSpaceOnUse" id="color-8"><stop offset="0" stop-color="#8a3737"/><stop offset="1" stop-color="#894d37"/></linearGradient><linearGradient x1="174.80574" y1="272.53373" x2="174.80574" y2="291.46811" gradientUnits="userSpaceOnUse" id="color-9"><stop offset="0" stop-color="#8a4b4b"/><stop offset="1" stop-color="#8a6355"/></linearGradient><linearGradient x1="158.45941" y1="244.11476" x2="158.45941" y2="287.02728" gradientUnits="userSpaceOnUse" id="color-10"><stop offset="0" stop-color="#862300"/><stop offset="1" stop-color="#bd5e20"/></linearGradient><linearGradient x1="218.7946" y1="216.96531" x2="218.7946" y2="235.73453" gradientUnits="userSpaceOnUse" id="color-11"><stop offset="0" stop-color="#8a3737"/><stop offset="1" stop-color="#894d37"/></linearGradient><linearGradient x1="198.79845" y1="212.41689" x2="198.79845" y2="237.81172" gradientUnits="userSpaceOnUse" id="color-12"><stop offset="0" stop-color="#8a3737"/><stop offset="1" stop-color="#894d37"/></linearGradient><linearGradient x1="203.86496" y1="230.28747" x2="203.86496" y2="267.79838" gradientUnits="userSpaceOnUse" id="color-13"><stop offset="0" stop-color="#8a3737"/><stop offset="1" stop-color="#894d37"/></linearGradient><linearGradient x1="188.28671" y1="262.89318" x2="188.28671" y2="278.18425" gradientUnits="userSpaceOnUse" id="color-14"><stop offset="0" stop-color="#6d2c2c"/><stop offset="1" stop-color="#894d37"/></linearGradient></defs><g transform="translate(-135.08815,-209.41689)"><g data-paper-data="{&quot;isPaintingLayer&quot;:true}" fill-rule="nonzero" stroke-miterlimit="10" stroke-dasharray="" stroke-dashoffset="0" style="mix-blend-mode: normal"><path d="M180.63475,279.58652l13.60872,6.96945l-5.16356,7.5454" data-paper-data="{&quot;index&quot;:null}" fill="none" stroke="url(#color-1)" stroke-width="7.5" stroke-linecap="round" stroke-linejoin="round"/><path d="M183.21739,281.72225l0.12848,14.98688l-12.73289,12.77467" data-paper-data="{&quot;index&quot;:null}" fill="none" stroke="url(#color-2)" stroke-width="7.5" stroke-linecap="round" stroke-linejoin="round"/><path d="M171.79083,246.04134c15.21857,-6.9653 18.04379,-0.42973 18.04379,-0.42973c0,0 -22.06721,58.75946 -46.73564,34.07621c-0.36014,-12.03502 13.47328,-26.68118 28.69185,-33.64648z" data-paper-data="{&quot;index&quot;:null}" fill="url(#color-3)" stroke="none" stroke-width="0" stroke-linecap="butt" stroke-linejoin="miter"/><path d="M140.35895,294.87037c0,-12.97996 10.52234,-23.50231 23.50231,-23.50231c12.97996,0 23.50231,10.52234 23.50231,23.50231c0,12.97996 -10.52234,23.5023 -23.50231,23.5023c-12.97996,0 -23.50231,-10.52234 -23.50231,-23.5023z" fill="url(#color-4)" stroke="none" stroke-width="0" stroke-linecap="butt" stroke-linejoin="miter"/><path d="M213.15491,277.10996l-12.5428,1.56187l-6.25937,-14.43011" data-paper-data="{&quot;index&quot;:null}" fill="none" stroke="url(#color-5)" stroke-width="7.5" stroke-linecap="round" stroke-linejoin="round"/><path d="M209.37419,245.62585c7.34068,7.34068 -7.02539,21.18797 -23.2483,37.41088c-16.22291,16.22291 -3.7409,16.9295 -24.1389,4.81175c13.61825,19.45621 -16.43767,-11.50939 -0.21476,-27.7323c16.22291,-16.22291 40.26128,-21.83101 47.60196,-14.49033z" fill="url(#color-6)" stroke="none" stroke-width="0" stroke-linecap="butt" stroke-linejoin="miter"/><path d="M183.86673,285.40596c-6.31405,11.28818 -17.53603,19.42985 -23.77939,15.86003c-5.91683,-3.38312 -5.60815,-19.25289 -3.21633,-26.66615c0.28979,-0.89819 -0.32082,8.32979 11.26495,11.83789c11.5497,3.49718 16.06975,-1.74153 15.73077,-1.03177z" fill="url(#color-7)" stroke="none" stroke-width="0" stroke-linecap="butt" stroke-linejoin="miter"/><path d="M162.24556,278.07468l0.14565,16.99066l-14.43531,14.48268" data-paper-data="{&quot;index&quot;:null}" fill="none" stroke="url(#color-8)" stroke-width="7.5" stroke-linecap="round" stroke-linejoin="round"/><path d="M170.67483,272.53373l8.26183,11.25531l-8.25666,7.67907" data-paper-data="{&quot;index&quot;:null}" fill="none" stroke="url(#color-9)" stroke-width="7.5" stroke-linecap="round" stroke-linejoin="round"/><path d="M163.78687,247.32593c15.21857,-6.9653 18.0438,-0.42974 18.0438,-0.42974c0,0 -22.06721,58.75946 -46.73564,34.07621c-0.36014,-12.03502 13.47328,-26.68118 28.69185,-33.64648z" data-paper-data="{&quot;index&quot;:null}" fill="url(#color-10)" stroke="none" stroke-width="0" stroke-linecap="butt" stroke-linejoin="miter"/><path d="M214.28858,220.06994c0,0 6.77565,-7.36349 8.89863,0.5899c1.21452,4.54999 -7.72487,15.07469 -7.72487,15.07469" fill="none" stroke="url(#color-11)" stroke-width="6" stroke-linecap="round" stroke-linejoin="miter"/><path d="M194.42103,213.43208c3.78662,-2.79981 7.58248,0.5823 8.65902,5.38222c1.07654,4.79993 -7.27197,18.99742 -7.27197,18.99742" fill="none" stroke="url(#color-12)" stroke-width="6" stroke-linecap="round" stroke-linejoin="miter"/><path d="M226.89885,249.04293c0,10.35836 -10.31263,18.75545 -23.03389,18.75545c-12.72126,0 -23.03389,-8.3971 -23.03389,-18.75545c0,-10.35835 10.31262,-18.75546 23.03389,-18.75546c12.72126,0 23.03389,8.39711 23.03389,18.75546z" fill="url(#color-13)" stroke="none" stroke-width="0" stroke-linecap="butt" stroke-linejoin="miter"/><path d="M200.23619,239.95645c0,0 0,2.93984 0,4.4308c0,1.51956 0,4.6024 0,4.6024" fill="none" stroke="#ffffff" stroke-width="4" stroke-linecap="round" stroke-linejoin="miter"/><path d="M213.75714,248.40372v-8.54493" fill="none" stroke="#ffffff" stroke-width="4" stroke-linecap="round" stroke-linejoin="miter"/><path d="M212.69177,254.50888c0,0 8.53553,5.10591 -4.78102,4.66824c-11.65669,-0.38312 -6.21976,-3.35719 -6.21976,-3.35719" fill="none" stroke="#ffffff" stroke-width="3" stroke-linecap="round" stroke-linejoin="miter"/><path d="M193.66727,260.30349l-7.04616,15.16232l-5.44808,-12.57262" data-paper-data="{&quot;index&quot;:null}" fill="none" stroke="url(#color-14)" stroke-width="7.5" stroke-linecap="round" stroke-linejoin="round"/></g></g></svg>