<svg version="1.1" xmlns="http://www.w3.org/2000/svg" xmlns:xlink="http://www.w3.org/1999/xlink" width="57.0333" height="57.03331" viewBox="0,0,57.0333,57.03331"><defs><linearGradient x1="173.41052" y1="261.56269" x2="173.41052" y2="268.38733" gradientUnits="userSpaceOnUse" id="color-1"><stop offset="0" stop-color="#5a5a5a"/><stop offset="1" stop-color="#1c1c1c"/></linearGradient><linearGradient x1="179.99998" y1="264.12571" x2="179.99998" y2="288.4373" gradientUnits="userSpaceOnUse" id="color-2"><stop offset="0" stop-color="#ff6f00"/><stop offset="1" stop-color="#ff8282"/></linearGradient><linearGradient x1="170.20843" y1="268.43101" x2="170.20843" y2="276.59773" gradientUnits="userSpaceOnUse" id="color-3"><stop offset="0" stop-color="#ffffff" stop-opacity="0.33725"/><stop offset="1" stop-color="#ffffff" stop-opacity="0"/></linearGradient></defs><g transform="translate(-151.48335,-246.48338)"><g data-paper-data="{&quot;isPaintingLayer&quot;:true}" fill-rule="nonzero" stroke-miterlimit="10" stroke-dasharray="" stroke-dashoffset="0" style="mix-blend-mode: normal"><path d="M156.61252,275.00001c0,-12.91656 10.47093,-23.38748 23.38749,-23.38748c12.91655,0 23.38749,10.47093 23.38749,23.38749c0,12.91656 -10.47093,23.38749 -23.38748,23.38749c-12.91655,0 -23.38748,-10.47093 -23.38748,-23.38749z" fill="#3a984b" stroke="none" stroke-width="0" stroke-linecap="butt" stroke-linejoin="miter"/><path d="M151.48335,275.00003c0,-15.74932 12.76734,-28.51665 28.51665,-28.51665c15.74931,0 28.51665,12.76734 28.51665,28.51665c0,15.74932 -12.76734,28.51666 -28.51665,28.51666c-15.74931,0 -28.51665,-12.76734 -28.51665,-28.51666z" fill="none" stroke="none" stroke-width="0" stroke-linecap="butt" stroke-linejoin="miter"/><path d="M159.03187,275.00003c0,-11.58038 9.38775,-20.96813 20.96813,-20.96813c11.58038,0 20.96813,9.38775 20.96813,20.96813c0,11.58038 -9.38775,20.96813 -20.96813,20.96813c-11.58038,0 -20.96813,-9.38775 -20.96813,-20.96813z" fill="#ffc054" stroke="none" stroke-width="0" stroke-linecap="butt" stroke-linejoin="miter"/><path d="M159.15312,272.73188c0.43991,-4.08991 2.05582,-7.82764 4.50283,-10.86827l2.81365,2.81365c-1.75429,2.29591 -2.93746,5.05147 -3.33742,8.05462zM166.86359,258.65596c3.04063,-2.447 6.77836,-4.06292 10.86827,-4.50283v3.97904c-3.00314,0.39997 -5.75872,1.58314 -8.05462,3.33743zM182.26815,254.15315c4.08991,0.43991 7.82764,2.05582 10.86827,4.50283l-2.81365,2.81364c-2.29591,-1.75429 -5.05148,-2.93746 -8.05462,-3.33743zM196.34406,261.86359c2.447,3.04063 4.06292,6.77836 4.50283,10.86827h-3.97905c-0.39997,-3.00315 -1.58314,-5.75871 -3.33742,-8.05462zM200.84688,277.26815c-0.43991,4.08991 -2.05582,7.82764 -4.50283,10.86827l-2.81366,-2.81366c1.75429,-2.29591 2.93746,-5.05147 3.33743,-8.05461zM193.13642,291.34407c-3.04063,2.447 -6.77836,4.06292 -10.86827,4.50283v-3.97907c3.00313,-0.39997 5.7587,-1.58314 8.05461,-3.33742zM177.73186,295.84689c-4.08991,-0.43991 -7.82764,-2.05583 -10.86827,-4.50283l2.81366,-2.81366c2.29591,1.75428 5.05147,2.93745 8.05461,3.33742zM163.65595,288.13642c-2.447,-3.04063 -4.06292,-6.77836 -4.50283,-10.86827h3.97905c0.39997,3.00314 1.58315,5.7587 3.33743,8.05461z" fill="#ffa200" stroke="none" stroke-width="0" stroke-linecap="butt" stroke-linejoin="miter"/><g><path d="M170.70975,268.38733l-1.25003,-3.22195c0,0 0.37068,-1.01058 2.44052,-2.33942c2.53924,-1.6302 4.21104,-1.21633 4.21104,-1.21633l1.25004,3.22195z" fill="url(#color-1)" stroke="none" stroke-width="0" stroke-linecap="butt" stroke-linejoin="miter"/><path d="M167.23642,276.28151c0,-6.71346 5.71445,-12.1558 12.76359,-12.1558c7.04914,0 12.76358,5.44234 12.76358,12.1558c0,6.71346 -5.71444,12.15579 -12.76358,12.15579c-7.04914,0 -12.76359,-5.44233 -12.76359,-12.15579z" fill="url(#color-2)" stroke="none" stroke-width="0" stroke-linecap="butt" stroke-linejoin="miter"/><path d="M185.19654,273.60135l-1.50129,-3.84357" data-paper-data="{&quot;index&quot;:null}" fill="none" stroke="#000000" stroke-width="2.5" stroke-linecap="round" stroke-linejoin="miter"/><path d="M184.19362,276.65358l-1.12571,4.91886l-3.928,-2.90561" data-paper-data="{&quot;index&quot;:null}" fill="none" stroke="#000000" stroke-width="2.5" stroke-linecap="round" stroke-linejoin="bevel"/><path d="M174.60202,273.6347l1.57015,4.01989" data-paper-data="{&quot;index&quot;:null}" fill="none" stroke="#000000" stroke-width="2.5" stroke-linecap="round" stroke-linejoin="miter"/><path d="M168.37279,276.59773c0,0 0.10412,-2.69131 1.24838,-4.89663c1.089,-2.09881 2.42289,-3.27009 2.42289,-3.27009" fill="none" stroke="url(#color-3)" stroke-width="1.5" stroke-linecap="round" stroke-linejoin="miter"/></g><path d="M187.59141,263.4409c0.01111,0.08804 -0.02968,0.16953 -0.09949,0.21748c-0.03426,0.02353 -0.07552,0.03898 -0.12111,0.04316l-0.77454,0.07097l0.41546,0.39529c0.08063,0.10747 0.05471,0.25172 -0.05519,0.32719c-0.00124,0.00085 -0.00245,0.00168 -0.00369,0.00253c-0.11158,0.07662 -0.26896,0.04949 -0.35051,-0.05917l-0.46848,-0.76755l-0.40371,0.03701l0.24659,0.33984c0.0781,0.10757 -0.00709,0.01379 -0.11552,0.08824c-0.00232,0.00159 -0.00489,0.00332 -0.00728,0.00483c-0.11434,0.07295 -0.27221,0.04346 -0.35196,-0.0664l-0.342,-0.313l-1.02747,-0.14821l-0.41614,0.88628l0.56212,0.72227l0.67366,-0.13983c0.13554,-0.02782 0.27512,0.05184 0.30759,0.18077c0.03247,0.12893 -0.0533,0.25749 -0.18889,0.28531l-0.46286,0.09712l0.26211,0.33679l0.98321,-0.00059c0.13742,-0.01925 0.27118,0.06867 0.2946,0.19912c0.0235,0.13047 -0.07116,0.25341 -0.20856,0.27257l-0.72928,-0.03429l0.36971,0.77142c0.08356,0.10737 0.06084,0.25646 -0.05076,0.33309c-0.1116,0.07664 -0.15913,-0.10253 -0.24268,-0.20989l-0.46755,-0.60076l-0.33034,0.69371c-0.01816,0.0378 -0.04171,0.06602 -0.07481,0.08875c-0.07109,0.04882 -0.16928,0.06078 -0.25602,0.02204c-0.12713,-0.05681 -0.1861,-0.19775 -0.12899,-0.31678l0.44432,-0.93208l-0.24372,-0.31315l-0.17899,0.36261c-0.01818,0.03634 -0.04103,0.06337 -0.07312,0.0854c-0.07224,0.04961 -0.17228,0.06097 -0.2597,0.02035c-0.12622,-0.05862 -0.18283,-0.2004 -0.12368,-0.31851l0.29263,-0.59037l-0.58362,-0.74989l-0.97375,0.08517l-0.37939,0.83679l0.43838,0.5261c0.08724,0.10472 0.06983,0.25457 -0.03887,0.33478c-0.00223,0.00165 -0.00456,0.00329 -0.00685,0.00486c-0.10842,0.07446 -0.26249,0.05328 -0.34797,-0.04926l-0.26987,-0.32387l-0.16004,0.35015l0.82063,0.6083c0.08551,0.10595 0.06525,0.25506 -0.04633,0.33168c-0.00121,0.00083 -0.00245,0.00168 -0.00366,0.00251c-0.1099,0.07547 -0.26405,0.05495 -0.34865,-0.04987l-0.49843,-0.6176l-0.30703,0.67178c-0.01803,0.0395 -0.04627,0.07178 -0.08054,0.09531c-0.06982,0.04794 -0.16485,0.05972 -0.2508,0.02306c-0.12813,-0.05464 -0.18754,-0.19625 -0.13269,-0.31627l0.31589,-0.69119l-0.54269,0.12283c-0.13908,0.00611 -0.25937,-0.09539 -0.269,-0.22715c-0.00963,-0.13176 0.09547,-0.2433 0.23444,-0.24946l0.64937,0.08821l0.17206,-0.3765l-0.16754,0.07638c-0.13939,-0.00262 -0.25275,-0.11158 -0.25316,-0.24344c-0.00035,-0.1319 0.11227,-0.23663 0.2516,-0.23405l0.38553,-0.0723l0.37438,-0.81912l-0.60798,-0.7787l-0.63757,0.17141l-0.25381,0.61194c-0.01769,0.04276 -0.04726,0.07763 -0.08374,0.10267c-0.06745,0.04631 -0.15863,0.05911 -0.24294,0.02626c-0.12993,-0.05059 -0.19428,-0.19031 -0.14374,-0.3121l0.15624,-0.37669l-0.40374,0.03703l-0.41302,0.95047c-0.01792,0.04118 -0.04683,0.07483 -0.08229,0.09917c-0.06853,0.04706 -0.16155,0.0594 -0.24665,0.02479c-0.12911,-0.05251 -0.19115,-0.19314 -0.13858,-0.31413l0.30762,-0.70782l-0.77459,0.071c-0.1384,0.01268 -0.26401,-0.08346 -0.28057,-0.21472c-0.0166,-0.13127 0.08213,-0.24791 0.22061,-0.26064l0.79567,-0.07291l-0.47337,-0.67505c-0.07789,-0.11102 -0.04677,-0.25932 0.06832,-0.32987c0.11562,-0.07121 0.27243,-0.03888 0.35029,0.07216l0.61793,0.88118l0.43415,-0.03974l-0.23697,-0.39047c-0.07005,-0.1155 -0.02956,-0.26099 0.09109,-0.3242c0.12048,-0.06369 0.2744,-0.02126 0.34445,0.09423l0.34527,0.57183l0.8492,-0.27266l0.21478,-0.50233l-0.28166,-0.66699l-0.68877,0.08356c-0.13779,0.01708 -0.2633,-0.07738 -0.28447,-0.20815c-0.02122,-0.13073 0.07101,-0.24909 0.20879,-0.26616l0.42158,-0.04979l-0.24372,-0.31315l-1.08145,0.11566c-0.13805,0.01503 -0.26205,-0.0813 -0.28107,-0.21235c-0.019,-0.13106 0.07522,-0.24797 0.21333,-0.26288l0.80339,-0.08477l-0.46755,-0.60076c-0.08356,-0.10737 -0.06084,-0.25646 0.05076,-0.33309c0.1116,-0.07664 0.26974,-0.05174 0.35329,0.05563l0.4803,0.61713l0.3754,-0.71456c0.06117,-0.11716 0.21565,-0.16531 0.34091,-0.10474c0.12525,0.06056 0.17493,0.20618 0.11374,0.32332l-0.49006,0.93279l0.26213,0.33682l0.23782,-0.38404c0.06943,-0.11293 0.22697,-0.15141 0.34783,-0.08326c0.12092,0.06815 0.16051,0.21648 0.09118,0.32938l-0.34735,0.56129l0.25978,0.63887l1.01976,-0.09279l0.37609,-0.81603l-0.65418,-0.51891c-0.09593,-0.09772 -0.09163,-0.24875 0.00953,-0.33727c0.10073,-0.08874 0.26089,-0.08105 0.35676,0.0167l0.32428,0.33052l0.17214,-0.3766l-0.70639,-0.82043c-0.08901,-0.10338 -0.07425,-0.25357 0.03303,-0.33543c0.10737,-0.08272 0.26637,-0.06446 0.35536,0.0389l0.54119,0.62856l0.31539,-0.69001c0.05486,-0.1199 0.2032,-0.17302 0.33133,-0.11837c0.12813,0.05464 0.18754,0.19625 0.13269,0.31627l-0.30698,0.67167l0.81135,-0.06057c0.13869,-0.01034 0.26255,0.08784 0.27663,0.21933c0.00926,0.08669 -0.03145,0.16618 -0.10001,0.21326c-0.03545,0.02434 -0.07828,0.04004 -0.12557,0.04356l-1.08952,0.08128l-0.16001,0.35013l0.42956,-0.02557c0.13886,-0.00826 0.26106,0.09172 0.27299,0.22334c0.00774,0.08542 0.14705,0.1987 0.07961,0.24503c-0.03647,0.02505 -0.08081,0.04094 -0.12956,0.0438l-0.69782,0.04154l-0.3774,0.82564l0.60282,0.7717l0.95141,-0.0872l0.19603,-0.62081c0.0396,-0.12561 0.18015,-0.19457 0.31372,-0.15423c0.13363,0.04037 0.2098,0.17488 0.17019,0.30041l-0.13407,0.42457l0.43357,-0.03974l0.38449,-0.97338c0.04839,-0.12254 0.1937,-0.18248 0.32441,-0.13386c0.13072,0.04858 0.19751,0.18745 0.14912,0.31004l-0.40483,0.8998l0.79573,-0.07295c0.13842,-0.01265 0.26403,0.08348 0.28057,0.21472z" fill="#ffffff" stroke="#ffffff" stroke-width="0.5" stroke-linecap="butt" stroke-linejoin="miter"/><path d="M177.25611,288.51203c-0.03001,0.06296 -0.09157,0.09956 -0.15811,0.10166c-0.03265,0.00103 -0.06651,-0.00626 -0.09844,-0.02284l-0.54252,-0.28172l0.10712,0.43781c0.00773,0.10531 -0.07062,0.18974 -0.17536,0.19304c-0.00118,0.00004 -0.00233,0.00007 -0.00351,0.00011c-0.10633,0.00334 -0.19894,-0.0814 -0.20678,-0.18789l0.01577,-0.70658l-0.28278,-0.14683l0.01892,0.32947c0.00602,0.10431 -0.01055,0.00612 -0.11387,0.00936c-0.00221,0.00007 -0.00465,0.00012 -0.00686,0.00011c-0.1066,-0.00026 -0.19853,-0.08676 -0.20467,-0.19328l-0.09343,-0.35219l-0.61684,-0.53406l-0.6514,0.40974l0.06539,0.71636l0.505,0.19336c0.10147,0.03911 0.16001,0.15105 0.12678,0.25012c-0.03323,0.09907 -0.14453,0.14773 -0.24603,0.1086l-0.34743,-0.13216l0.03049,0.33403l0.6507,0.41683c0.09908,0.04558 0.15027,0.16051 0.1104,0.25674c-0.03981,0.09629 -0.15461,0.13745 -0.25364,0.09182l-0.46792,-0.33215l-0.08276,0.66723c0.00972,0.10649 -0.06858,0.19548 -0.17493,0.19882c-0.10636,0.00334 -0.06176,-0.13535 -0.07148,-0.24184l-0.05439,-0.59584l-0.51291,0.31876c-0.02805,0.0173 -0.0556,0.02598 -0.08716,0.02697c-0.06774,0.00213 -0.13778,-0.03163 -0.17873,-0.09406c-0.06,-0.09153 -0.0392,-0.2098 0.04909,-0.26431l0.68947,-0.42809l-0.02835,-0.31059l-0.27228,0.16393c-0.02745,0.01633 -0.05404,0.02451 -0.08461,0.02547c-0.06885,0.00216 -0.13985,-0.03277 -0.18044,-0.09674c-0.05863,-0.09235 -0.03591,-0.21016 0.05334,-0.2632l0.44412,-0.26639l-0.06789,-0.74376l-0.68034,-0.35686l-0.60608,0.3926l0.06677,0.53408c0.01328,0.1063 -0.06183,0.19805 -0.16778,0.20499c-0.00218,0.00015 -0.00441,0.00024 -0.00659,0.00031c-0.10333,0.00325 -0.19627,-0.07614 -0.2093,-0.18025l-0.0411,-0.32878l-0.25446,0.16374l0.28477,0.75066c0.01162,0.10638 -0.06507,0.19643 -0.17139,0.19977c-0.00115,0.00003 -0.00233,0.00007 -0.00349,0.00011c-0.10473,0.00329 -0.19801,-0.0757 -0.20949,-0.18094l-0.06767,-0.62009l-0.48819,0.31414c-0.02869,0.01848 -0.06107,0.02785 -0.09373,0.02888c-0.06653,0.00209 -0.1344,-0.03045 -0.1757,-0.09117c-0.06158,-0.09052 -0.04079,-0.20941 0.04643,-0.26554l0.50228,-0.32322l-0.41115,-0.14903c-0.0946,-0.05497 -0.13112,-0.17317 -0.08157,-0.26443c0.04954,-0.09126 0.16641,-0.12044 0.26095,-0.06555l0.39217,0.33392l0.27359,-0.17607l-0.14325,-0.02057c-0.0911,-0.06088 -0.11986,-0.18108 -0.06418,-0.26848c0.05574,-0.08741 0.17469,-0.1089 0.26577,-0.04807l0.28573,0.11577l0.59527,-0.38304l-0.07178,-0.77315l-0.49453,-0.15715l-0.42759,0.29713c-0.02985,0.02078 -0.0642,0.0313 -0.09896,0.03239c-0.06427,0.00202 -0.13003,-0.02822 -0.17186,-0.08572c-0.06449,-0.0886 -0.04777,-0.20834 0.03735,-0.26747l0.26321,-0.18291l-0.28281,-0.14683l-0.67657,0.45353c-0.02933,0.01963 -0.06274,0.02963 -0.09652,0.03069c-0.0653,0.00205 -0.13208,-0.02925 -0.17369,-0.08827c-0.06313,-0.08952 -0.0445,-0.20889 0.04162,-0.26663l0.50387,-0.33773l-0.54258,-0.28173c-0.09694,-0.05034 -0.13924,-0.16724 -0.0945,-0.26111c0.04472,-0.09389 0.15953,-0.12916 0.25655,-0.07882l0.55733,0.28941l-0.02671,-0.64746c-0.00442,-0.1065 0.0791,-0.19141 0.18517,-0.18924c0.10671,0.00196 0.19673,0.08989 0.20112,0.19638l0.03488,0.84517l0.30408,0.15794l0.00892,-0.35888c0.00267,-0.10613 0.09119,-0.18521 0.19783,-0.17583c0.10673,0.00899 0.19056,0.10238 0.18789,0.20851l-0.01424,0.52482l0.6775,0.17997l0.35525,-0.24118l0.0967,-0.56078l-0.49112,-0.23699c-0.0984,-0.04717 -0.14135,-0.16292 -0.09987,-0.25842c0.04143,-0.09549 0.15267,-0.13466 0.25107,-0.08749l0.30003,0.14595l-0.02835,-0.31059l-0.76453,-0.38239c-0.09771,-0.04864 -0.13886,-0.16499 -0.09584,-0.25975c0.04304,-0.09476 0.15499,-0.13213 0.25268,-0.08339l0.56747,0.28483l-0.05439,-0.59584c-0.00972,-0.10649 0.06858,-0.19548 0.17493,-0.19882c0.10636,-0.00334 0.2004,0.08023 0.21012,0.18672l0.05587,0.61209l0.55158,-0.31343c0.09018,-0.05155 0.21281,-0.01785 0.26998,0.07537c0.05717,0.09321 0.02824,0.21063 -0.06195,0.26216l-0.72003,0.40914l0.03049,0.33406l0.3203,-0.15315c0.09385,-0.04525 0.21441,-0.00385 0.26544,0.09252c0.05107,0.0964 0.01432,0.21132 -0.07945,0.2566l-0.46797,0.22394l-0.09924,0.53289l0.71402,0.37135l0.59509,-0.38027l-0.21259,-0.62089c-0.022,-0.10536 0.04494,-0.20344 0.14943,-0.21908c0.1043,-0.01596 0.20699,0.05709 0.22894,0.16244l0.07427,0.35626l0.2737,-0.1761l-0.11918,-0.84252c-0.01502,-0.10617 0.05848,-0.19926 0.16419,-0.20789c0.10613,-0.00916 0.20357,0.07039 0.21859,0.17653l0.0913,0.64549l0.50145,-0.32265c0.08718,-0.05604 0.20785,-0.02823 0.26943,0.06229c0.06158,0.09052 0.04079,0.20941 -0.04643,0.26554l-0.48811,0.31409l0.56246,0.30422c0.09614,0.05201 0.13642,0.16952 0.08994,0.26249c-0.03066,0.06128 -0.09132,0.0966 -0.15665,0.09865c-0.03378,0.00106 -0.06878,-0.00673 -0.10156,-0.02447l-0.75528,-0.40856l-0.25444,0.16373l0.29503,0.16536c0.09537,0.05345 0.13379,0.17146 0.08582,0.2636c-0.03113,0.0598 0.01296,0.19386 -0.05131,0.19588c-0.03476,0.00109 -0.07083,-0.00721 -0.1043,-0.02601l-0.47928,-0.26863l-0.60004,0.38607l0.07134,0.76634l0.66642,0.34604l0.39312,-0.32752c0.07949,-0.0663 0.20175,-0.05227 0.27299,0.03109c0.07128,0.08342 0.06458,0.20472 -0.01489,0.27096l-0.26886,0.22399l0.3037,0.15769l0.66741,-0.4808c0.08401,-0.06054 0.20558,-0.03853 0.27142,0.04911c0.06587,0.08761 0.05112,0.20782 -0.03291,0.26839l-0.64965,0.42349l0.55738,0.2894c0.09694,0.05037 0.13925,0.16727 0.0945,0.26111z" fill="#ffffff" stroke="#ffffff" stroke-width="0.5" stroke-linecap="butt" stroke-linejoin="miter"/><path d="M183.43698,289.84553c-0.02177,0.04568 -0.06644,0.07224 -0.11473,0.07376c-0.02369,0.00074 -0.04826,-0.00454 -0.07143,-0.01657l-0.39366,-0.20442l0.07773,0.31768c0.00561,0.07642 -0.05125,0.13768 -0.12724,0.14007c-0.00086,0.00003 -0.00169,0.00005 -0.00255,0.00008c-0.07715,0.00242 -0.14435,-0.05906 -0.15004,-0.13633l0.01145,-0.51271l-0.20519,-0.10654l0.01373,0.23907c0.00437,0.07569 -0.00765,0.00444 -0.08263,0.00679c-0.0016,0.00005 -0.00337,0.00009 -0.00498,0.00008c-0.07735,-0.00019 -0.14406,-0.06296 -0.14851,-0.14025l-0.0678,-0.25556l-0.44759,-0.38752l-0.47267,0.29732l0.04745,0.5198l0.36644,0.1403c0.07363,0.02838 0.11611,0.1096 0.092,0.18149c-0.02411,0.07189 -0.10488,0.1072 -0.17853,0.0788l-0.2521,-0.0959l0.02213,0.24238l0.47216,0.30246c0.07189,0.03307 0.10904,0.11647 0.08011,0.1863c-0.02889,0.06987 -0.11219,0.09974 -0.18404,0.06663l-0.33953,-0.24102l-0.06006,0.48415c0.00705,0.07727 -0.04977,0.14184 -0.12693,0.14427c-0.07717,0.00243 -0.04481,-0.09821 -0.05187,-0.17548l-0.03946,-0.43235l-0.37218,0.23129c-0.02036,0.01256 -0.04035,0.01885 -0.06324,0.01957c-0.04915,0.00155 -0.09997,-0.02295 -0.12969,-0.06825c-0.04353,-0.06642 -0.02845,-0.15224 0.03562,-0.19179l0.50029,-0.31063l-0.02057,-0.22537l-0.19757,0.11895c-0.01992,0.01185 -0.03921,0.01779 -0.0614,0.01848c-0.04996,0.00157 -0.10148,-0.02378 -0.13093,-0.07019c-0.04254,-0.06701 -0.02606,-0.1525 0.0387,-0.19098l0.32226,-0.19329l-0.04926,-0.53968l-0.49366,-0.25895l-0.43978,0.28487l0.04845,0.38754c0.00964,0.07713 -0.04487,0.14371 -0.12174,0.14874c-0.00158,0.00011 -0.0032,0.00018 -0.00478,0.00022c-0.07498,0.00236 -0.14241,-0.05525 -0.15187,-0.13079l-0.02982,-0.23857l-0.18464,0.11881l0.20663,0.54469c0.00843,0.07719 -0.04721,0.14253 -0.12437,0.14496c-0.00084,0.00003 -0.00169,0.00005 -0.00253,0.00008c-0.07599,0.00239 -0.14368,-0.05493 -0.15201,-0.13129l-0.0491,-0.44995l-0.35424,0.22795c-0.02082,0.01341 -0.04431,0.02021 -0.06801,0.02095c-0.04828,0.00152 -0.09753,-0.02209 -0.1275,-0.06615c-0.04468,-0.06569 -0.0296,-0.15196 0.03369,-0.19268l0.36447,-0.23453l-0.29834,-0.10814c-0.06865,-0.03989 -0.09514,-0.12566 -0.05919,-0.19187c0.03595,-0.06622 0.12075,-0.0874 0.18935,-0.04757l0.28456,0.2423l0.19852,-0.12776l-0.10394,-0.01492c-0.0661,-0.04418 -0.08697,-0.13139 -0.04657,-0.19481c0.04044,-0.06342 0.12676,-0.07902 0.19284,-0.03489l0.20733,0.08401l0.43194,-0.27794l-0.05208,-0.56101l-0.35884,-0.11403l-0.31026,0.2156c-0.02166,0.01508 -0.04659,0.02271 -0.07181,0.0235c-0.04664,0.00146 -0.09435,-0.02047 -0.12471,-0.0622c-0.0468,-0.06429 -0.03466,-0.15118 0.0271,-0.19408l0.19099,-0.13272l-0.20521,-0.10654l-0.49093,0.32909c-0.02128,0.01425 -0.04552,0.0215 -0.07004,0.02227c-0.04738,0.00149 -0.09584,-0.02123 -0.12604,-0.06405c-0.04581,-0.06496 -0.03229,-0.15158 0.0302,-0.19347l0.36562,-0.24506l-0.3937,-0.20442c-0.07034,-0.03653 -0.10104,-0.12136 -0.06857,-0.18946c0.03245,-0.06813 0.11576,-0.09372 0.18615,-0.05719l0.40441,0.21l-0.01938,-0.46981c-0.0032,-0.07728 0.05739,-0.13889 0.13436,-0.13732c0.07743,0.00142 0.14275,0.06522 0.14593,0.1425l0.02531,0.61327l0.22065,0.1146l0.00647,-0.26041c0.00194,-0.07701 0.06617,-0.13439 0.14355,-0.12758c0.07744,0.00652 0.13827,0.07429 0.13633,0.15129l-0.01033,0.38081l0.49161,0.13059l0.25778,-0.175l0.07016,-0.40691l-0.35637,-0.17197c-0.0714,-0.03423 -0.10257,-0.11822 -0.07247,-0.18751c0.03006,-0.06929 0.11079,-0.09771 0.18218,-0.06348l0.21771,0.10591l-0.02057,-0.22537l-0.55475,-0.27747c-0.0709,-0.03529 -0.10076,-0.11972 -0.06955,-0.18848c0.03123,-0.06876 0.11246,-0.09587 0.18335,-0.06051l0.41176,0.20668l-0.03946,-0.43235c-0.00705,-0.07727 0.04977,-0.14184 0.12693,-0.14427c0.07717,-0.00243 0.14541,0.05822 0.15247,0.13549l0.04054,0.44414l0.40023,-0.22743c0.06544,-0.0374 0.15442,-0.01295 0.1959,0.05469c0.04148,0.06764 0.02049,0.15284 -0.04495,0.19023l-0.52246,0.29688l0.02213,0.2424l0.23241,-0.11113c0.0681,-0.03284 0.15558,-0.00279 0.19261,0.06713c0.03706,0.06995 0.01039,0.15334 -0.05765,0.18619l-0.33957,0.16249l-0.07201,0.38668l0.5181,0.26945l0.4318,-0.27593l-0.15426,-0.45053c-0.01596,-0.07645 0.03261,-0.14762 0.10843,-0.15897c0.07568,-0.01158 0.15019,0.04142 0.16612,0.11787l0.05389,0.25851l0.1986,-0.12778l-0.08648,-0.61135c-0.0109,-0.07704 0.04244,-0.14458 0.11914,-0.15085c0.07701,-0.00665 0.14771,0.05108 0.15861,0.12809l0.06625,0.46837l0.36386,-0.23412c0.06326,-0.04067 0.15082,-0.02049 0.1955,0.0452c0.04468,0.06569 0.0296,0.15195 -0.03369,0.19268l-0.35418,0.22791l0.40813,0.22075c0.06976,0.03774 0.09899,0.12301 0.06526,0.19047c-0.02224,0.04447 -0.06627,0.07009 -0.11367,0.07158c-0.02451,0.00077 -0.04991,-0.00488 -0.07369,-0.01775l-0.54805,-0.29646l-0.18462,0.11881l0.21408,0.11999c0.0692,0.03879 0.09707,0.12441 0.06227,0.19127c-0.02259,0.04339 0.00941,0.14067 -0.03723,0.14213c-0.02522,0.00079 -0.0514,-0.00523 -0.07568,-0.01887l-0.34777,-0.19492l-0.43539,0.28014l0.05176,0.55606l0.48357,0.25109l0.28525,-0.23765c0.05768,-0.04811 0.14639,-0.03793 0.19809,0.02256c0.05172,0.06053 0.04686,0.14855 -0.0108,0.19661l-0.19509,0.16253l0.22037,0.11442l0.48429,-0.34887c0.06096,-0.04393 0.14917,-0.02796 0.19695,0.03563c0.04779,0.06357 0.0371,0.1508 -0.02388,0.19475l-0.47139,0.30729l0.40445,0.21c0.07034,0.03655 0.10104,0.12137 0.06857,0.18946z" fill="#ffffff" stroke="#ffffff" stroke-width="0.5" stroke-linecap="butt" stroke-linejoin="miter"/></g></g></svg>