<svg version="1.1" xmlns="http://www.w3.org/2000/svg" xmlns:xlink="http://www.w3.org/1999/xlink" width="56.37431" height="51.93003" viewBox="0,0,56.37431,51.93003"><defs><linearGradient x1="162.03233" y1="251.88781" x2="164.09576" y2="260.83493" gradientUnits="userSpaceOnUse" id="color-1"><stop offset="0" stop-color="#ffd200"/><stop offset="1" stop-color="#ff9f00"/></linearGradient><linearGradient x1="197.81712" y1="283.95808" x2="199.30986" y2="290.43066" gradientUnits="userSpaceOnUse" id="color-2"><stop offset="0" stop-color="#ffd200"/><stop offset="1" stop-color="#ff9f00"/></linearGradient></defs><g transform="translate(-150.58203,-244.32893)"><g data-paper-data="{&quot;isPaintingLayer&quot;:true}" fill-rule="nonzero" stroke="none" stroke-width="0" stroke-linecap="butt" stroke-linejoin="miter" stroke-miterlimit="10" stroke-dasharray="" stroke-dashoffset="0" style="mix-blend-mode: normal"><path d="M152.21436,260.14445c-3.15808,-0.65458 -1.29451,-9.64546 1.86357,-8.99087c3.15808,0.65458 8.25003,3.80916 7.73542,6.29192c-0.51461,2.48276 -6.44091,3.35354 -9.59899,2.69895z" fill="#ffffff"/><path d="M163.21619,267.85601c-1.36647,2.92142 -9.68359,-0.96883 -8.31713,-3.89026c1.36647,-2.92142 5.61206,-7.14685 7.90877,-6.07258c2.29671,1.07426 1.77482,7.04142 0.40836,9.96284z" fill="#ffffff"/><path d="M173.90506,258.8521c2.68579,1.78563 -2.39782,9.43192 -5.0836,7.64629c-2.68579,-1.78563 -6.23302,-6.61227 -4.82922,-8.72373c1.4038,-2.11146 7.22704,-0.70819 9.91282,1.07745z" fill="#ffffff"/><path d="M168.25985,247.45857c2.55869,-1.96342 8.14844,5.32104 5.58975,7.28446c-2.55869,1.96342 -8.27353,3.75784 -9.8171,1.74629c-1.54357,-2.01155 1.66865,-7.06734 4.22735,-9.03076z" fill="#ffffff"/><path d="M156.03711,247.95589c-0.72479,-3.14271 8.22233,-5.20614 8.94712,-2.06343c0.72479,3.1427 -0.01373,9.08694 -2.48441,9.65674c-2.47068,0.5698 -5.73791,-4.45061 -6.4627,-7.59332z" fill="#ffffff"/><path d="M158.59049,257.39309c-0.5698,-2.47068 0.97116,-4.93547 3.44184,-5.50527c2.47068,-0.5698 4.93547,0.97116 5.50527,3.44184c0.5698,2.47068 -0.97116,4.93547 -3.44184,5.50527c-2.47068,0.5698 -4.93547,-0.97116 -5.50527,-3.44184z" fill="url(#color-1)"/><path d="M190.71454,289.93115c-2.28464,-0.47354 -0.93648,-6.97778 1.34816,-6.50423c2.28464,0.47354 5.96829,2.75565 5.59601,4.55174c-0.37228,1.79609 -4.65952,2.42604 -6.94416,1.95249z" fill="#ffffff"/><path d="M198.67355,295.50989c-0.98854,2.11343 -7.00536,-0.70088 -6.01683,-2.81432c0.98854,-2.11343 4.05991,-5.17022 5.72141,-4.39306c1.6615,0.77715 1.28395,5.09395 0.29542,7.20738z" fill="#ffffff"/><path d="M206.40616,288.99623c1.94297,1.29177 -1.73465,6.8233 -3.67761,5.53153c-1.94297,-1.29177 -4.50913,-4.78349 -3.49359,-6.31098c1.01555,-1.52749 5.22823,-0.51232 7.1712,0.77946z" fill="#ffffff"/><path d="M202.32227,280.75385c1.85102,-1.42039 5.8948,3.84938 4.04377,5.26977c-1.85102,1.42039 -5.98529,2.71852 -7.10195,1.26331c-1.11666,-1.45521 1.20715,-5.1127 3.05818,-6.53309z" fill="#ffffff"/><path d="M193.48002,281.11362c-0.52433,-2.27352 5.94825,-3.76626 6.47258,-1.49274c0.52433,2.27351 -0.00993,6.57373 -1.79729,6.98594c-1.78736,0.41221 -4.15096,-3.21969 -4.67529,-5.49321z" fill="#ffffff"/><path d="M195.3272,287.94074c-0.41221,-1.78736 0.70256,-3.57045 2.48992,-3.98266c1.78736,-0.41221 3.57045,0.70256 3.98266,2.48992c0.41221,1.78736 -0.70256,3.57045 -2.48992,3.98266c-1.78736,0.41221 -3.57045,-0.70256 -3.98266,-2.48992z" fill="url(#color-2)"/></g></g></svg>