<svg version="1.1" xmlns="http://www.w3.org/2000/svg" xmlns:xlink="http://www.w3.org/1999/xlink" width="94.61538" height="94.61538" viewBox="0,0,94.61538,94.61538"><defs><linearGradient x1="180.00004" y1="241.51547" x2="180.00004" y2="311.84111" gradientUnits="userSpaceOnUse" id="color-1"><stop offset="0" stop-color="#bf8e5b"/><stop offset="1" stop-color="#a36631"/></linearGradient><linearGradient x1="180.83747" y1="267.26484" x2="180.83747" y2="271.67842" gradientUnits="userSpaceOnUse" id="color-2"><stop offset="0" stop-color="#accc70"/><stop offset="1" stop-color="#9ccc42"/></linearGradient><linearGradient x1="180.8577" y1="274.42897" x2="180.8577" y2="279.31354" gradientUnits="userSpaceOnUse" id="color-3"><stop offset="0" stop-color="#cc4f4f"/><stop offset="1" stop-color="#cc2525"/></linearGradient><linearGradient x1="180.50277" y1="281.70243" x2="180.50277" y2="286.44915" gradientUnits="userSpaceOnUse" id="color-4"><stop offset="0" stop-color="#accc70"/><stop offset="1" stop-color="#9ccc42"/></linearGradient><linearGradient x1="166.64679" y1="242.29652" x2="169.39222" y2="249.26153" gradientUnits="userSpaceOnUse" id="color-5"><stop offset="0" stop-color="#accc70"/><stop offset="1" stop-color="#9ccc42"/></linearGradient><linearGradient x1="177.4012" y1="238.05741" x2="180.14662" y2="245.02241" gradientUnits="userSpaceOnUse" id="color-6"><stop offset="0" stop-color="#accc70"/><stop offset="1" stop-color="#9ccc42"/></linearGradient><linearGradient x1="172.59907" y1="241.74972" x2="173.97874" y2="245.24987" gradientUnits="userSpaceOnUse" id="color-7"><stop offset="0" stop-color="#cc4f4f"/><stop offset="1" stop-color="#cc2525"/></linearGradient></defs><g transform="translate(-132.69231,-227.69231)"><g data-paper-data="{&quot;isPaintingLayer&quot;:true}" fill-rule="nonzero" stroke-linejoin="miter" stroke-miterlimit="10" stroke-dasharray="" stroke-dashoffset="0" style="mix-blend-mode: normal"><path d="M132.69231,322.30769v-94.61538h94.61538v94.61538z" fill="none" stroke="none" stroke-width="0" stroke-linecap="butt"/><path d="M167.67206,249.4272c-1.86144,-0.30608 1.59905,-1.75236 0.6657,-3.45105c-0.58607,-1.06666 -4.59186,1.87407 -4.79501,0.30955c-0.20316,-1.56452 4.08941,-0.67134 4.60029,-2.22952c0.51088,-1.55819 -2.115,-1.45824 -1.12606,-1.90302c0.98894,-0.44478 3.96165,-0.79069 4.54188,0.68131c0.22383,0.56784 0.54025,1.37059 0.85236,2.1624c0.24636,0.625 0.72704,2.6751 -1.01747,3.47267c-1.74451,0.79757 -0.06678,-2.79281 -0.92582,-2.41413c-0.85903,0.37867 -0.93443,3.67786 -2.79587,3.37178z" fill="none" stroke="#ffffff" stroke-width="7.5" stroke-linecap="butt"/><path d="M181.51715,243.96982c-1.15194,1.49388 -3.4582,-0.86652 -4.34457,-0.5572c-0.88637,0.30932 2.78995,1.78926 0.97043,2.39654c-1.81952,0.60727 -2.86697,-1.21941 -3.11333,-1.84442c-0.31211,-0.7918 -0.62853,-1.59456 -0.85236,-2.1624c-0.58023,-1.472 1.82898,-3.2475 2.85542,-3.59714c1.02644,-0.34964 -0.96138,1.36903 0.47529,2.15954c1.43668,0.79051 3.96528,-2.79142 4.88429,-1.50906c0.91901,1.28235 -4.01595,1.86583 -3.71658,3.0455c0.47676,1.87867 3.99336,0.57476 2.84142,2.06863z" data-paper-data="{&quot;index&quot;:null}" fill="none" stroke="#ffffff" stroke-width="7.5" stroke-linecap="butt"/><path d="M172.29829,241.90998c0.98086,-0.61117 2.21951,-0.39484 2.76661,0.48318c0.5471,0.87802 0.19547,2.08527 -0.78539,2.69644c-0.98086,0.61117 -2.21951,0.39484 -2.76661,-0.48318c-0.5471,-0.87802 -0.19547,-2.08527 0.78539,-2.69644z" fill="none" stroke="#ffffff" stroke-width="7.5" stroke-linecap="butt"/><path d="M167.55998,297.00772c0,0 2.20599,-12.11366 2.20599,-18.88709c0,-0.61649 -17.26761,12.72237 -17.26761,5.93336c0,-6.21163 14.45542,-18.29611 16.91417,-20.30666c-1.72896,-2.3195 -2.75236,-5.19587 -2.75236,-8.31127c0,-7.68813 6.23246,-13.92058 13.92058,-13.92058c7.68813,0 13.92058,6.23246 13.92058,13.92058c0,3.38128 -1.20554,6.48099 -3.21025,8.89277c3.75253,3.13072 16.21057,13.95863 16.21057,19.72516c0,6.789 -17.26761,-6.54985 -17.26761,-5.93336c0,6.77342 2.206,18.88709 2.206,18.88709c0,0 3.65526,14.8334 -2.3792,14.8334c-6.03446,0 -10.0256,-17.57188 -10.0256,-17.57188c0,0 -4.06163,17.57188 -10.09609,17.57188c-6.03446,0 -2.37919,-14.83341 -2.37919,-14.83341z" fill="none" stroke="#ffffff" stroke-width="7.5" stroke-linecap="butt"/><path d="M167.55998,297.00772c0,0 2.20599,-12.11366 2.20599,-18.88709c0,-0.61649 -17.26761,12.72237 -17.26761,5.93336c0,-6.21163 14.45542,-18.29611 16.91417,-20.30666c-1.72896,-2.3195 -2.75236,-5.19587 -2.75236,-8.31127c0,-7.68813 6.23246,-13.92058 13.92058,-13.92058c7.68813,0 13.92058,6.23246 13.92058,13.92058c0,3.38128 -1.20554,6.48099 -3.21025,8.89277c3.75253,3.13072 16.21057,13.95863 16.21057,19.72516c0,6.789 -17.26761,-6.54985 -17.26761,-5.93336c0,6.77342 2.206,18.88709 2.206,18.88709c0,0 3.65526,14.8334 -2.3792,14.8334c-6.03446,0 -10.0256,-17.57188 -10.0256,-17.57188c0,0 -4.06163,17.57188 -10.09609,17.57188c-6.03446,0 -2.37919,-14.83341 -2.37919,-14.83341z" fill="url(#color-1)" stroke="none" stroke-width="NaN" stroke-linecap="butt"/><path d="M170.03896,291.96922c0,0 2.43628,-1.46542 3.76387,-1.46234c0.7462,0.00173 2.44517,1.27465 3.91467,1.39633c0.74085,0.06134 3.13638,-1.08654 3.94269,-1.05346c0.57775,0.02371 2.6997,1.16145 3.23962,1.2065c1.00692,0.084 2.65373,-1.07335 3.3156,-1.06556c1.81027,0.0213 1.6069,1.02443 1.6069,1.02443" fill="none" stroke="#ffffff" stroke-width="2.5" stroke-linecap="round"/><path d="M160.5671,273.98301c0,0 2.395,0.84642 2.98188,1.50437c0.32987,0.36981 1.04559,2.99205 1.58924,3.74935" fill="none" stroke="#ffffff" stroke-width="2.5" stroke-linecap="round"/><path d="M197.97807,280.97499c0,0 -0.33443,-1.49702 0.26856,-2.14022c0.33892,-0.36153 3.01555,-1.37254 3.72135,-1.98155" fill="none" stroke="#ffffff" stroke-width="2.5" stroke-linecap="round"/><path d="M178.40703,270.00383c-0.25894,-1.1825 0.61929,-2.37938 1.96159,-2.67332c1.3423,-0.29393 2.64036,0.42639 2.8993,1.60889c0.25894,1.1825 -0.61929,2.37939 -1.96159,2.67332c-1.3423,0.29393 -2.64036,-0.42639 -2.8993,-1.60889z" fill="url(#color-2)" stroke="none" stroke-width="0" stroke-linecap="butt"/><path d="M178.69569,276.51094c0.22232,-1.33389 1.37051,-2.2539 2.56456,-2.05489c1.19405,0.19901 1.9818,1.44167 1.75948,2.77556c-0.22232,1.33389 -1.37051,2.25389 -2.56456,2.05489c-1.19405,-0.19901 -1.9818,-1.44167 -1.75948,-2.77556z" fill="url(#color-3)" stroke="none" stroke-width="0" stroke-linecap="butt"/><path d="M179.12367,285.77939c-1.12735,-0.91262 -1.4238,-2.41516 -0.66215,-3.35603c0.76166,-0.94087 2.293,-0.96377 3.42035,-0.05116c1.12735,0.91262 1.4238,2.41516 0.66214,3.35603c-0.76166,0.94087 -2.293,0.96377 -3.42034,0.05116z" fill="url(#color-4)" stroke="none" stroke-width="0" stroke-linecap="butt"/><path d="M167.11565,267.0968c0.43794,-0.93913 1.68639,-1.28381 2.7885,-0.76987c1.10212,0.51394 1.64054,1.69189 1.20261,2.63101c-0.43794,0.93913 -1.68639,1.28381 -2.7885,0.76987c-1.10212,-0.51394 -1.64054,-1.69188 -1.20261,-2.631z" fill="#aa7241" stroke="none" stroke-width="50" stroke-linecap="butt"/><path d="M170.5158,259.48081c-0.87734,-1.36049 -0.29425,-3.29804 1.30236,-4.32764c1.59661,-1.0296 3.60214,-0.76137 4.47948,0.59912c0.87734,1.36049 0.29425,3.29804 -1.30236,4.32764c-1.59661,1.0296 -3.60214,0.76137 -4.47948,-0.59912z" fill="#aa7241" stroke="none" stroke-width="50" stroke-linecap="butt"/><path d="M175.19829,262.43917c-0.32012,-0.49641 -0.10737,-1.20338 0.4752,-1.57906c0.58256,-0.37568 1.31434,-0.2778 1.63445,0.21861c0.32012,0.49641 0.10737,1.20337 -0.4752,1.57905c-0.58256,0.37568 -1.31434,0.2778 -1.63446,-0.2186z" fill="#aa7241" stroke="none" stroke-width="50" stroke-linecap="butt"/><path d="M188.9886,283.64747c1.06991,0.4197 1.53795,1.77781 1.04541,3.0334c-0.49254,1.25559 -1.75917,1.93322 -2.82907,1.51351c-1.06991,-0.4197 -1.53795,-1.7778 -1.04541,-3.0334c0.49254,-1.25559 1.75917,-1.93322 2.82907,-1.51352z" fill="#aa7241" stroke="none" stroke-width="50" stroke-linecap="butt"/><path d="M185.35436,286.69619c0.39038,0.15314 0.56117,0.64867 0.38145,1.10681c-0.17972,0.45813 -0.64188,0.70539 -1.03227,0.55225c-0.39038,-0.15314 -0.56116,-0.64867 -0.38145,-1.10681c0.17972,-0.45813 0.64188,-0.70539 1.03226,-0.55225z" fill="#aa7241" stroke="none" stroke-width="50" stroke-linecap="butt"/><path d="M186.58324,288.65466c0.20813,0.08165 0.29919,0.34584 0.20337,0.5901c-0.09582,0.24426 -0.34223,0.37608 -0.55036,0.29443c-0.20813,-0.08165 -0.29918,-0.34584 -0.20337,-0.5901c0.09582,-0.24426 0.34222,-0.37608 0.55035,-0.29443z" fill="#aa7241" stroke="none" stroke-width="50" stroke-linecap="butt"/><path d="M171.05179,278.99953c0.72943,-0.48613 1.78323,-0.18628 2.35373,0.66974c0.5705,0.85602 0.44167,1.94405 -0.28776,2.43018c-0.72943,0.48613 -1.78323,0.18628 -2.35373,-0.66974c-0.5705,-0.85602 -0.44167,-1.94405 0.28775,-2.43018z" fill="#aa7241" stroke="none" stroke-width="50" stroke-linecap="butt"/><path d="M171.37302,282.6033c0.26615,-0.17738 0.65066,-0.06797 0.85882,0.24437c0.20816,0.31234 0.16115,0.70934 -0.105,0.88672c-0.26615,0.17738 -0.65065,0.06797 -0.85882,-0.24437c-0.20816,-0.31234 -0.16116,-0.70934 0.10499,-0.88672z" fill="#aa7241" stroke="none" stroke-width="50" stroke-linecap="butt"/><path d="M192.97547,277.70796c0.26615,-0.17737 0.65066,-0.06797 0.85882,0.24437c0.20816,0.31234 0.16115,0.70934 -0.105,0.88672c-0.26615,0.17737 -0.65065,0.06797 -0.85881,-0.24437c-0.20816,-0.31234 -0.16116,-0.70934 0.10499,-0.88671z" fill="#aa7241" stroke="none" stroke-width="50" stroke-linecap="butt"/><path d="M194.95035,276.24548c0.46828,-0.31209 1.14481,-0.1196 1.51107,0.42996c0.36625,0.54955 0.28354,1.24806 -0.18474,1.56015c-0.46828,0.31209 -1.1448,0.11959 -1.51106,-0.42996c-0.36625,-0.54955 -0.28356,-1.24806 0.18473,-1.56015z" fill="#aa7241" stroke="none" stroke-width="50" stroke-linecap="butt"/><path d="M194.4114,278.7156c0.46828,-0.31209 1.1448,-0.1196 1.51107,0.42996c0.36625,0.54955 0.28354,1.24806 -0.18474,1.56016c-0.46828,0.31209 -1.14479,0.11959 -1.51105,-0.42996c-0.36625,-0.54955 -0.28356,-1.24806 0.18472,-1.56015z" fill="#aa7241" stroke="none" stroke-width="50" stroke-linecap="butt"/><path d="M205.28122,281.70509c0.26615,-0.17737 0.65065,-0.06797 0.85882,0.24437c0.20816,0.31234 0.16115,0.70934 -0.105,0.88672c-0.26615,0.17737 -0.65065,0.06797 -0.85881,-0.24437c-0.20816,-0.31234 -0.16116,-0.70934 0.10499,-0.88671z" fill="#aa7241" stroke="none" stroke-width="50" stroke-linecap="butt"/><path d="M204.47159,283.56606c0.46828,-0.31209 1.1448,-0.11959 1.51107,0.42997c0.36625,0.54955 0.28354,1.24806 -0.18474,1.56016c-0.46828,0.31209 -1.14479,0.11958 -1.51105,-0.42997c-0.36625,-0.54955 -0.28356,-1.24806 0.18472,-1.56014z" fill="#aa7241" stroke="none" stroke-width="50" stroke-linecap="butt"/><path d="M161.85287,279.58002c0.26615,-0.17737 0.65066,-0.06797 0.85882,0.24437c0.20816,0.31234 0.16115,0.70934 -0.105,0.88672c-0.26615,0.17737 -0.65065,0.06797 -0.85881,-0.24437c-0.20816,-0.31234 -0.16116,-0.70934 0.10499,-0.88671z" fill="#aa7241" stroke="none" stroke-width="50" stroke-linecap="butt"/><path d="M167.67206,249.4272c-1.86144,-0.30608 1.59905,-1.75236 0.6657,-3.45105c-0.58607,-1.06666 -4.59186,1.87407 -4.79501,0.30955c-0.20316,-1.56452 4.08941,-0.67134 4.60029,-2.22952c0.51088,-1.55819 -2.115,-1.45824 -1.12606,-1.90302c0.98894,-0.44478 3.96165,-0.79069 4.54188,0.68131c0.22383,0.56784 0.54025,1.37059 0.85236,2.1624c0.24636,0.625 0.72704,2.6751 -1.01747,3.47267c-1.74451,0.79757 -0.06678,-2.79281 -0.92582,-2.41413c-0.85903,0.37867 -0.93443,3.67786 -2.79587,3.37178z" fill="url(#color-5)" stroke="none" stroke-width="0" stroke-linecap="butt"/><path d="M181.51715,243.96982c-1.15194,1.49388 -3.4582,-0.86652 -4.34457,-0.5572c-0.88637,0.30932 2.78995,1.78926 0.97043,2.39654c-1.81952,0.60727 -2.86697,-1.21941 -3.11333,-1.84442c-0.31211,-0.7918 -0.62853,-1.59456 -0.85236,-2.1624c-0.58023,-1.472 1.82898,-3.2475 2.85542,-3.59714c1.02644,-0.34964 -0.96138,1.36903 0.47529,2.15954c1.43668,0.79051 3.96528,-2.79142 4.88429,-1.50906c0.91901,1.28235 -4.01595,1.86583 -3.71658,3.0455c0.47676,1.87867 3.99336,0.57476 2.84142,2.06863z" data-paper-data="{&quot;index&quot;:null}" fill="url(#color-6)" stroke="none" stroke-width="0" stroke-linecap="butt"/><path d="M172.2983,241.90998c0.98086,-0.61117 2.21951,-0.39484 2.76661,0.48318c0.5471,0.87802 0.19547,2.08527 -0.78539,2.69644c-0.98086,0.61117 -2.21951,0.39484 -2.76661,-0.48318c-0.5471,-0.87802 -0.19547,-2.08527 0.78539,-2.69644z" fill="url(#color-7)" stroke="none" stroke-width="0" stroke-linecap="butt"/><path d="M185.24351,253.1758l0.15044,2.03917" data-paper-data="{&quot;index&quot;:null}" fill="none" stroke="#ffffff" stroke-width="3.5" stroke-linecap="round"/><path d="M175.90697,254.17974l0.90869,-2.81771" data-paper-data="{&quot;index&quot;:null}" fill="none" stroke="#ffffff" stroke-width="3.5" stroke-linecap="round"/><path d="M188.04637,258.70323c0,0 -2.66928,1.965 -8.06945,1.80128c-4.31823,-0.13093 -7.27833,-2.2237 -7.27833,-2.2237" fill="none" stroke="#ffffff" stroke-width="3.5" stroke-linecap="round"/></g></g></svg>