<svg version="1.1" xmlns="http://www.w3.org/2000/svg" xmlns:xlink="http://www.w3.org/1999/xlink" width="73.27702" height="96.57254" viewBox="0,0,73.27702,96.57254"><g transform="translate(-143.36149,-226.71373)"><g data-paper-data="{&quot;isPaintingLayer&quot;:true}" fill-rule="nonzero" stroke-linecap="butt" stroke-linejoin="miter" stroke-miterlimit="10" stroke-dasharray="" stroke-dashoffset="0" style="mix-blend-mode: normal"><path d="M156.73021,319.53627c-1.38957,0 -2.61364,-0.70856 -3.33063,-1.78408l-1.18276,0.1261c-1.79592,0 -3.3154,-1.18354 -3.82101,-2.8132c-0.78984,-0.7307 -1.28432,-1.77605 -1.28432,-2.93689v-73.4274c0,-1.35494 0.67368,-2.55254 1.70437,-3.2761c0.48631,-1.36608 1.6942,-2.38993 3.16498,-2.61285c0.62881,-1.38495 2.02395,-2.34812 3.64405,-2.34812h53.26362c2.20914,0 4,1.79086 4,4v73.4274c0,2.20914 -1.79086,4 -4,4z" fill="none" stroke-opacity="0.19608" stroke="#000000" stroke-width="7.5"/><path d="M156.73021,319.53627c-2.20914,0 -4,-1.79086 -4,-4l-0.73688,-74.80905c0,-2.20914 1.79086,-4 4,-4l52.89518,-6.26349c2.20914,0 4,1.79086 4,4v73.4274c0,2.20914 -1.79086,4 -4,4z" fill="#1958d6" stroke="none" stroke-width="0"/><path d="M152.21682,317.87829c-2.20914,0 -4,-1.79086 -4,-4v-73.4274c0,-2.20914 1.79086,-4 4,-4l56.2504,-3.46093l0.27633,78.8619z" fill="#a6a6a6" stroke="none" stroke-width="0"/><path d="M151.11149,316.1282c-2.20914,0 -4,-1.79086 -4,-4v-73.4274c0,-2.20914 1.79086,-4 4,-4l57.35573,-1.71083l0.27633,78.8619z" fill="#c7c7c7" stroke="none" stroke-width="0"/><path d="M152.58526,314.19388c-2.20914,0 -4,-1.79086 -4,-4v-73.4274c0,-2.20914 1.79086,-4 4,-4l55.69775,-0.69762l0.27633,78.8619z" fill="#ffffff" stroke="none" stroke-width="0"/><path d="M155.62489,311.89113c-2.20914,0 -4,-1.79086 -4,-4v-73.4274c0,-2.20914 1.79086,-4 4,-4h53.26362c2.20914,0 4,1.79086 4,4v73.4274c0,2.20914 -1.79086,4 -4,4z" fill="#91b6ff" stroke="none" stroke-width="0"/><path d="M208.88851,230.46373c2.20914,0 4,1.79086 4,4v73.4274c0,2.20914 -1.79086,4 -4,4z" fill="#508aff" stroke="none" stroke-width="0"/><path d="M165.81458,255.86552c-2.20914,0 -4,-1.79086 -4,-4v-10.4949c0,-2.20914 1.79086,-4 4,-4h33.64541c2.20914,0 4,1.79086 4,4v10.4949c0,2.20914 -1.79086,4 -4,4z" fill="#dbc9ff" stroke="none" stroke-width="0"/><path d="M162.98646,251.45326v-0.00068h1.78246c0.27076,0.89141 0.97011,1.62406 1.88695,2.00839v1.67072c-2.03604,-0.05446 -3.66941,-1.6805 -3.66941,-3.67843zM200.7498,251.45258h1.53832v0.00068c0,1.87822 -1.4435,3.42779 -3.30804,3.65197v-1.69584c0.85905,-0.39615 1.51063,-1.10379 1.76972,-1.95682zM194.58555,255.1331v-1.38036h2.24609v1.38036zM189.50743,255.1331v-1.38036h2.92969v1.38036zM184.33165,255.1331v-1.38036h3.02734v1.38036zM179.25352,255.1331v-1.38036h2.92969v1.38036zM173.88243,255.1331v-1.38036h3.22266v1.38036zM168.8043,255.1331v-1.38036h2.92969v1.38036zM162.98646,247.69281h1.66016v1.9043h-1.66016zM200.8721,247.69281h1.41602v1.9043h-1.41602zM162.98646,244.07953h1.66016v1.75781h-1.66016zM200.8721,244.07953h1.41602v1.75781h-1.41602zM162.98646,241.79836c0,-1.99794 1.63337,-3.62398 3.66941,-3.67843v1.4793c-1.12081,0.46983 -1.91662,1.46022 -2.0017,2.62483h-1.66771zM202.28812,241.79836v0.4257h-1.42357c-0.08208,-1.12358 -0.82569,-2.085 -1.88446,-2.57325v-1.50442c1.86453,0.22419 3.30804,1.77375 3.30804,3.65197zM194.58555,239.30746v-1.18895h2.24609v1.18895zM189.50743,239.30746v-1.18895h2.92969v1.18895zM184.33165,239.30746v-1.18895h3.02734v1.18895zM179.25352,239.30746v-1.18895h2.92969v1.18895zM173.88243,239.30746v-1.18895h3.22266v1.18895zM168.8043,239.30746v-1.18895h2.92969v1.18895z" fill="#2658bb" stroke="none" stroke-width="0"/><path d="M169.88459,286.24781c-1.2823,4.41327 0.53951,9.47349 6.29513,7.5424c3.69625,-1.24014 7.4194,-4.43047 9.46952,-7.7104c0.40626,-0.64997 0.73737,-1.84687 0.77635,-2.59785c0.30697,-5.9131 -4.24222,-5.57489 -8.79345,-3.15832c-0.88042,0.46748 -1.59405,1.72205 -2.57153,1.52656c-1.15562,-0.23113 -1.44453,-0.66449 -1.2134,-1.82011c0.24497,-1.22481 3.82986,-2.46005 4.87581,-2.78193c6.58218,-2.02558 10.08201,-0.76153 10.20551,6.29679c0.13676,7.81663 -16.00876,18.96026 -21.33443,9.53562c-1.39006,-2.45995 -0.98359,-5.96128 0.27083,-8.44405c0.11855,-0.23465 2.84142,-3.78442 3.65168,-2.36647c0.36843,0.21744 0.61559,0.61849 0.61559,1.07727c0,0.61703 -0.44708,1.12965 -1.03496,1.23158c-0.51992,0.53566 -1.04202,1.08173 -1.21263,1.6689z" fill="#0f2249" stroke="none" stroke-width="0.5"/><path d="M174.58262,279.7909c3.14201,1.8852 4.07291,7.22399 4.47803,10.43298c0.11229,0.8895 0.42432,3.59479 -0.42176,4.17368c-0.41313,0.28267 -0.74314,0.42795 -1.03711,0.42703c-0.46954,3.06794 -2.38947,-1.17676 -2.42273,-2.77565c-0.03083,-1.4826 -0.14199,-3.00202 -0.57193,-4.42921c-0.30859,-1.02436 -3.56339,-3.12695 -3.60228,-3.82707c-0.12702,-0.19565 -0.20078,-0.42907 -0.20078,-0.67971c0,-0.69036 0.55964,-1.25 1.25,-1.25c0.19002,0 0.37015,0.0424 0.53142,0.11826c0.11536,-0.01963 0.22875,-0.02774 0.34015,-0.02499c-0.39474,-1.00804 0.18224,-3.05018 1.65699,-2.16532z" fill="#0f2249" stroke="none" stroke-width="0.5"/><path d="M184.53705,288.55283c-0.14343,0.60163 -0.51745,1.18968 -0.97251,1.49354c-0.36313,1.48275 -2.29677,3.47438 -3.00458,0.87908c-0.42945,-1.57467 0.89278,-4.23389 0.29229,-6.29653c-0.43685,-1.50056 -2.21865,-3.41904 -2.48755,-4.37512c-0.23033,-0.22674 -0.37314,-0.54212 -0.37314,-0.89085c0,-0.69036 0.55964,-1.25 1.25,-1.25c0.08031,0 0.15884,0.00757 0.23493,0.02204c0.30387,-0.0854 0.59115,-0.05689 0.86184,0.06562c-0.002,-0.02896 -0.00302,-0.05819 -0.00302,-0.08766c0,-0.0036 0.00001,-0.00721 0.00005,-0.01081c0.00581,-0.68538 0.56321,-1.23919 1.24996,-1.23919c0.64408,0 1.17438,0.48713 1.24258,1.11306c2.02865,2.61716 2.35271,7.87739 1.70915,10.57682z" fill="#0f2249" stroke="none" stroke-width="0.5"/><path d="M174.30073,279.71012c0.72306,-0.24102 2.16185,0.18835 1.97208,1.13721c-0.18676,0.93378 -4.45703,3.64208 -5.23873,4.17316c-0.06233,0.04235 -0.1359,0.07773 -0.21735,0.10577c-0.14818,0.06189 -0.3108,0.09607 -0.48142,0.09607c-0.11381,0 -0.22406,-0.01521 -0.32885,-0.0437c-0.56557,-0.09559 -1.07841,-0.46382 -0.92073,-1.17338c-0.00028,-0.01094 -0.00042,-0.02191 -0.00042,-0.03292c0,-0.3121 0.11438,-0.59749 0.30351,-0.81653c0.89548,-1.77218 3.076,-2.83371 4.91191,-3.44568z" fill="#0f2249" stroke="none" stroke-width="0.5"/><path d="M191.64781,277.44108c0.64413,1.12722 -3.74465,6.58668 -4.74067,6.33767c-2.335,-0.58375 0.05886,-3.15457 0.39622,-4.01903c0.21956,-0.56261 -1.28288,0.28538 -1.81179,-0.00615c-0.39689,-0.21875 -1.04411,-1.54622 -0.45227,-1.88442c0.21744,-0.36843 0.61849,-0.61558 1.07727,-0.61558c0.08528,0 0.16858,0.00854 0.24907,0.02481c1.32537,0.03424 4.59515,-1.03963 5.28218,0.16269z" fill="#0f2249" stroke="none" stroke-width="0.5"/><path d="M195.28385,271.07667c-0.87695,-1.4368 -3.45108,-0.73638 -3.7469,-2.06755c-0.38135,-1.71609 1.82167,-1.73141 2.82899,-1.59308c3.2381,0.44466 4.43555,4.75416 2.77116,7.25074c-0.37153,0.5573 -2.4779,2.23751 -3.07852,1.70011c-0.56501,-0.12007 -0.98889,-0.62187 -0.98889,-1.22269c0,-0.64452 0.48779,-1.17511 1.11433,-1.24273c0.90732,-0.7536 1.88327,-1.54122 1.09983,-2.82482z" fill="#0f2249" stroke="none" stroke-width="0.5"/><path d="M188.92906,268.34733c-0.38008,0.50869 -0.90764,0.91159 -1.5277,1.21904c-2.15781,1.06995 -5.43579,0.98396 -7.51645,0.17781c-0.95794,-0.37115 -3.27166,-1.82657 -2.58174,-3.20641c0.8951,-1.79019 3.18717,0.99354 4.92934,1.3408c0.76592,0.15267 5.98173,-1.637 6.32342,-0.4221z" fill="#0f2249" stroke="none" stroke-width="0.5"/><path d="M180.08695,263.82074c-0.30652,-1.57892 3.00662,-4.7464 4.62336,-3.12966c2.12667,2.12667 -1.27718,1.9373 -2.10941,2.97758c-0.00047,0.06854 -0.00646,0.13576 -0.01755,0.20126c0.06686,0.8691 -0.51006,1.13047 -1.12768,1.03559c-0.03454,0.00286 -0.06946,0.00432 -0.10474,0.00432c-0.55856,0 -1.03157,-0.36636 -1.1918,-0.8719c-0.03316,-0.07004 -0.05771,-0.14264 -0.07218,-0.21719z" fill="#0f2249" stroke="none" stroke-width="0.5"/><g fill="#0f2249" stroke="none" stroke-width="0.5"><path d="M167.75308,252.39602c-0.01702,0 -0.03393,-0.00046 -0.05072,-0.00138l-0.01262,0.00631l-0.02582,-0.00922c-0.15786,-0.01529 -0.30396,-0.07076 -0.42795,-0.15605l-0.15085,-0.10057l-0.01398,-0.00078l-0.1538,-0.17943l-0.15896,-0.17486l0.00096,-0.01397l-0.10879,-0.21758l-0.01726,-0.07766l-0.04066,-0.06838l-0.17128,-0.57094l-0.00411,-0.08835l-0.02988,-0.08325l-0.05709,-0.57094l0.00672,-0.0459l-0.01125,-0.045v-1.59863l0.01125,-0.045l-0.00672,-0.0459l0.11419,-1.14188l0.01033,-0.02879l-0.00244,-0.03049l0.11419,-0.68513l0.01485,-0.03414v-0.03724l0.22838,-0.91351l0.0267,-0.05006l0.00691,-0.05631l0.28547,-0.74222l0.0338,-0.04815l0.0145,-0.05702l0.39966,-0.74222l0.01466,-0.01609l0.00634,-0.02082l0.17128,-0.28547l0.01595,-0.01595l0.00138,-0.02472l0.1634,-0.14006l0.15218,-0.15218l0.02475,0.00053l0.01713,-0.01468l0.22838,-0.11419l0.1332,-0.0296l0.12514,-0.05441l0.34257,-0.05709l0.07611,0.00609l0.07407,-0.01852h0.39966l0.16784,0.04196l0.17142,0.02338l0.57094,0.22838l0.10908,0.07877l0.12232,0.05606l0.28547,0.22838l0.03117,0.04092l0.04411,0.02647l0.18623,0.18623l0.01006,0.00202l0.01409,0.02213l0.018,0.01799l0.10799,0.17999l0.11269,0.17708l0.00805,0.02415l0.0135,0.0225l-0.0027,0.0099l0.15243,0.4573l0.01126,0.14641l0.03562,0.14246v0.34257l-0.02441,0.0976l0.00265,0.10056l-0.11419,0.51384l-0.07515,0.15031l-0.05652,0.15825l-0.22837,0.34256l-0.12211,0.111l-0.07974,0.09361l0.0409,0.03117l0.22838,0.28547l0.01246,0.02719l0.02258,0.01961l0.39966,0.57094l0.0339,0.08853l0.05736,0.07549l0.17128,0.39966l0.01753,0.10869l0.0439,0.10097l0.05709,0.34256l-0.00609,0.07611l0.01852,0.07407v0.45675l-0.00891,0.03566l0.01384,0.02768l-0.06921,0.19378l-0.04991,0.19963l-0.02687,0.01535l-0.01236,0.03461l-0.22838,0.34256l-0.03673,0.03339l-0.02158,0.0447l-0.57094,0.68513l-0.08629,0.06305l-0.06739,0.08294l-0.45675,0.34256l-0.14778,0.06222l-0.13783,0.08195l-0.57095,0.17128l-0.06427,0.00299l-0.05932,0.02492l-0.74222,0.11419l-0.07035,-0.00652l-0.06855,0.01714h-0.14327c-0.16741,0.20884 -0.42466,0.34256 -0.71315,0.34256zM169.74595,249.84513l0.47139,-0.56567l0.04789,-0.07183v-0.10456l-0.02658,-0.15946l-0.09077,-0.21181l-0.32878,-0.46968l-0.13765,-0.17207l-0.24538,-0.18404l-0.06129,-0.02043h-0.03577l-0.0355,0.01775l-0.06418,0.01426l-0.05547,0.0353l-0.34256,0.11419l-0.1433,0.01102l-0.01754,0.01053l-0.01277,-0.00348l-0.11526,0.02881h-0.11419l-0.04856,-0.01214l-0.0178,0.00137l-0.00903,-0.00808l-0.17083,-0.0427l-0.03925,0.39258v1.50751l0.00931,0.09315l0.22063,0.03079l0.10834,0.15h0.04861l0.61041,-0.09391l0.35449,-0.10635zM169.51787,245.64923l0.25143,-0.17959l0.04085,-0.06128l0.05541,-0.24938v-0.09405l-0.05621,-0.16862l-0.04011,-0.04011l-0.14026,-0.11221l-0.28191,-0.11276h-0.14812l-0.02884,0.0048l-0.35685,0.66271l-0.24459,0.63595l-0.05546,0.22183l0.01232,-0.00095l0.08485,-0.03284l0.22536,-0.02817l0.05658,-0.02829z"/><path d="M178.49698,251.02917c-0.31532,0.94596 -2.666,0.96266 -4.14289,0.50877c-0.16127,0.14313 -0.37355,0.23005 -0.60613,0.23005c-0.48189,0 -0.87664,-0.37313 -0.91107,-0.84624c-0.75092,-1.47618 -0.27569,-5.44919 0.90212,-6.15588c1.1972,-0.71832 6.48456,0.53503 5.26775,2.27332c-0.22296,0.3185 -0.51549,0.39909 -0.84741,0.34875c0.20603,0.17143 0.32741,0.3928 0.32741,0.66892c0,0.97337 -2.55602,1.373 -3.93301,1.12114c0.01841,0.15053 0.03648,0.29673 0.05241,0.43561c1.84574,-0.3185 4.39533,-0.09798 3.89082,1.41554zM174.59426,247.17326c0.78512,-0.2424 1.75915,-0.32344 2.53646,-0.19255c-0.7817,-0.41738 -1.60855,-0.95824 -2.21668,-0.68778c-0.27071,0.12039 -0.40434,0.42768 -0.45804,0.82834c0.0478,0.01365 0.09401,0.0311 0.13827,0.05199z"/><path d="M185.283,251.57505c-0.36663,0.49995 -1.99407,0.36618 -3.24687,0.02824c-0.14823,0.10379 -0.32869,0.16469 -0.52338,0.16469c-0.46526,0 -0.84927,-0.34782 -0.90622,-0.79761c-0.0012,-0.00434 -0.0024,-0.00869 -0.00359,-0.01303c-0.04819,-0.05287 -0.07793,-0.10539 -0.08624,-0.15677c-0.12691,-0.15688 -0.20292,-0.35663 -0.20292,-0.57413c0,-0.1394 0.03122,-0.2715 0.08706,-0.3897c-0.30676,-3.52365 2.54201,-6.3483 5.90429,-3.82909c0.78405,0.58745 0.45684,1.46555 -0.45322,1.71375c-0.47784,0.13032 -2.30651,-1.37678 -2.65994,-0.96052c-0.16269,0.19161 -0.30147,0.46977 -0.41593,0.79511c1.75787,-0.17222 3.69339,0.71849 2.46574,1.94613c-0.1038,0.1038 -1.64302,0.12768 -2.83484,-0.09495c-0.00411,0.04833 -0.00781,0.09634 -0.01108,0.14394c1.72116,0.06129 3.6126,1.03466 2.88715,2.02393z"/><path d="M189.39174,247.12714c0.32102,1.65942 4.05236,1.12663 3.8253,3.27059c-0.21273,2.00876 -3.85134,2.9049 -5.39529,1.97665c-2.65025,-1.59337 3.04173,-1.73659 3.31434,-2.01864c0.4625,-0.47851 -1.23505,-0.49811 -1.8369,-0.78212c-1.14899,-0.5422 -1.74016,-1.60948 -1.74016,-2.83594c0,-1.85422 4.30805,-2.53319 4.49679,-1.18058c0.1195,0.15443 0.19062,0.3482 0.19062,0.55857c0,0.50451 -0.409,0.91351 -0.91351,0.91351c-0.1943,0 -0.37444,-0.06067 -0.52249,-0.16408c-0.7879,0.12595 -1.4758,-0.03312 -1.4187,0.26204z"/><path d="M194.07345,252.22474c0,-1.60129 2.47672,-2.88294 2.28376,-0.68513c-0.03453,0.3933 -0.19339,0.7365 -0.41282,1.01178c-0.07376,0.43051 -0.44879,0.75814 -0.90035,0.75814c-0.09298,0 -0.18271,-0.01389 -0.26723,-0.03971c-0.4886,0.06555 -0.85633,-0.20483 -0.67482,-0.9309z"/><path d="M194.42055,248.31905c-0.12487,-1.93307 0.79898,-4.00219 1.49092,-5.7377c0.29069,-0.72909 0.84536,-2.26254 1.88694,-1.97847c3.25584,0.88796 -1.56165,7.20377 -1.38039,8.11007c0.13992,0.1605 0.22466,0.37035 0.22466,0.6c0,0.50451 -0.409,0.91351 -0.91351,0.91351c-0.21958,0 -0.42105,-0.07747 -0.5786,-0.20657c-0.40896,-0.2107 -0.67464,-0.84352 -0.73002,-1.70083z"/></g></g></g></svg>