<svg version="1.1" xmlns="http://www.w3.org/2000/svg" xmlns:xlink="http://www.w3.org/1999/xlink" width="43.41341" height="38.74697" viewBox="0,0,43.41341,38.74697"><defs><linearGradient x1="162.03233" y1="251.88781" x2="164.09577" y2="260.83493" gradientUnits="userSpaceOnUse" id="color-1"><stop offset="0" stop-color="#ffd200"/><stop offset="1" stop-color="#ff9f00"/></linearGradient><linearGradient x1="197.81712" y1="283.95808" x2="199.30986" y2="290.43066" gradientUnits="userSpaceOnUse" id="color-2"><stop offset="0" stop-color="#ffd200"/><stop offset="1" stop-color="#ff9f00"/></linearGradient></defs><g transform="translate(-158.47205,-251.76937)"><g data-paper-data="{&quot;isPaintingLayer&quot;:true}" fill-rule="nonzero" stroke="none" stroke-width="0" stroke-linecap="butt" stroke-linejoin="miter" stroke-miterlimit="10" stroke-dasharray="" stroke-dashoffset="0" style="mix-blend-mode: normal"><path d="M158.5905,257.39309c-0.5698,-2.47068 0.97116,-4.93547 3.44184,-5.50527c2.47068,-0.5698 4.93547,0.97116 5.50527,3.44184c0.5698,2.47068 -0.97116,4.93547 -3.44184,5.50527c-2.47068,0.5698 -4.93547,-0.97116 -5.50527,-3.44184z" fill="url(#color-1)"/><path d="M195.3272,287.94074c-0.41221,-1.78735 0.70256,-3.57045 2.48992,-3.98266c1.78735,-0.41221 3.57045,0.70256 3.98266,2.48991c0.41221,1.78735 -0.70256,3.57045 -2.48992,3.98266c-1.78735,0.41221 -3.57045,-0.70256 -3.98266,-2.48992z" fill="url(#color-2)"/></g></g></svg>