<svg version="1.1" xmlns="http://www.w3.org/2000/svg" xmlns:xlink="http://www.w3.org/1999/xlink" width="94.61538" height="94.61538" viewBox="0,0,94.61538,94.61538"><defs><linearGradient x1="179.59477" y1="251.30187" x2="179.59477" y2="304.88078" gradientUnits="userSpaceOnUse" id="color-1"><stop offset="0" stop-color="#39b943"/><stop offset="1" stop-color="#00ba10"/></linearGradient><linearGradient x1="186.85404" y1="297.0096" x2="186.85404" y2="302.17103" gradientUnits="userSpaceOnUse" id="color-2"><stop offset="0" stop-color="#ff5858"/><stop offset="1" stop-color="#ff3a3a"/></linearGradient><linearGradient x1="189.25012" y1="283.75844" x2="189.25012" y2="290.01264" gradientUnits="userSpaceOnUse" id="color-3"><stop offset="0" stop-color="#ff5858"/><stop offset="1" stop-color="#ff3a3a"/></linearGradient><linearGradient x1="190.234" y1="270.88297" x2="190.234" y2="278.92734" gradientUnits="userSpaceOnUse" id="color-4"><stop offset="0" stop-color="#ff5858"/><stop offset="1" stop-color="#ff3a3a"/></linearGradient><linearGradient x1="189.20439" y1="257.51075" x2="189.20439" y2="268.23678" gradientUnits="userSpaceOnUse" id="color-5"><stop offset="0" stop-color="#ff5858"/><stop offset="1" stop-color="#ff3a3a"/></linearGradient><linearGradient x1="182.18684" y1="245.11922" x2="182.18684" y2="259.18842" gradientUnits="userSpaceOnUse" id="color-6"><stop offset="0" stop-color="#ff5858"/><stop offset="1" stop-color="#ff3a3a"/></linearGradient><linearGradient x1="170.70965" y1="256.3395" x2="170.70965" y2="264.03383" gradientUnits="userSpaceOnUse" id="color-7"><stop offset="0" stop-color="#ff5858"/><stop offset="1" stop-color="#ff3a3a"/></linearGradient></defs><g transform="translate(-132.69231,-227.69231)"><g data-paper-data="{&quot;isPaintingLayer&quot;:true}" fill-rule="nonzero" stroke-linejoin="miter" stroke-miterlimit="10" stroke-dasharray="" stroke-dashoffset="0" style="mix-blend-mode: normal"><path d="M168.84209,264.70379c0,0 6.15944,-22.07436 16.79765,-9.56282c10.63821,12.51154 -0.07895,49.73981 -0.07895,49.73981" fill="none" stroke="#ffffff" stroke-width="20.5" stroke-linecap="round"/><path d="M168.84209,264.70379c0,0 6.15944,-22.07436 16.79765,-9.56282c10.63821,12.51154 -0.07895,49.73981 -0.07895,49.73981" fill="none" stroke="url(#color-1)" stroke-width="12.5" stroke-linecap="round"/><path d="M179.81624,302.17103l1.24901,-5.16143h12.82659l-1.15762,5.16143z" fill="url(#color-2)" stroke="none" stroke-width="0" stroke-linecap="butt"/><path d="M182.43748,290.01264l0.83854,-5.24379l12.78673,-1.01041l-0.74743,5.23658z" fill="url(#color-3)" stroke="none" stroke-width="0" stroke-linecap="butt"/><path d="M183.86901,278.92734c0,0 0.15231,-2.07784 0.17881,-3.01814c0.02282,-0.80982 0.04128,-2.29092 0.04128,-2.29092l12.49393,-2.73531c0,0 0.02016,1.72263 0.01516,2.59593c-0.0051,0.88959 -0.04546,2.69363 -0.04546,2.69363z" fill="url(#color-4)" stroke="none" stroke-width="0" stroke-linecap="butt"/><path d="M183.83324,268.23678c0,0 -0.31888,-2.05474 -0.51599,-2.97453c-0.16976,-0.79216 -0.50285,-2.23543 -0.50285,-2.23543l11.3361,-5.51607c0,0 0.73502,1.74556 0.93714,2.59518c0.20588,0.86544 0.50674,2.42288 0.50674,2.42288z" fill="url(#color-5)" stroke="none" stroke-width="0" stroke-linecap="butt"/><path d="M180.88328,259.18842c0,0 -0.84923,-0.84017 -1.63899,-1.35118c-0.68018,-0.4401 1.10976,-12.71802 1.10976,-12.71802c0,0 1.56007,0.1471 2.7079,0.51187c1.14783,0.36477 2.22167,1.05468 2.22167,1.05468z" fill="url(#color-6)" stroke="none" stroke-width="0" stroke-linecap="butt"/><path d="M178.01829,259.34574c0,0 -0.92486,1.64436 -1.35119,2.48287c-0.36718,0.72216 -0.98719,2.20522 -0.98719,2.20522l-12.2789,-2.85709c0,0 0.52876,-1.8187 0.90699,-2.60586c0.38529,-0.80184 1.0718,-2.23138 1.0718,-2.23138z" fill="url(#color-7)" stroke="none" stroke-width="0" stroke-linecap="butt"/><path d="M132.69231,322.30769v-94.61538h94.61538v94.61538z" fill="none" stroke="none" stroke-width="0" stroke-linecap="butt"/></g></g></svg>