<svg version="1.1" xmlns="http://www.w3.org/2000/svg" xmlns:xlink="http://www.w3.org/1999/xlink" width="57.0333" height="57.03331" viewBox="0,0,57.0333,57.03331"><g transform="translate(-151.48335,-246.48338)"><g data-paper-data="{&quot;isPaintingLayer&quot;:true}" fill-rule="nonzero" stroke="none" stroke-width="0" stroke-linecap="butt" stroke-linejoin="miter" stroke-miterlimit="10" stroke-dasharray="" stroke-dashoffset="0" style="mix-blend-mode: normal"><path d="M156.61252,275.00003c0,-12.91656 10.47093,-23.38748 23.38749,-23.38748c12.91655,0 23.38749,10.47093 23.38749,23.38749c0,12.91656 -10.47093,23.38749 -23.38748,23.38749c-12.91655,0 -23.38748,-10.47093 -23.38748,-23.38749z" fill="#993a3a"/><path d="M151.48335,275.00004c0,-15.74932 12.76734,-28.51665 28.51665,-28.51665c15.74931,0 28.51665,12.76734 28.51665,28.51665c0,15.74932 -12.76734,28.51666 -28.51665,28.51666c-15.74931,0 -28.51665,-12.76734 -28.51665,-28.51666z" fill="none"/><path d="M159.03187,275.00004c0,-11.58038 9.38775,-20.96813 20.96813,-20.96813c11.58038,0 20.96813,9.38775 20.96813,20.96813c0,11.58038 -9.38775,20.96813 -20.96813,20.96813c-11.58038,0 -20.96813,-9.38775 -20.96813,-20.96813z" fill="#ffc054"/><path d="M159.15312,272.73188c0.43991,-4.08991 2.05582,-7.82764 4.50283,-10.86827l2.81365,2.81365c-1.75429,2.29591 -2.93746,5.05147 -3.33742,8.05462zM166.86359,258.65596c3.04063,-2.447 6.77836,-4.06292 10.86827,-4.50283v3.97904c-3.00314,0.39997 -5.75872,1.58314 -8.05462,3.33743zM182.26815,254.15316c4.08991,0.43991 7.82764,2.05582 10.86827,4.50283l-2.81365,2.81364c-2.29591,-1.75429 -5.05148,-2.93746 -8.05462,-3.33743zM196.34406,261.86359c2.447,3.04063 4.06292,6.77836 4.50283,10.86827h-3.97905c-0.39997,-3.00315 -1.58314,-5.75871 -3.33742,-8.05462zM200.84688,277.26815c-0.43991,4.08991 -2.05582,7.82764 -4.50283,10.86827l-2.81366,-2.81366c1.75429,-2.29591 2.93746,-5.05147 3.33743,-8.05461zM193.13642,291.34407c-3.04063,2.447 -6.77836,4.06292 -10.86827,4.50283v-3.97907c3.00313,-0.39997 5.7587,-1.58314 8.05461,-3.33742zM177.73186,295.8469c-4.08991,-0.43991 -7.82764,-2.05583 -10.86827,-4.50283l2.81366,-2.81366c2.29591,1.75428 5.05147,2.93745 8.05461,3.33742zM163.65595,288.13642c-2.447,-3.04063 -4.06292,-6.77836 -4.50283,-10.86827h3.97905c0.39997,3.00314 1.58315,5.7587 3.33743,8.05461z" fill="#ffa200"/><path d="M171.56315,285.65951l2.37206,-8.03697l-10.38917,-0.8047l9.47515,-3.34844l-5.55568,-5.82669l11.29073,-0.81663l4.72022,-5.69238l2.2236,6.25644l6.01502,-3.46873l-3.61909,5.89814l8.35796,2.17311l-7.66079,2.53199l2.34505,14.34171l-13.62248,-7.47205z" fill="#ff6666"/><path d="M175.50934,280.55503l1.26313,-4.2797l-5.53225,-0.4285l5.04553,-1.78305l-2.95841,-3.10272l6.01232,-0.43486l2.51352,-3.0312l1.18407,3.33156l3.203,-1.8471l-1.92717,3.14076l4.45062,1.15719l-4.07938,1.34829l1.24874,7.63698l-7.25399,-3.97887z" fill="#fffe66"/></g></g></svg>