<svg version="1.1" xmlns="http://www.w3.org/2000/svg" xmlns:xlink="http://www.w3.org/1999/xlink" width="62.22231" height="68.34994" viewBox="0,0,62.22231,68.34994"><defs><radialGradient cx="180" cy="275.00001" r="29.82915" gradientUnits="userSpaceOnUse" id="color-1"><stop offset="0" stop-color="#33daff" stop-opacity="0.78039"/><stop offset="1" stop-color="#4362f0" stop-opacity="0.23922"/></radialGradient></defs><g transform="translate(-147.60684,-245.17084)"><g data-paper-data="{&quot;isPaintingLayer&quot;:true}" fill-rule="nonzero" stroke-linejoin="miter" stroke-miterlimit="10" stroke-dasharray="" stroke-dashoffset="0" style="mix-blend-mode: normal"><path d="M150.17085,275c0,-3.27462 0.52766,-6.42599 1.5026,-9.37374c0.86362,-2.61118 -4.06661,-13.12695 -4.06661,-13.12695c0,0 9.46959,3.35227 10.51036,2.2293c5.44816,-5.87846 13.23581,-9.55776 21.8828,-9.55776c7.64117,0 14.61128,2.87313 19.88897,7.598c1.48682,1.33108 5.64983,2.58546 5.64983,2.58546c0,0 0.05733,4.24848 0.75712,5.55135c2.25439,4.19722 3.53324,8.99644 3.53324,14.09434c0,8.38977 -3.46365,15.97055 -9.03902,21.39042c-0.38722,0.37642 2.38969,5.10035 2.38969,5.10035c0,0 -4.34748,-3.35142 -4.74277,-3.04021c-5.07452,3.99516 -11.47744,6.3786 -18.43705,6.3786c-1.57592,0 -3.12328,-0.12221 -4.63315,-0.35766c-0.84655,-0.13202 -4.82012,9.04929 -4.82012,9.04929c0,0 0.0105,-10.19216 -1.09796,-10.61144c-11.26677,-4.26168 -19.27792,-15.14996 -19.27792,-27.90935z" fill="url(#color-1)" stroke="none" stroke-width="0" stroke-linecap="butt"/><path d="M155.97444,273.01157c0,0 -0.39124,-6.41831 4.87474,-12.73796c4.51238,-5.41527 8.93575,-7.12091 8.93575,-7.12091" fill="none" stroke-opacity="0.14902" stroke="#ffffff" stroke-width="4.5" stroke-linecap="round"/><path d="M176.33735,250.93496l4.93952,-0.70565" fill="none" stroke-opacity="0.14902" stroke="#ffffff" stroke-width="4.5" stroke-linecap="round"/></g></g></svg>