<svg version="1.1" xmlns="http://www.w3.org/2000/svg" xmlns:xlink="http://www.w3.org/1999/xlink" width="65.58686" height="59.65831" viewBox="0,0,65.58686,59.65831"><defs><radialGradient cx="180" cy="275.00001" r="29.82915" gradientUnits="userSpaceOnUse" id="color-1"><stop offset="0" stop-color="#ffffff" stop-opacity="0.63529"/><stop offset="1" stop-color="#adadad" stop-opacity="0.23922"/></radialGradient><linearGradient x1="178.84339" y1="286.49981" x2="178.84339" y2="299.39275" gradientUnits="userSpaceOnUse" id="color-2"><stop offset="0" stop-color="#d6dbff"/><stop offset="1" stop-color="#ffffff"/></linearGradient><linearGradient x1="181.20875" y1="250.67649" x2="181.20875" y2="264.06836" gradientUnits="userSpaceOnUse" id="color-3"><stop offset="0" stop-color="#d6dbff"/><stop offset="1" stop-color="#ffffff"/></linearGradient><linearGradient x1="179.99179" y1="263.48963" x2="179.99179" y2="279.56388" gradientUnits="userSpaceOnUse" id="color-4"><stop offset="0" stop-color="#d6dbff"/><stop offset="1" stop-color="#ffffff"/></linearGradient><linearGradient x1="177.41864" y1="247.36462" x2="177.41864" y2="251.60956" gradientUnits="userSpaceOnUse" id="color-5"><stop offset="0" stop-color="#5a5a5a"/><stop offset="1" stop-color="#1c1c1c"/></linearGradient><linearGradient x1="181.5173" y1="248.95883" x2="181.5173" y2="264.08069" gradientUnits="userSpaceOnUse" id="color-6"><stop offset="0" stop-color="#ff6f00"/><stop offset="1" stop-color="#ff8282"/></linearGradient><linearGradient x1="175.42693" y1="251.63673" x2="175.42693" y2="256.71645" gradientUnits="userSpaceOnUse" id="color-7"><stop offset="0" stop-color="#ffffff" stop-opacity="0.33725"/><stop offset="1" stop-color="#ffffff" stop-opacity="0"/></linearGradient><linearGradient x1="154.88201" y1="262.17544" x2="153.08069" y2="265.36489" gradientUnits="userSpaceOnUse" id="color-8"><stop offset="0" stop-color="#5a5a5a"/><stop offset="1" stop-color="#1c1c1c"/></linearGradient><linearGradient x1="157.28506" y1="265.11249" x2="150.8682" y2="276.47437" gradientUnits="userSpaceOnUse" id="color-9"><stop offset="0" stop-color="#ff0000"/><stop offset="1" stop-color="#ff8282"/></linearGradient><linearGradient x1="150.36501" y1="265.44504" x2="149.15423" y2="269.6578" gradientUnits="userSpaceOnUse" id="color-10"><stop offset="0" stop-color="#ffffff" stop-opacity="0.33725"/><stop offset="1" stop-color="#ffffff" stop-opacity="0"/></linearGradient><linearGradient x1="210.07053" y1="279.51972" x2="207.24593" y2="281.85188" gradientUnits="userSpaceOnUse" id="color-11"><stop offset="0" stop-color="#5a5a5a"/><stop offset="1" stop-color="#1c1c1c"/></linearGradient><linearGradient x1="211.26153" y1="283.12284" x2="201.19937" y2="291.43075" gradientUnits="userSpaceOnUse" id="color-12"><stop offset="0" stop-color="#a7ff00"/><stop offset="1" stop-color="#ecff82"/></linearGradient><linearGradient x1="202.75472" y1="282.08107" x2="201.54393" y2="286.29383" gradientUnits="userSpaceOnUse" id="color-13"><stop offset="0" stop-color="#ffffff" stop-opacity="0.33725"/><stop offset="1" stop-color="#ffffff" stop-opacity="0"/></linearGradient><linearGradient x1="160.58351" y1="288.31144" x2="159.74922" y2="291.87814" gradientUnits="userSpaceOnUse" id="color-14"><stop offset="0" stop-color="#5a5a5a"/><stop offset="1" stop-color="#1c1c1c"/></linearGradient><linearGradient x1="163.71397" y1="290.45647" x2="160.74198" y2="303.1622" gradientUnits="userSpaceOnUse" id="color-15"><stop offset="0" stop-color="#009fff"/><stop offset="1" stop-color="#82ffe5"/></linearGradient><linearGradient x1="158.25975" y1="291.89241" x2="157.04896" y2="296.10517" gradientUnits="userSpaceOnUse" id="color-16"><stop offset="0" stop-color="#ffffff" stop-opacity="0.33725"/><stop offset="1" stop-color="#ffffff" stop-opacity="0"/></linearGradient></defs><g transform="translate(-147.30221,-245.17084)"><g data-paper-data="{&quot;isPaintingLayer&quot;:true}" fill-rule="nonzero" stroke-miterlimit="10" stroke-dasharray="" stroke-dashoffset="0" style="mix-blend-mode: normal"><path d="M150.17085,275c0,-16.47419 13.35497,-29.82915 29.82915,-29.82915c16.47418,0 29.82915,13.35497 29.82915,29.82915c0,16.47419 -13.35497,29.82916 -29.82915,29.82916c-16.47418,0 -29.82915,-13.35497 -29.82915,-29.82916z" fill="url(#color-1)" stroke="none" stroke-width="0" stroke-linecap="butt" stroke-linejoin="miter"/><path d="M205.19393,291.14802c0,0 -1.64683,2.75713 -3.21787,4.29127c-1.36129,1.32931 -2.96878,2.64421 -2.96878,2.64421c0,0 -2.52672,-0.27825 -4.94827,-0.54491c-0.23386,-0.02576 -0.01216,1.85416 -0.01216,1.85416c0,0 -1.09267,-1.97582 -1.262,-1.99447c-0.2676,-0.02947 -0.81766,0.60444 -0.81766,0.60444c0,0 -0.50418,-0.75 -0.75066,-0.77715c-10.00693,-1.10198 -34.85807,-3.8386 -34.85807,-3.8386c0,0 -1.0965,-1.38586 -1.84019,-2.69927c-1.48542,-2.62338 -2.02542,-4.18788 -2.02542,-4.18788c0,0 3.83793,0.3385 8.18479,0.72189c0.17185,0.01516 0.94477,-0.6531 0.94477,-0.6531c0,0 -0.09586,0.72797 0.07035,0.74263c1.31175,0.1157 43.50119,3.83678 43.50119,3.83678z" data-paper-data="{&quot;index&quot;:null}" fill="url(#color-2)" stroke="none" stroke-width="0" stroke-linecap="butt" stroke-linejoin="miter"/><path d="M154.8582,258.92122c0,0 1.64683,-2.75713 3.21787,-4.29127c1.36129,-1.32931 2.96878,-2.64421 2.96878,-2.64421c0,0 2.52672,0.27824 4.94827,0.54491c0.23386,0.02576 0.01216,-1.85416 0.01216,-1.85416c0,0 1.09267,1.97582 1.262,1.99447c0.2676,0.02947 0.81766,-0.60444 0.81766,-0.60444c0,0 0.50418,0.75 0.75066,0.77714c10.00693,1.10198 34.85807,3.8386 34.85807,3.8386c0,0 1.0965,1.38586 1.84019,2.69928c1.48542,2.62338 2.02542,4.18788 2.02542,4.18788c0,0 -3.83793,-0.3385 -8.18479,-0.72189c-0.17185,-0.01516 -0.94477,0.6531 -0.94477,0.6531c0,0 0.09586,-0.72797 -0.07035,-0.74263c-1.31175,-0.1157 -2.64581,-0.23336 -3.91432,-0.34524c-0.20001,-0.01764 2.1226,1.65561 2.1226,1.65561c0,0 -3.37056,-1.76568 -3.68719,-1.79361c-9.71405,-0.85678 -38.02227,-3.35354 -38.02227,-3.35354z" fill="url(#color-3)" stroke="none" stroke-width="0" stroke-linecap="butt" stroke-linejoin="miter"/><path d="M166.83647,274.57101c-0.35343,-0.04158 -4.47382,0.9491 -4.47382,0.9491c0,0 2.95063,-1.12829 2.72737,-1.15455c-1.41596,-0.16658 -2.90509,-0.34175 -4.36932,-0.514c-0.18552,-0.02182 -0.25808,0.70957 -0.25808,0.70957c0,0 -0.68319,-0.82031 -0.87502,-0.84287c-4.85213,-0.57081 -9.55563,-1.03283 -9.55563,-1.03283l1.3089,-5.74469l1.12066,-3.45109c0,0 31.77363,6.00338 42.99723,7.10331c0.27645,0.02709 1.01127,-0.59536 1.01127,-0.59536c0,0 0.4476,0.73833 0.74773,0.76774c0.18992,0.01862 1.86787,-1.6724 1.86787,-1.6724c0,0 -0.70108,1.78675 -0.4388,1.81245c2.71597,0.26617 11.04487,0.75363 11.04487,0.75363c0,0 0.28472,1.60696 0.25819,3.90995c-0.02944,2.55626 -0.41983,3.99492 -0.41983,3.99492c0,0 -31.85039,-3.71728 -42.69358,-4.99287z" data-paper-data="{&quot;index&quot;:null}" fill="url(#color-4)" stroke="none" stroke-width="0" stroke-linecap="butt" stroke-linejoin="miter"/><g fill-opacity="0.20784" fill="#ffffff" stroke="none" stroke-width="0" stroke-linecap="butt" stroke-linejoin="miter"><path d="M180.18916,282.9817c-1.36647,2.92142 -9.68359,-0.96883 -8.31713,-3.89026c0.61402,-1.31275 1.8094,-2.8888 3.14806,-4.12898c-1.94981,0.45514 -4.24232,0.51234 -5.83276,0.18269c-3.15808,-0.65458 -1.29451,-9.64546 1.86357,-8.99087c1.34542,0.27886 3.04182,1.01147 4.50618,1.95256c-1.20279,-1.57132 -2.18754,-3.59169 -2.54699,-5.15026l-0.00001,0.00001c-0.72479,-3.14271 8.22233,-5.20614 8.94712,-2.06343c0.34434,1.49306 0.3584,3.61845 0.01334,5.49946c0.91485,-1.51771 2.15028,-2.95507 3.26228,-3.80836v0.00001c2.55869,-1.96342 8.14844,5.32104 5.58975,7.28446c-1.15908,0.88943 -2.96582,1.74417 -4.73908,2.22615c1.77534,0.36644 3.59688,1.08667 4.79454,1.88293v-0.00001c2.68579,1.78563 -2.39782,9.43192 -5.0836,7.64629c-1.5839,-1.05304 -3.46739,-3.1637 -4.45834,-5.15138c0.13873,2.1769 -0.36628,4.83998 -1.14693,6.50898z"/><path d="M175.12322,272.70511c-0.5698,-2.47068 0.97116,-4.93547 3.44184,-5.50527c2.47068,-0.5698 4.93547,0.97116 5.50527,3.44184c0.5698,2.47068 -0.97116,4.93547 -3.44184,5.50527c-2.47068,0.5698 -4.93547,-0.97116 -5.50527,-3.44184z"/></g><g fill-opacity="0.20784" fill="#ffffff" stroke="none" stroke-width="0" stroke-linecap="butt" stroke-linejoin="miter"><path d="M163.12067,287.42481c-0.92749,0.4655 -2.25276,-2.17501 -1.32527,-2.64052c0.41677,-0.20918 1.03286,-0.36897 1.6182,-0.41537c-0.58321,-0.27371 -1.17365,-0.71625 -1.50965,-1.11654c-0.66719,-0.79486 1.59573,-2.6943 2.26292,-1.89944c0.28424,0.33863 0.56668,0.86183 0.74895,1.39143c0.00942,-0.63664 0.16343,-1.34325 0.38332,-1.80856v0c0.44339,-0.93827 3.11458,0.32405 2.67119,1.26232c-0.21065,0.44576 -0.63077,0.98539 -1.09288,1.39171c0.53361,-0.20098 1.13217,-0.31776 1.58314,-0.31162v0c1.03766,0.01412 0.99745,2.96828 -0.04021,2.95416c-0.47006,-0.0064 -1.09678,-0.15066 -1.64075,-0.3824c0.37537,0.44645 0.69188,0.99147 0.83567,1.43132v0c0.32243,0.98639 -2.48578,1.90434 -2.80821,0.91795c-0.19015,-0.58171 -0.24515,-1.49027 -0.09922,-2.18985c-0.3989,0.5775 -1.0573,1.14947 -1.58717,1.41541z"/><path d="M163.88962,283.81931c0.34858,-0.73763 1.22912,-1.05301 1.96675,-0.70443c0.73763,0.34858 1.05301,1.22912 0.70443,1.96675c-0.34858,0.73763 -1.22912,1.05301 -1.96675,0.70444c-0.73763,-0.34858 -1.05301,-1.22912 -0.70443,-1.96675z"/></g><g fill-opacity="0.20784" fill="#ffffff" stroke="none" stroke-width="0" stroke-linecap="butt" stroke-linejoin="miter"><path d="M193.60607,292.71781c-1.12214,0.5632 -2.72554,-2.63148 -1.6034,-3.19468c0.50424,-0.25308 1.24963,-0.44641 1.95781,-0.50255c-0.70561,-0.33115 -1.41997,-0.86656 -1.82648,-1.35087c-0.80721,-0.96167 1.93063,-3.25975 2.73783,-2.29807c0.34389,0.40969 0.68561,1.0427 0.90613,1.68345c0.0114,-0.77025 0.19772,-1.62516 0.46377,-2.18812v0c0.53645,-1.13518 3.76823,0.39206 3.23178,1.52724c-0.25486,0.53931 -0.76315,1.19219 -1.32224,1.68379c0.6456,-0.24316 1.36978,-0.38444 1.91539,-0.37702v0c1.25543,0.01709 1.20678,3.59123 -0.04865,3.57414c-0.56871,-0.00774 -1.32696,-0.18228 -1.98509,-0.46265c0.45415,0.54014 0.83709,1.19954 1.01105,1.73171v0c0.3901,1.19341 -3.00747,2.304 -3.39757,1.1106c-0.23005,-0.70379 -0.29659,-1.80303 -0.12005,-2.64943c-0.48262,0.69869 -1.2792,1.39071 -1.92027,1.71246z"/><path d="M194.5364,288.35564c0.42173,-0.89243 1.48707,-1.274 2.37951,-0.85227c0.89243,0.42173 1.274,1.48707 0.85227,2.37951c-0.42173,0.89243 -1.48707,1.27401 -2.37951,0.85227c-0.89243,-0.42173 -1.274,-1.48708 -0.85227,-2.37951z"/></g><g><path d="M175.73875,251.60956l-0.77752,-2.00406c0,0 0.23057,-0.62858 1.51801,-1.45512c1.57942,-1.01399 2.61927,-0.75656 2.61927,-0.75656l0.77752,2.00406z" fill="url(#color-5)" stroke="none" stroke-width="0" stroke-linecap="butt" stroke-linejoin="miter"/><path d="M173.57833,256.51976c0,-4.17578 3.55441,-7.56094 7.93899,-7.56094c4.38458,0 7.93897,3.38515 7.93897,7.56094c0,4.17579 -3.55439,7.56092 -7.93897,7.56092c-4.38458,0 -7.93899,-3.38514 -7.93899,-7.56092z" fill="url(#color-6)" stroke="none" stroke-width="0" stroke-linecap="butt" stroke-linejoin="miter"/><path d="M184.74957,254.8527l-0.9338,-2.39071" data-paper-data="{&quot;index&quot;:null}" fill="none" stroke="#000000" stroke-width="1.5" stroke-linecap="round" stroke-linejoin="miter"/><path d="M184.12575,256.75119l-0.70019,3.05954l-2.44323,-1.80729" data-paper-data="{&quot;index&quot;:null}" fill="none" stroke="#000000" stroke-width="1.5" stroke-linecap="round" stroke-linejoin="bevel"/><path d="M178.15975,254.87344l0.97664,2.50038" data-paper-data="{&quot;index&quot;:null}" fill="none" stroke="#000000" stroke-width="1.5" stroke-linecap="round" stroke-linejoin="miter"/><path d="M174.28516,256.71645c0,0 0.06476,-1.674 0.77649,-3.04572c0.67736,-1.30546 1.50705,-2.03401 1.50705,-2.03401" fill="none" stroke="url(#color-7)" stroke-width="1.5" stroke-linecap="round" stroke-linejoin="miter"/></g><path d="M151.8185,264.65204l0.26621,-1.83569c0,0 0.43997,-0.37445 1.75804,-0.44915c1.61698,-0.09165 2.28905,0.54303 2.28905,0.54303l-0.26621,1.8357z" fill="url(#color-8)" stroke="none" stroke-width="0" stroke-linecap="butt" stroke-linejoin="miter"/><path d="M148.11165,267.42458c1.77196,-3.1375 5.87905,-4.17266 9.17343,-2.31209c3.29438,1.86057 4.52851,5.9123 2.75655,9.04979c-1.77196,3.1375 -5.87904,4.17266 -9.17341,2.31209c-3.29438,-1.86057 -4.52853,-5.9123 -2.75656,-9.04979z" fill="url(#color-9)" stroke="none" stroke-width="0" stroke-linecap="butt" stroke-linejoin="miter"/><path d="M148.20732,269.38565c0,0 0.45273,-1.37286 1.36994,-2.34082c0.87292,-0.9212 1.73466,-1.32765 1.73466,-1.32765" fill="none" stroke="url(#color-10)" stroke-width="1.5" stroke-linecap="round" stroke-linejoin="miter"/><path d="M206.323,280.73407l0.90634,-1.61839c0,0 0.54493,-0.19192 1.80223,0.21065c1.54244,0.49387 1.94244,1.32723 1.94244,1.32723l-0.90634,1.61839z" fill="url(#color-11)" stroke="none" stroke-width="0" stroke-linecap="butt" stroke-linejoin="miter"/><path d="M201.8688,281.99417c2.77858,-2.29417 6.98387,-1.78884 9.39274,1.12868c2.40887,2.91753 2.10915,7.14242 -0.66943,9.43659c-2.77858,2.29417 -6.98385,1.78885 -9.39273,-1.12868c-2.40887,-2.91753 -2.10916,-7.14243 0.66942,-9.43659z" fill="url(#color-12)" stroke="none" stroke-width="0" stroke-linecap="butt" stroke-linejoin="miter"/><path d="M200.59702,286.02168c0,0 0.45273,-1.37286 1.36994,-2.34082c0.87292,-0.9212 1.73466,-1.32765 1.73466,-1.32765" fill="none" stroke="url(#color-13)" stroke-width="1.5" stroke-linecap="round" stroke-linejoin="miter"/><path d="M158.33774,291.54798l-0.25942,-1.83667c0,0 0.31727,-0.48283 1.56145,-0.92428c1.52634,-0.54156 2.34947,-0.1209 2.34947,-0.1209l0.25942,1.83667z" fill="url(#color-14)" stroke="none" stroke-width="0" stroke-linecap="butt" stroke-linejoin="miter"/><path d="M155.55748,295.24905c0.82069,-3.50859 4.47249,-5.65431 8.15651,-4.79257c3.68402,0.86173 6.0052,4.40457 5.18451,7.91316c-0.82069,3.50859 -4.47248,5.65429 -8.1565,4.79256c-3.68402,-0.86173 -6.00521,-4.40456 -5.18452,-7.91315z" fill="url(#color-15)" stroke="none" stroke-width="0" stroke-linecap="butt" stroke-linejoin="miter"/><path d="M156.10205,295.83302c0,0 0.45273,-1.37286 1.36994,-2.34082c0.87292,-0.9212 1.73466,-1.32764 1.73466,-1.32764" fill="none" stroke="url(#color-16)" stroke-width="1.5" stroke-linecap="round" stroke-linejoin="miter"/></g></g></svg>