<svg version="1.1" xmlns="http://www.w3.org/2000/svg" xmlns:xlink="http://www.w3.org/1999/xlink" width="52.74932" height="60.3317" viewBox="0,0,52.74932,60.3317"><defs><linearGradient x1="168.87466" y1="280.34434" x2="168.87466" y2="294.17553" gradientUnits="userSpaceOnUse" id="color-1"><stop offset="0" stop-color="#8c00ff"/><stop offset="1" stop-color="#6700ff"/></linearGradient><linearGradient x1="188.629" y1="249.88718" x2="188.629" y2="274.6611" gradientUnits="userSpaceOnUse" id="color-2"><stop offset="0" stop-color="#7ae76b"/><stop offset="1" stop-color="#55a44c"/></linearGradient><linearGradient x1="174.77823" y1="282.57083" x2="174.77823" y2="300.11281" gradientUnits="userSpaceOnUse" id="color-3"><stop offset="0" stop-color="#8c00ff"/><stop offset="1" stop-color="#6700ff"/></linearGradient><linearGradient x1="182.50344" y1="271.64081" x2="182.50344" y2="289.79002" gradientUnits="userSpaceOnUse" id="color-4"><stop offset="0" stop-color="#8c00ff"/><stop offset="1" stop-color="#6700ff"/></linearGradient><linearGradient x1="173.46256" y1="264.08428" x2="173.46256" y2="288.84545" gradientUnits="userSpaceOnUse" id="color-5"><stop offset="0" stop-color="#8c00ff"/><stop offset="1" stop-color="#6700ff"/></linearGradient></defs><g transform="translate(-155.04631,-243.28112)"><g data-paper-data="{&quot;isPaintingLayer&quot;:true}" fill-rule="nonzero" stroke-linecap="butt" stroke-linejoin="miter" stroke-miterlimit="10" stroke-dasharray="" stroke-dashoffset="0" style="mix-blend-mode: normal"><g fill="none" stroke="#ffffff" stroke-width="7"><path d="M161.95907,287.25993c0,-3.81937 3.09622,-6.91558 6.91558,-6.91558c3.81937,0 6.91558,3.09621 6.91558,6.91558c0,3.81937 -3.09621,6.9156 -6.91558,6.9156c-3.81937,0 -6.91558,-3.09621 -6.91558,-6.9156z"/><path d="M178.33995,273.01355v-20.03835c0,0 0.40443,-1.31042 2.08475,-1.44526c1.32507,-0.10632 2.29929,1.21527 2.29929,1.21527l0.27287,11.12187l4.52901,-11.61596c0,0 0.79551,-2.23357 5.642,-2.35731c5.50655,-0.1406 5.75016,2.00189 5.75016,2.00189l-16.68023,22.7654z"/><path d="M166.00723,291.34182c0,-4.84409 3.9269,-8.771 8.771,-8.771c4.8441,0 8.771,3.9269 8.771,8.771c0,4.84409 -3.92691,8.771 -8.771,8.771c-4.8441,0 -8.771,-3.92691 -8.771,-8.771z"/><path d="M173.42883,280.71543c0,-5.01176 4.06284,-9.07461 9.07461,-9.07461c5.01176,0 9.0746,4.06284 9.0746,9.07461c0,5.01176 -4.06283,9.07461 -9.0746,9.07461c-5.01176,0 -9.07461,-4.06284 -9.07461,-9.07461z"/><path d="M161.08197,276.46486c0,-6.83762 5.54298,-12.38058 12.38058,-12.38058c6.8376,0 12.38059,5.54298 12.38059,12.38058c0,6.83762 -5.54298,12.38058 -12.38059,12.38058c-6.8376,0 -12.38058,-5.54298 -12.38058,-12.38058z"/></g><path d="M161.95907,287.25993c0,-3.81937 3.09622,-6.91558 6.91558,-6.91558c3.81937,0 6.91558,3.09621 6.91558,6.91558c0,3.81937 -3.09621,6.9156 -6.91558,6.9156c-3.81937,0 -6.91558,-3.09621 -6.91558,-6.9156z" fill="url(#color-1)" stroke="#000000" stroke-width="0"/><path d="M178.33995,273.01355v-20.03835c0,0 0.40443,-1.31042 2.08475,-1.44526c1.32507,-0.10632 2.29929,1.21527 2.29929,1.21527l0.27287,11.12187l4.52901,-11.61596c0,0 0.79551,-2.23357 5.642,-2.35731c5.50655,-0.1406 5.75016,2.00189 5.75016,2.00189l-16.68023,22.7654z" fill="url(#color-2)" stroke="#000000" stroke-width="0"/><path d="M166.00723,291.34182c0,-4.84409 3.9269,-8.771 8.771,-8.771c4.8441,0 8.771,3.9269 8.771,8.771c0,4.84409 -3.92691,8.771 -8.771,8.771c-4.8441,0 -8.771,-3.92691 -8.771,-8.771z" fill="url(#color-3)" stroke="#000000" stroke-width="0"/><path d="M173.42883,280.71543c0,-5.01176 4.06284,-9.07461 9.07461,-9.07461c5.01176,0 9.0746,4.06284 9.0746,9.07461c0,5.01176 -4.06283,9.07461 -9.0746,9.07461c-5.01176,0 -9.07461,-4.06284 -9.07461,-9.07461z" fill="url(#color-4)" stroke="#000000" stroke-width="0"/><path d="M161.08197,276.46486c0,-6.83762 5.54298,-12.38058 12.38058,-12.38058c6.8376,0 12.38059,5.54298 12.38059,12.38058c0,6.83762 -5.54298,12.38058 -12.38059,12.38058c-6.8376,0 -12.38058,-5.54298 -12.38058,-12.38058z" fill="url(#color-5)" stroke="#000000" stroke-width="0"/><path d="M155.04631,270.47999v-27.19887h52.74932v27.19887z" fill="none" stroke="none" stroke-width="0"/></g></g></svg>